G04 #@! TF.GenerationSoftware,KiCad,Pcbnew,5.1.8-5.1.8*
G04 #@! TF.CreationDate,2021-09-21T08:59:52+02:00*
G04 #@! TF.ProjectId,buttonbar,62757474-6f6e-4626-9172-2e6b69636164,rev?*
G04 #@! TF.SameCoordinates,Original*
G04 #@! TF.FileFunction,Copper,L2,Bot*
G04 #@! TF.FilePolarity,Positive*
%FSLAX46Y46*%
G04 Gerber Fmt 4.6, Leading zero omitted, Abs format (unit mm)*
G04 Created by KiCad (PCBNEW 5.1.8-5.1.8) date 2021-09-21 08:59:52*
%MOMM*%
%LPD*%
G01*
G04 APERTURE LIST*
G04 #@! TA.AperFunction,ComponentPad*
%ADD10O,1.850000X3.048000*%
G04 #@! TD*
G04 #@! TA.AperFunction,ComponentPad*
%ADD11O,1.700000X1.700000*%
G04 #@! TD*
G04 #@! TA.AperFunction,ComponentPad*
%ADD12R,1.700000X1.700000*%
G04 #@! TD*
G04 #@! TA.AperFunction,ViaPad*
%ADD13C,0.800000*%
G04 #@! TD*
G04 #@! TA.AperFunction,Conductor*
%ADD14C,0.250000*%
G04 #@! TD*
G04 #@! TA.AperFunction,Conductor*
%ADD15C,0.500000*%
G04 #@! TD*
G04 #@! TA.AperFunction,Conductor*
%ADD16C,0.254000*%
G04 #@! TD*
G04 #@! TA.AperFunction,Conductor*
%ADD17C,0.100000*%
G04 #@! TD*
G04 APERTURE END LIST*
D10*
X143785000Y-64450000D03*
X139415000Y-64450000D03*
X144100000Y-70800000D03*
X139100000Y-70800000D03*
X144100000Y-58300000D03*
X139100000Y-58300000D03*
X123915000Y-82850000D03*
X128285000Y-82850000D03*
X123600000Y-76500000D03*
X128600000Y-76500000D03*
X123600000Y-89000000D03*
X128600000Y-89000000D03*
X159285000Y-64450000D03*
X154915000Y-64450000D03*
X159600000Y-70800000D03*
X154600000Y-70800000D03*
X159600000Y-58300000D03*
X154600000Y-58300000D03*
X128285000Y-64450000D03*
X123915000Y-64450000D03*
X128600000Y-70800000D03*
X123600000Y-70800000D03*
X128600000Y-58300000D03*
X123600000Y-58300000D03*
X139415000Y-82850000D03*
X143785000Y-82850000D03*
X139100000Y-76500000D03*
X144100000Y-76500000D03*
X139100000Y-89000000D03*
X144100000Y-89000000D03*
X154915000Y-82850000D03*
X159285000Y-82850000D03*
X154600000Y-76500000D03*
X159600000Y-76500000D03*
X154600000Y-89000000D03*
X159600000Y-89000000D03*
G04 #@! TA.AperFunction,SMDPad,CuDef*
G36*
G01*
X166425000Y-78750000D02*
X166425000Y-78250000D01*
G75*
G02*
X166650000Y-78025000I225000J0D01*
G01*
X167100000Y-78025000D01*
G75*
G02*
X167325000Y-78250000I0J-225000D01*
G01*
X167325000Y-78750000D01*
G75*
G02*
X167100000Y-78975000I-225000J0D01*
G01*
X166650000Y-78975000D01*
G75*
G02*
X166425000Y-78750000I0J225000D01*
G01*
G37*
G04 #@! TD.AperFunction*
G04 #@! TA.AperFunction,SMDPad,CuDef*
G36*
G01*
X164875000Y-78750000D02*
X164875000Y-78250000D01*
G75*
G02*
X165100000Y-78025000I225000J0D01*
G01*
X165550000Y-78025000D01*
G75*
G02*
X165775000Y-78250000I0J-225000D01*
G01*
X165775000Y-78750000D01*
G75*
G02*
X165550000Y-78975000I-225000J0D01*
G01*
X165100000Y-78975000D01*
G75*
G02*
X164875000Y-78750000I0J225000D01*
G01*
G37*
G04 #@! TD.AperFunction*
G04 #@! TA.AperFunction,SMDPad,CuDef*
G36*
G01*
X151750000Y-86725000D02*
X152250000Y-86725000D01*
G75*
G02*
X152475000Y-86950000I0J-225000D01*
G01*
X152475000Y-87400000D01*
G75*
G02*
X152250000Y-87625000I-225000J0D01*
G01*
X151750000Y-87625000D01*
G75*
G02*
X151525000Y-87400000I0J225000D01*
G01*
X151525000Y-86950000D01*
G75*
G02*
X151750000Y-86725000I225000J0D01*
G01*
G37*
G04 #@! TD.AperFunction*
G04 #@! TA.AperFunction,SMDPad,CuDef*
G36*
G01*
X151750000Y-85175000D02*
X152250000Y-85175000D01*
G75*
G02*
X152475000Y-85400000I0J-225000D01*
G01*
X152475000Y-85850000D01*
G75*
G02*
X152250000Y-86075000I-225000J0D01*
G01*
X151750000Y-86075000D01*
G75*
G02*
X151525000Y-85850000I0J225000D01*
G01*
X151525000Y-85400000D01*
G75*
G02*
X151750000Y-85175000I225000J0D01*
G01*
G37*
G04 #@! TD.AperFunction*
G04 #@! TA.AperFunction,SMDPad,CuDef*
G36*
G01*
X136250000Y-86725000D02*
X136750000Y-86725000D01*
G75*
G02*
X136975000Y-86950000I0J-225000D01*
G01*
X136975000Y-87400000D01*
G75*
G02*
X136750000Y-87625000I-225000J0D01*
G01*
X136250000Y-87625000D01*
G75*
G02*
X136025000Y-87400000I0J225000D01*
G01*
X136025000Y-86950000D01*
G75*
G02*
X136250000Y-86725000I225000J0D01*
G01*
G37*
G04 #@! TD.AperFunction*
G04 #@! TA.AperFunction,SMDPad,CuDef*
G36*
G01*
X136250000Y-85175000D02*
X136750000Y-85175000D01*
G75*
G02*
X136975000Y-85400000I0J-225000D01*
G01*
X136975000Y-85850000D01*
G75*
G02*
X136750000Y-86075000I-225000J0D01*
G01*
X136250000Y-86075000D01*
G75*
G02*
X136025000Y-85850000I0J225000D01*
G01*
X136025000Y-85400000D01*
G75*
G02*
X136250000Y-85175000I225000J0D01*
G01*
G37*
G04 #@! TD.AperFunction*
G04 #@! TA.AperFunction,SMDPad,CuDef*
G36*
G01*
X120750000Y-86725000D02*
X121250000Y-86725000D01*
G75*
G02*
X121475000Y-86950000I0J-225000D01*
G01*
X121475000Y-87400000D01*
G75*
G02*
X121250000Y-87625000I-225000J0D01*
G01*
X120750000Y-87625000D01*
G75*
G02*
X120525000Y-87400000I0J225000D01*
G01*
X120525000Y-86950000D01*
G75*
G02*
X120750000Y-86725000I225000J0D01*
G01*
G37*
G04 #@! TD.AperFunction*
G04 #@! TA.AperFunction,SMDPad,CuDef*
G36*
G01*
X120750000Y-85175000D02*
X121250000Y-85175000D01*
G75*
G02*
X121475000Y-85400000I0J-225000D01*
G01*
X121475000Y-85850000D01*
G75*
G02*
X121250000Y-86075000I-225000J0D01*
G01*
X120750000Y-86075000D01*
G75*
G02*
X120525000Y-85850000I0J225000D01*
G01*
X120525000Y-85400000D01*
G75*
G02*
X120750000Y-85175000I225000J0D01*
G01*
G37*
G04 #@! TD.AperFunction*
G04 #@! TA.AperFunction,SMDPad,CuDef*
G36*
G01*
X162450000Y-60775000D02*
X161950000Y-60775000D01*
G75*
G02*
X161725000Y-60550000I0J225000D01*
G01*
X161725000Y-60100000D01*
G75*
G02*
X161950000Y-59875000I225000J0D01*
G01*
X162450000Y-59875000D01*
G75*
G02*
X162675000Y-60100000I0J-225000D01*
G01*
X162675000Y-60550000D01*
G75*
G02*
X162450000Y-60775000I-225000J0D01*
G01*
G37*
G04 #@! TD.AperFunction*
G04 #@! TA.AperFunction,SMDPad,CuDef*
G36*
G01*
X162450000Y-62325000D02*
X161950000Y-62325000D01*
G75*
G02*
X161725000Y-62100000I0J225000D01*
G01*
X161725000Y-61650000D01*
G75*
G02*
X161950000Y-61425000I225000J0D01*
G01*
X162450000Y-61425000D01*
G75*
G02*
X162675000Y-61650000I0J-225000D01*
G01*
X162675000Y-62100000D01*
G75*
G02*
X162450000Y-62325000I-225000J0D01*
G01*
G37*
G04 #@! TD.AperFunction*
G04 #@! TA.AperFunction,SMDPad,CuDef*
G36*
G01*
X146950000Y-60775000D02*
X146450000Y-60775000D01*
G75*
G02*
X146225000Y-60550000I0J225000D01*
G01*
X146225000Y-60100000D01*
G75*
G02*
X146450000Y-59875000I225000J0D01*
G01*
X146950000Y-59875000D01*
G75*
G02*
X147175000Y-60100000I0J-225000D01*
G01*
X147175000Y-60550000D01*
G75*
G02*
X146950000Y-60775000I-225000J0D01*
G01*
G37*
G04 #@! TD.AperFunction*
G04 #@! TA.AperFunction,SMDPad,CuDef*
G36*
G01*
X146950000Y-62325000D02*
X146450000Y-62325000D01*
G75*
G02*
X146225000Y-62100000I0J225000D01*
G01*
X146225000Y-61650000D01*
G75*
G02*
X146450000Y-61425000I225000J0D01*
G01*
X146950000Y-61425000D01*
G75*
G02*
X147175000Y-61650000I0J-225000D01*
G01*
X147175000Y-62100000D01*
G75*
G02*
X146950000Y-62325000I-225000J0D01*
G01*
G37*
G04 #@! TD.AperFunction*
G04 #@! TA.AperFunction,SMDPad,CuDef*
G36*
G01*
X131450000Y-60775000D02*
X130950000Y-60775000D01*
G75*
G02*
X130725000Y-60550000I0J225000D01*
G01*
X130725000Y-60100000D01*
G75*
G02*
X130950000Y-59875000I225000J0D01*
G01*
X131450000Y-59875000D01*
G75*
G02*
X131675000Y-60100000I0J-225000D01*
G01*
X131675000Y-60550000D01*
G75*
G02*
X131450000Y-60775000I-225000J0D01*
G01*
G37*
G04 #@! TD.AperFunction*
G04 #@! TA.AperFunction,SMDPad,CuDef*
G36*
G01*
X131450000Y-62325000D02*
X130950000Y-62325000D01*
G75*
G02*
X130725000Y-62100000I0J225000D01*
G01*
X130725000Y-61650000D01*
G75*
G02*
X130950000Y-61425000I225000J0D01*
G01*
X131450000Y-61425000D01*
G75*
G02*
X131675000Y-61650000I0J-225000D01*
G01*
X131675000Y-62100000D01*
G75*
G02*
X131450000Y-62325000I-225000J0D01*
G01*
G37*
G04 #@! TD.AperFunction*
G04 #@! TA.AperFunction,SMDPad,CuDef*
G36*
G01*
X166400000Y-79940000D02*
X166400000Y-80240000D01*
G75*
G02*
X166250000Y-80390000I-150000J0D01*
G01*
X164600000Y-80390000D01*
G75*
G02*
X164450000Y-80240000I0J150000D01*
G01*
X164450000Y-79940000D01*
G75*
G02*
X164600000Y-79790000I150000J0D01*
G01*
X166250000Y-79790000D01*
G75*
G02*
X166400000Y-79940000I0J-150000D01*
G01*
G37*
G04 #@! TD.AperFunction*
G04 #@! TA.AperFunction,SMDPad,CuDef*
G36*
G01*
X166400000Y-81210000D02*
X166400000Y-81510000D01*
G75*
G02*
X166250000Y-81660000I-150000J0D01*
G01*
X164600000Y-81660000D01*
G75*
G02*
X164450000Y-81510000I0J150000D01*
G01*
X164450000Y-81210000D01*
G75*
G02*
X164600000Y-81060000I150000J0D01*
G01*
X166250000Y-81060000D01*
G75*
G02*
X166400000Y-81210000I0J-150000D01*
G01*
G37*
G04 #@! TD.AperFunction*
G04 #@! TA.AperFunction,SMDPad,CuDef*
G36*
G01*
X166400000Y-82480000D02*
X166400000Y-82780000D01*
G75*
G02*
X166250000Y-82930000I-150000J0D01*
G01*
X164600000Y-82930000D01*
G75*
G02*
X164450000Y-82780000I0J150000D01*
G01*
X164450000Y-82480000D01*
G75*
G02*
X164600000Y-82330000I150000J0D01*
G01*
X166250000Y-82330000D01*
G75*
G02*
X166400000Y-82480000I0J-150000D01*
G01*
G37*
G04 #@! TD.AperFunction*
G04 #@! TA.AperFunction,SMDPad,CuDef*
G36*
G01*
X166400000Y-83750000D02*
X166400000Y-84050000D01*
G75*
G02*
X166250000Y-84200000I-150000J0D01*
G01*
X164600000Y-84200000D01*
G75*
G02*
X164450000Y-84050000I0J150000D01*
G01*
X164450000Y-83750000D01*
G75*
G02*
X164600000Y-83600000I150000J0D01*
G01*
X166250000Y-83600000D01*
G75*
G02*
X166400000Y-83750000I0J-150000D01*
G01*
G37*
G04 #@! TD.AperFunction*
G04 #@! TA.AperFunction,SMDPad,CuDef*
G36*
G01*
X166400000Y-85020000D02*
X166400000Y-85320000D01*
G75*
G02*
X166250000Y-85470000I-150000J0D01*
G01*
X164600000Y-85470000D01*
G75*
G02*
X164450000Y-85320000I0J150000D01*
G01*
X164450000Y-85020000D01*
G75*
G02*
X164600000Y-84870000I150000J0D01*
G01*
X166250000Y-84870000D01*
G75*
G02*
X166400000Y-85020000I0J-150000D01*
G01*
G37*
G04 #@! TD.AperFunction*
G04 #@! TA.AperFunction,SMDPad,CuDef*
G36*
G01*
X166400000Y-86290000D02*
X166400000Y-86590000D01*
G75*
G02*
X166250000Y-86740000I-150000J0D01*
G01*
X164600000Y-86740000D01*
G75*
G02*
X164450000Y-86590000I0J150000D01*
G01*
X164450000Y-86290000D01*
G75*
G02*
X164600000Y-86140000I150000J0D01*
G01*
X166250000Y-86140000D01*
G75*
G02*
X166400000Y-86290000I0J-150000D01*
G01*
G37*
G04 #@! TD.AperFunction*
G04 #@! TA.AperFunction,SMDPad,CuDef*
G36*
G01*
X166400000Y-87560000D02*
X166400000Y-87860000D01*
G75*
G02*
X166250000Y-88010000I-150000J0D01*
G01*
X164600000Y-88010000D01*
G75*
G02*
X164450000Y-87860000I0J150000D01*
G01*
X164450000Y-87560000D01*
G75*
G02*
X164600000Y-87410000I150000J0D01*
G01*
X166250000Y-87410000D01*
G75*
G02*
X166400000Y-87560000I0J-150000D01*
G01*
G37*
G04 #@! TD.AperFunction*
G04 #@! TA.AperFunction,SMDPad,CuDef*
G36*
G01*
X171350000Y-87560000D02*
X171350000Y-87860000D01*
G75*
G02*
X171200000Y-88010000I-150000J0D01*
G01*
X169550000Y-88010000D01*
G75*
G02*
X169400000Y-87860000I0J150000D01*
G01*
X169400000Y-87560000D01*
G75*
G02*
X169550000Y-87410000I150000J0D01*
G01*
X171200000Y-87410000D01*
G75*
G02*
X171350000Y-87560000I0J-150000D01*
G01*
G37*
G04 #@! TD.AperFunction*
G04 #@! TA.AperFunction,SMDPad,CuDef*
G36*
G01*
X171350000Y-86290000D02*
X171350000Y-86590000D01*
G75*
G02*
X171200000Y-86740000I-150000J0D01*
G01*
X169550000Y-86740000D01*
G75*
G02*
X169400000Y-86590000I0J150000D01*
G01*
X169400000Y-86290000D01*
G75*
G02*
X169550000Y-86140000I150000J0D01*
G01*
X171200000Y-86140000D01*
G75*
G02*
X171350000Y-86290000I0J-150000D01*
G01*
G37*
G04 #@! TD.AperFunction*
G04 #@! TA.AperFunction,SMDPad,CuDef*
G36*
G01*
X171350000Y-85020000D02*
X171350000Y-85320000D01*
G75*
G02*
X171200000Y-85470000I-150000J0D01*
G01*
X169550000Y-85470000D01*
G75*
G02*
X169400000Y-85320000I0J150000D01*
G01*
X169400000Y-85020000D01*
G75*
G02*
X169550000Y-84870000I150000J0D01*
G01*
X171200000Y-84870000D01*
G75*
G02*
X171350000Y-85020000I0J-150000D01*
G01*
G37*
G04 #@! TD.AperFunction*
G04 #@! TA.AperFunction,SMDPad,CuDef*
G36*
G01*
X171350000Y-83750000D02*
X171350000Y-84050000D01*
G75*
G02*
X171200000Y-84200000I-150000J0D01*
G01*
X169550000Y-84200000D01*
G75*
G02*
X169400000Y-84050000I0J150000D01*
G01*
X169400000Y-83750000D01*
G75*
G02*
X169550000Y-83600000I150000J0D01*
G01*
X171200000Y-83600000D01*
G75*
G02*
X171350000Y-83750000I0J-150000D01*
G01*
G37*
G04 #@! TD.AperFunction*
G04 #@! TA.AperFunction,SMDPad,CuDef*
G36*
G01*
X171350000Y-82480000D02*
X171350000Y-82780000D01*
G75*
G02*
X171200000Y-82930000I-150000J0D01*
G01*
X169550000Y-82930000D01*
G75*
G02*
X169400000Y-82780000I0J150000D01*
G01*
X169400000Y-82480000D01*
G75*
G02*
X169550000Y-82330000I150000J0D01*
G01*
X171200000Y-82330000D01*
G75*
G02*
X171350000Y-82480000I0J-150000D01*
G01*
G37*
G04 #@! TD.AperFunction*
G04 #@! TA.AperFunction,SMDPad,CuDef*
G36*
G01*
X171350000Y-81210000D02*
X171350000Y-81510000D01*
G75*
G02*
X171200000Y-81660000I-150000J0D01*
G01*
X169550000Y-81660000D01*
G75*
G02*
X169400000Y-81510000I0J150000D01*
G01*
X169400000Y-81210000D01*
G75*
G02*
X169550000Y-81060000I150000J0D01*
G01*
X171200000Y-81060000D01*
G75*
G02*
X171350000Y-81210000I0J-150000D01*
G01*
G37*
G04 #@! TD.AperFunction*
G04 #@! TA.AperFunction,SMDPad,CuDef*
G36*
G01*
X171350000Y-79940000D02*
X171350000Y-80240000D01*
G75*
G02*
X171200000Y-80390000I-150000J0D01*
G01*
X169550000Y-80390000D01*
G75*
G02*
X169400000Y-80240000I0J150000D01*
G01*
X169400000Y-79940000D01*
G75*
G02*
X169550000Y-79790000I150000J0D01*
G01*
X171200000Y-79790000D01*
G75*
G02*
X171350000Y-79940000I0J-150000D01*
G01*
G37*
G04 #@! TD.AperFunction*
G04 #@! TA.AperFunction,SMDPad,CuDef*
G36*
G01*
X152275000Y-82775000D02*
X151725000Y-82775000D01*
G75*
G02*
X151525000Y-82575000I0J200000D01*
G01*
X151525000Y-82175000D01*
G75*
G02*
X151725000Y-81975000I200000J0D01*
G01*
X152275000Y-81975000D01*
G75*
G02*
X152475000Y-82175000I0J-200000D01*
G01*
X152475000Y-82575000D01*
G75*
G02*
X152275000Y-82775000I-200000J0D01*
G01*
G37*
G04 #@! TD.AperFunction*
G04 #@! TA.AperFunction,SMDPad,CuDef*
G36*
G01*
X152275000Y-84425000D02*
X151725000Y-84425000D01*
G75*
G02*
X151525000Y-84225000I0J200000D01*
G01*
X151525000Y-83825000D01*
G75*
G02*
X151725000Y-83625000I200000J0D01*
G01*
X152275000Y-83625000D01*
G75*
G02*
X152475000Y-83825000I0J-200000D01*
G01*
X152475000Y-84225000D01*
G75*
G02*
X152275000Y-84425000I-200000J0D01*
G01*
G37*
G04 #@! TD.AperFunction*
G04 #@! TA.AperFunction,SMDPad,CuDef*
G36*
G01*
X151725000Y-80425000D02*
X152275000Y-80425000D01*
G75*
G02*
X152475000Y-80625000I0J-200000D01*
G01*
X152475000Y-81025000D01*
G75*
G02*
X152275000Y-81225000I-200000J0D01*
G01*
X151725000Y-81225000D01*
G75*
G02*
X151525000Y-81025000I0J200000D01*
G01*
X151525000Y-80625000D01*
G75*
G02*
X151725000Y-80425000I200000J0D01*
G01*
G37*
G04 #@! TD.AperFunction*
G04 #@! TA.AperFunction,SMDPad,CuDef*
G36*
G01*
X151725000Y-78775000D02*
X152275000Y-78775000D01*
G75*
G02*
X152475000Y-78975000I0J-200000D01*
G01*
X152475000Y-79375000D01*
G75*
G02*
X152275000Y-79575000I-200000J0D01*
G01*
X151725000Y-79575000D01*
G75*
G02*
X151525000Y-79375000I0J200000D01*
G01*
X151525000Y-78975000D01*
G75*
G02*
X151725000Y-78775000I200000J0D01*
G01*
G37*
G04 #@! TD.AperFunction*
G04 #@! TA.AperFunction,SMDPad,CuDef*
G36*
G01*
X136775000Y-82775000D02*
X136225000Y-82775000D01*
G75*
G02*
X136025000Y-82575000I0J200000D01*
G01*
X136025000Y-82175000D01*
G75*
G02*
X136225000Y-81975000I200000J0D01*
G01*
X136775000Y-81975000D01*
G75*
G02*
X136975000Y-82175000I0J-200000D01*
G01*
X136975000Y-82575000D01*
G75*
G02*
X136775000Y-82775000I-200000J0D01*
G01*
G37*
G04 #@! TD.AperFunction*
G04 #@! TA.AperFunction,SMDPad,CuDef*
G36*
G01*
X136775000Y-84425000D02*
X136225000Y-84425000D01*
G75*
G02*
X136025000Y-84225000I0J200000D01*
G01*
X136025000Y-83825000D01*
G75*
G02*
X136225000Y-83625000I200000J0D01*
G01*
X136775000Y-83625000D01*
G75*
G02*
X136975000Y-83825000I0J-200000D01*
G01*
X136975000Y-84225000D01*
G75*
G02*
X136775000Y-84425000I-200000J0D01*
G01*
G37*
G04 #@! TD.AperFunction*
G04 #@! TA.AperFunction,SMDPad,CuDef*
G36*
G01*
X136225000Y-80425000D02*
X136775000Y-80425000D01*
G75*
G02*
X136975000Y-80625000I0J-200000D01*
G01*
X136975000Y-81025000D01*
G75*
G02*
X136775000Y-81225000I-200000J0D01*
G01*
X136225000Y-81225000D01*
G75*
G02*
X136025000Y-81025000I0J200000D01*
G01*
X136025000Y-80625000D01*
G75*
G02*
X136225000Y-80425000I200000J0D01*
G01*
G37*
G04 #@! TD.AperFunction*
G04 #@! TA.AperFunction,SMDPad,CuDef*
G36*
G01*
X136225000Y-78775000D02*
X136775000Y-78775000D01*
G75*
G02*
X136975000Y-78975000I0J-200000D01*
G01*
X136975000Y-79375000D01*
G75*
G02*
X136775000Y-79575000I-200000J0D01*
G01*
X136225000Y-79575000D01*
G75*
G02*
X136025000Y-79375000I0J200000D01*
G01*
X136025000Y-78975000D01*
G75*
G02*
X136225000Y-78775000I200000J0D01*
G01*
G37*
G04 #@! TD.AperFunction*
G04 #@! TA.AperFunction,SMDPad,CuDef*
G36*
G01*
X121275000Y-82775000D02*
X120725000Y-82775000D01*
G75*
G02*
X120525000Y-82575000I0J200000D01*
G01*
X120525000Y-82175000D01*
G75*
G02*
X120725000Y-81975000I200000J0D01*
G01*
X121275000Y-81975000D01*
G75*
G02*
X121475000Y-82175000I0J-200000D01*
G01*
X121475000Y-82575000D01*
G75*
G02*
X121275000Y-82775000I-200000J0D01*
G01*
G37*
G04 #@! TD.AperFunction*
G04 #@! TA.AperFunction,SMDPad,CuDef*
G36*
G01*
X121275000Y-84425000D02*
X120725000Y-84425000D01*
G75*
G02*
X120525000Y-84225000I0J200000D01*
G01*
X120525000Y-83825000D01*
G75*
G02*
X120725000Y-83625000I200000J0D01*
G01*
X121275000Y-83625000D01*
G75*
G02*
X121475000Y-83825000I0J-200000D01*
G01*
X121475000Y-84225000D01*
G75*
G02*
X121275000Y-84425000I-200000J0D01*
G01*
G37*
G04 #@! TD.AperFunction*
G04 #@! TA.AperFunction,SMDPad,CuDef*
G36*
G01*
X120725000Y-80425000D02*
X121275000Y-80425000D01*
G75*
G02*
X121475000Y-80625000I0J-200000D01*
G01*
X121475000Y-81025000D01*
G75*
G02*
X121275000Y-81225000I-200000J0D01*
G01*
X120725000Y-81225000D01*
G75*
G02*
X120525000Y-81025000I0J200000D01*
G01*
X120525000Y-80625000D01*
G75*
G02*
X120725000Y-80425000I200000J0D01*
G01*
G37*
G04 #@! TD.AperFunction*
G04 #@! TA.AperFunction,SMDPad,CuDef*
G36*
G01*
X120725000Y-78775000D02*
X121275000Y-78775000D01*
G75*
G02*
X121475000Y-78975000I0J-200000D01*
G01*
X121475000Y-79375000D01*
G75*
G02*
X121275000Y-79575000I-200000J0D01*
G01*
X120725000Y-79575000D01*
G75*
G02*
X120525000Y-79375000I0J200000D01*
G01*
X120525000Y-78975000D01*
G75*
G02*
X120725000Y-78775000I200000J0D01*
G01*
G37*
G04 #@! TD.AperFunction*
G04 #@! TA.AperFunction,SMDPad,CuDef*
G36*
G01*
X161925000Y-64825000D02*
X162475000Y-64825000D01*
G75*
G02*
X162675000Y-65025000I0J-200000D01*
G01*
X162675000Y-65425000D01*
G75*
G02*
X162475000Y-65625000I-200000J0D01*
G01*
X161925000Y-65625000D01*
G75*
G02*
X161725000Y-65425000I0J200000D01*
G01*
X161725000Y-65025000D01*
G75*
G02*
X161925000Y-64825000I200000J0D01*
G01*
G37*
G04 #@! TD.AperFunction*
G04 #@! TA.AperFunction,SMDPad,CuDef*
G36*
G01*
X161925000Y-63175000D02*
X162475000Y-63175000D01*
G75*
G02*
X162675000Y-63375000I0J-200000D01*
G01*
X162675000Y-63775000D01*
G75*
G02*
X162475000Y-63975000I-200000J0D01*
G01*
X161925000Y-63975000D01*
G75*
G02*
X161725000Y-63775000I0J200000D01*
G01*
X161725000Y-63375000D01*
G75*
G02*
X161925000Y-63175000I200000J0D01*
G01*
G37*
G04 #@! TD.AperFunction*
G04 #@! TA.AperFunction,SMDPad,CuDef*
G36*
G01*
X162475000Y-67275000D02*
X161925000Y-67275000D01*
G75*
G02*
X161725000Y-67075000I0J200000D01*
G01*
X161725000Y-66675000D01*
G75*
G02*
X161925000Y-66475000I200000J0D01*
G01*
X162475000Y-66475000D01*
G75*
G02*
X162675000Y-66675000I0J-200000D01*
G01*
X162675000Y-67075000D01*
G75*
G02*
X162475000Y-67275000I-200000J0D01*
G01*
G37*
G04 #@! TD.AperFunction*
G04 #@! TA.AperFunction,SMDPad,CuDef*
G36*
G01*
X162475000Y-68925000D02*
X161925000Y-68925000D01*
G75*
G02*
X161725000Y-68725000I0J200000D01*
G01*
X161725000Y-68325000D01*
G75*
G02*
X161925000Y-68125000I200000J0D01*
G01*
X162475000Y-68125000D01*
G75*
G02*
X162675000Y-68325000I0J-200000D01*
G01*
X162675000Y-68725000D01*
G75*
G02*
X162475000Y-68925000I-200000J0D01*
G01*
G37*
G04 #@! TD.AperFunction*
G04 #@! TA.AperFunction,SMDPad,CuDef*
G36*
G01*
X146425000Y-64825000D02*
X146975000Y-64825000D01*
G75*
G02*
X147175000Y-65025000I0J-200000D01*
G01*
X147175000Y-65425000D01*
G75*
G02*
X146975000Y-65625000I-200000J0D01*
G01*
X146425000Y-65625000D01*
G75*
G02*
X146225000Y-65425000I0J200000D01*
G01*
X146225000Y-65025000D01*
G75*
G02*
X146425000Y-64825000I200000J0D01*
G01*
G37*
G04 #@! TD.AperFunction*
G04 #@! TA.AperFunction,SMDPad,CuDef*
G36*
G01*
X146425000Y-63175000D02*
X146975000Y-63175000D01*
G75*
G02*
X147175000Y-63375000I0J-200000D01*
G01*
X147175000Y-63775000D01*
G75*
G02*
X146975000Y-63975000I-200000J0D01*
G01*
X146425000Y-63975000D01*
G75*
G02*
X146225000Y-63775000I0J200000D01*
G01*
X146225000Y-63375000D01*
G75*
G02*
X146425000Y-63175000I200000J0D01*
G01*
G37*
G04 #@! TD.AperFunction*
G04 #@! TA.AperFunction,SMDPad,CuDef*
G36*
G01*
X146975000Y-67275000D02*
X146425000Y-67275000D01*
G75*
G02*
X146225000Y-67075000I0J200000D01*
G01*
X146225000Y-66675000D01*
G75*
G02*
X146425000Y-66475000I200000J0D01*
G01*
X146975000Y-66475000D01*
G75*
G02*
X147175000Y-66675000I0J-200000D01*
G01*
X147175000Y-67075000D01*
G75*
G02*
X146975000Y-67275000I-200000J0D01*
G01*
G37*
G04 #@! TD.AperFunction*
G04 #@! TA.AperFunction,SMDPad,CuDef*
G36*
G01*
X146975000Y-68925000D02*
X146425000Y-68925000D01*
G75*
G02*
X146225000Y-68725000I0J200000D01*
G01*
X146225000Y-68325000D01*
G75*
G02*
X146425000Y-68125000I200000J0D01*
G01*
X146975000Y-68125000D01*
G75*
G02*
X147175000Y-68325000I0J-200000D01*
G01*
X147175000Y-68725000D01*
G75*
G02*
X146975000Y-68925000I-200000J0D01*
G01*
G37*
G04 #@! TD.AperFunction*
G04 #@! TA.AperFunction,SMDPad,CuDef*
G36*
G01*
X130925000Y-64825000D02*
X131475000Y-64825000D01*
G75*
G02*
X131675000Y-65025000I0J-200000D01*
G01*
X131675000Y-65425000D01*
G75*
G02*
X131475000Y-65625000I-200000J0D01*
G01*
X130925000Y-65625000D01*
G75*
G02*
X130725000Y-65425000I0J200000D01*
G01*
X130725000Y-65025000D01*
G75*
G02*
X130925000Y-64825000I200000J0D01*
G01*
G37*
G04 #@! TD.AperFunction*
G04 #@! TA.AperFunction,SMDPad,CuDef*
G36*
G01*
X130925000Y-63175000D02*
X131475000Y-63175000D01*
G75*
G02*
X131675000Y-63375000I0J-200000D01*
G01*
X131675000Y-63775000D01*
G75*
G02*
X131475000Y-63975000I-200000J0D01*
G01*
X130925000Y-63975000D01*
G75*
G02*
X130725000Y-63775000I0J200000D01*
G01*
X130725000Y-63375000D01*
G75*
G02*
X130925000Y-63175000I200000J0D01*
G01*
G37*
G04 #@! TD.AperFunction*
G04 #@! TA.AperFunction,SMDPad,CuDef*
G36*
G01*
X131475000Y-67275000D02*
X130925000Y-67275000D01*
G75*
G02*
X130725000Y-67075000I0J200000D01*
G01*
X130725000Y-66675000D01*
G75*
G02*
X130925000Y-66475000I200000J0D01*
G01*
X131475000Y-66475000D01*
G75*
G02*
X131675000Y-66675000I0J-200000D01*
G01*
X131675000Y-67075000D01*
G75*
G02*
X131475000Y-67275000I-200000J0D01*
G01*
G37*
G04 #@! TD.AperFunction*
G04 #@! TA.AperFunction,SMDPad,CuDef*
G36*
G01*
X131475000Y-68925000D02*
X130925000Y-68925000D01*
G75*
G02*
X130725000Y-68725000I0J200000D01*
G01*
X130725000Y-68325000D01*
G75*
G02*
X130925000Y-68125000I200000J0D01*
G01*
X131475000Y-68125000D01*
G75*
G02*
X131675000Y-68325000I0J-200000D01*
G01*
X131675000Y-68725000D01*
G75*
G02*
X131475000Y-68925000I-200000J0D01*
G01*
G37*
G04 #@! TD.AperFunction*
D11*
X112800000Y-80000000D03*
X112800000Y-77460000D03*
X112800000Y-74920000D03*
X112800000Y-72380000D03*
X112800000Y-69840000D03*
D12*
X112800000Y-67300000D03*
D11*
X168400000Y-57020000D03*
X168400000Y-59560000D03*
X168400000Y-62100000D03*
X168400000Y-64640000D03*
X168400000Y-67180000D03*
X168400000Y-69720000D03*
X168400000Y-72260000D03*
D12*
X168400000Y-74800000D03*
D13*
X133500000Y-63500000D03*
X170200000Y-78900000D03*
X149200000Y-63400000D03*
X171975000Y-82200000D03*
X164900000Y-63600000D03*
X172237347Y-84737347D03*
X162200000Y-71300000D03*
X164728231Y-89028231D03*
D14*
X131200000Y-63575000D02*
X131200000Y-61875000D01*
X133425000Y-63575000D02*
X133500000Y-63500000D01*
X131200000Y-63575000D02*
X133425000Y-63575000D01*
X170200000Y-79915000D02*
X170375000Y-80090000D01*
X170200000Y-78900000D02*
X170200000Y-79915000D01*
X146700000Y-61875000D02*
X146700000Y-63575000D01*
X149025000Y-63575000D02*
X149200000Y-63400000D01*
X146700000Y-63575000D02*
X149025000Y-63575000D01*
X170805000Y-82200000D02*
X170375000Y-82630000D01*
X171975000Y-82200000D02*
X170805000Y-82200000D01*
X162200000Y-61875000D02*
X162200000Y-63575000D01*
X164875000Y-63575000D02*
X164900000Y-63600000D01*
X162200000Y-63575000D02*
X164875000Y-63575000D01*
X170807653Y-84737347D02*
X170375000Y-85170000D01*
X172237347Y-84737347D02*
X170807653Y-84737347D01*
X121000000Y-85625000D02*
X121000000Y-84025000D01*
X166400000Y-81360000D02*
X165425000Y-81360000D01*
X167500000Y-82460000D02*
X166400000Y-81360000D01*
X167500000Y-88300000D02*
X167500000Y-82460000D01*
X164249990Y-91550010D02*
X167500000Y-88300000D01*
X128525010Y-91550010D02*
X164249990Y-91550010D01*
X121000000Y-84025000D02*
X128525010Y-91550010D01*
X136500000Y-85625000D02*
X136500000Y-84025000D01*
X166400000Y-83900000D02*
X165425000Y-83900000D01*
X167000000Y-84500000D02*
X166400000Y-83900000D01*
X164000000Y-91100000D02*
X167000000Y-88100000D01*
X167000000Y-88100000D02*
X167000000Y-84500000D01*
X143575000Y-91100000D02*
X164000000Y-91100000D01*
X136500000Y-84025000D02*
X143575000Y-91100000D01*
X152000000Y-85625000D02*
X152000000Y-84025000D01*
X152815000Y-86440000D02*
X165425000Y-86440000D01*
X152000000Y-85625000D02*
X152815000Y-86440000D01*
D15*
X165325000Y-79990000D02*
X165425000Y-80090000D01*
X165325000Y-78500000D02*
X165325000Y-79990000D01*
X136500000Y-79175000D02*
X136500000Y-73825000D01*
X165325000Y-77875000D02*
X168400000Y-74800000D01*
X165325000Y-78500000D02*
X165325000Y-77875000D01*
X162200000Y-68525000D02*
X162200000Y-71300000D01*
X159675000Y-73825000D02*
X162200000Y-71300000D01*
X146700000Y-73750000D02*
X146775000Y-73825000D01*
X146700000Y-68525000D02*
X146700000Y-73750000D01*
X136500000Y-73825000D02*
X146775000Y-73825000D01*
X121000000Y-75800000D02*
X122975000Y-73825000D01*
X121000000Y-79175000D02*
X121000000Y-75800000D01*
X152000000Y-73850000D02*
X152025000Y-73825000D01*
X152000000Y-79175000D02*
X152000000Y-73850000D01*
X152025000Y-73825000D02*
X159675000Y-73825000D01*
X146775000Y-73825000D02*
X152025000Y-73825000D01*
X131200000Y-68525000D02*
X131200000Y-73700000D01*
X131075000Y-73825000D02*
X136500000Y-73825000D01*
X122975000Y-73825000D02*
X131075000Y-73825000D01*
D14*
X164728231Y-88406769D02*
X165425000Y-87710000D01*
X164728231Y-89028231D02*
X164728231Y-88406769D01*
X164450000Y-85170000D02*
X165425000Y-85170000D01*
X163449990Y-84169990D02*
X164450000Y-85170000D01*
X163449990Y-67250010D02*
X163449990Y-84169990D01*
X168400000Y-62300000D02*
X163449990Y-67250010D01*
X168400000Y-62100000D02*
X168400000Y-62300000D01*
X163900000Y-82080000D02*
X164450000Y-82630000D01*
X163900000Y-69520000D02*
X163900000Y-82080000D01*
X168400000Y-65020000D02*
X163900000Y-69520000D01*
X164450000Y-82630000D02*
X165425000Y-82630000D01*
X168400000Y-64640000D02*
X168400000Y-65020000D01*
X171560000Y-86440000D02*
X170375000Y-86440000D01*
X173400000Y-84600000D02*
X171560000Y-86440000D01*
X173400000Y-70977919D02*
X173400000Y-84600000D01*
X169602081Y-67180000D02*
X173400000Y-70977919D01*
X168400000Y-67180000D02*
X169602081Y-67180000D01*
X171800000Y-83900000D02*
X170375000Y-83900000D01*
X172700000Y-83000000D02*
X171800000Y-83900000D01*
X170320000Y-69720000D02*
X172700000Y-72100000D01*
X172700000Y-72100000D02*
X172700000Y-83000000D01*
X168400000Y-69720000D02*
X170320000Y-69720000D01*
X171350000Y-81360000D02*
X170375000Y-81360000D01*
X172000000Y-80710000D02*
X171350000Y-81360000D01*
X172000000Y-72900000D02*
X172000000Y-80710000D01*
X171360000Y-72260000D02*
X172000000Y-72900000D01*
X168400000Y-72260000D02*
X171360000Y-72260000D01*
X131200000Y-65225000D02*
X131200000Y-66875000D01*
X128600000Y-69475000D02*
X128600000Y-70800000D01*
X131200000Y-66875000D02*
X128600000Y-69475000D01*
X146700000Y-65225000D02*
X146700000Y-66875000D01*
X144100000Y-69475000D02*
X144100000Y-70800000D01*
X146700000Y-66875000D02*
X144100000Y-69475000D01*
X162200000Y-65225000D02*
X162200000Y-66875000D01*
X159600000Y-69475000D02*
X159600000Y-70800000D01*
X162200000Y-66875000D02*
X159600000Y-69475000D01*
X121000000Y-82375000D02*
X121000000Y-80825000D01*
X123600000Y-78225000D02*
X123600000Y-76500000D01*
X121000000Y-80825000D02*
X123600000Y-78225000D01*
X136500000Y-82375000D02*
X136500000Y-80825000D01*
X139100000Y-78225000D02*
X139100000Y-76500000D01*
X136500000Y-80825000D02*
X139100000Y-78225000D01*
X152000000Y-82375000D02*
X152000000Y-80825000D01*
X154600000Y-78225000D02*
X154600000Y-76500000D01*
X152000000Y-80825000D02*
X154600000Y-78225000D01*
D16*
X175040001Y-99840000D02*
X110460000Y-99840000D01*
X110460000Y-96814344D01*
X111415000Y-96814344D01*
X111415000Y-97185656D01*
X111487439Y-97549834D01*
X111629534Y-97892882D01*
X111835825Y-98201618D01*
X112098382Y-98464175D01*
X112407118Y-98670466D01*
X112750166Y-98812561D01*
X113114344Y-98885000D01*
X113485656Y-98885000D01*
X113849834Y-98812561D01*
X114192882Y-98670466D01*
X114501618Y-98464175D01*
X114764175Y-98201618D01*
X114970466Y-97892882D01*
X115112561Y-97549834D01*
X115185000Y-97185656D01*
X115185000Y-96814344D01*
X170315000Y-96814344D01*
X170315000Y-97185656D01*
X170387439Y-97549834D01*
X170529534Y-97892882D01*
X170735825Y-98201618D01*
X170998382Y-98464175D01*
X171307118Y-98670466D01*
X171650166Y-98812561D01*
X172014344Y-98885000D01*
X172385656Y-98885000D01*
X172749834Y-98812561D01*
X173092882Y-98670466D01*
X173401618Y-98464175D01*
X173664175Y-98201618D01*
X173870466Y-97892882D01*
X174012561Y-97549834D01*
X174085000Y-97185656D01*
X174085000Y-96814344D01*
X174012561Y-96450166D01*
X173870466Y-96107118D01*
X173664175Y-95798382D01*
X173401618Y-95535825D01*
X173092882Y-95329534D01*
X172749834Y-95187439D01*
X172385656Y-95115000D01*
X172014344Y-95115000D01*
X171650166Y-95187439D01*
X171307118Y-95329534D01*
X170998382Y-95535825D01*
X170735825Y-95798382D01*
X170529534Y-96107118D01*
X170387439Y-96450166D01*
X170315000Y-96814344D01*
X115185000Y-96814344D01*
X115112561Y-96450166D01*
X114970466Y-96107118D01*
X114764175Y-95798382D01*
X114501618Y-95535825D01*
X114192882Y-95329534D01*
X113849834Y-95187439D01*
X113485656Y-95115000D01*
X113114344Y-95115000D01*
X112750166Y-95187439D01*
X112407118Y-95329534D01*
X112098382Y-95535825D01*
X111835825Y-95798382D01*
X111629534Y-96107118D01*
X111487439Y-96450166D01*
X111415000Y-96814344D01*
X110460000Y-96814344D01*
X110460000Y-87625000D01*
X119886928Y-87625000D01*
X119899188Y-87749482D01*
X119935498Y-87869180D01*
X119994463Y-87979494D01*
X120073815Y-88076185D01*
X120170506Y-88155537D01*
X120280820Y-88214502D01*
X120400518Y-88250812D01*
X120525000Y-88263072D01*
X120714250Y-88260000D01*
X120873000Y-88101250D01*
X120873000Y-87302000D01*
X121127000Y-87302000D01*
X121127000Y-88101250D01*
X121285750Y-88260000D01*
X121475000Y-88263072D01*
X121599482Y-88250812D01*
X121719180Y-88214502D01*
X121829494Y-88155537D01*
X121926185Y-88076185D01*
X122005537Y-87979494D01*
X122064502Y-87869180D01*
X122100812Y-87749482D01*
X122113072Y-87625000D01*
X122110000Y-87460750D01*
X121951250Y-87302000D01*
X121127000Y-87302000D01*
X120873000Y-87302000D01*
X120048750Y-87302000D01*
X119890000Y-87460750D01*
X119886928Y-87625000D01*
X110460000Y-87625000D01*
X110460000Y-66450000D01*
X111311928Y-66450000D01*
X111311928Y-68150000D01*
X111324188Y-68274482D01*
X111360498Y-68394180D01*
X111419463Y-68504494D01*
X111498815Y-68601185D01*
X111595506Y-68680537D01*
X111705820Y-68739502D01*
X111778380Y-68761513D01*
X111646525Y-68893368D01*
X111484010Y-69136589D01*
X111372068Y-69406842D01*
X111315000Y-69693740D01*
X111315000Y-69986260D01*
X111372068Y-70273158D01*
X111484010Y-70543411D01*
X111646525Y-70786632D01*
X111853368Y-70993475D01*
X112027760Y-71110000D01*
X111853368Y-71226525D01*
X111646525Y-71433368D01*
X111484010Y-71676589D01*
X111372068Y-71946842D01*
X111315000Y-72233740D01*
X111315000Y-72526260D01*
X111372068Y-72813158D01*
X111484010Y-73083411D01*
X111646525Y-73326632D01*
X111853368Y-73533475D01*
X112027760Y-73650000D01*
X111853368Y-73766525D01*
X111646525Y-73973368D01*
X111484010Y-74216589D01*
X111372068Y-74486842D01*
X111315000Y-74773740D01*
X111315000Y-75066260D01*
X111372068Y-75353158D01*
X111484010Y-75623411D01*
X111646525Y-75866632D01*
X111853368Y-76073475D01*
X112027760Y-76190000D01*
X111853368Y-76306525D01*
X111646525Y-76513368D01*
X111484010Y-76756589D01*
X111372068Y-77026842D01*
X111315000Y-77313740D01*
X111315000Y-77606260D01*
X111372068Y-77893158D01*
X111484010Y-78163411D01*
X111646525Y-78406632D01*
X111853368Y-78613475D01*
X112027760Y-78730000D01*
X111853368Y-78846525D01*
X111646525Y-79053368D01*
X111484010Y-79296589D01*
X111372068Y-79566842D01*
X111315000Y-79853740D01*
X111315000Y-80146260D01*
X111372068Y-80433158D01*
X111484010Y-80703411D01*
X111646525Y-80946632D01*
X111853368Y-81153475D01*
X112096589Y-81315990D01*
X112366842Y-81427932D01*
X112653740Y-81485000D01*
X112946260Y-81485000D01*
X113233158Y-81427932D01*
X113503411Y-81315990D01*
X113746632Y-81153475D01*
X113953475Y-80946632D01*
X114115990Y-80703411D01*
X114227932Y-80433158D01*
X114285000Y-80146260D01*
X114285000Y-79853740D01*
X114227932Y-79566842D01*
X114115990Y-79296589D01*
X113953475Y-79053368D01*
X113875107Y-78975000D01*
X119886928Y-78975000D01*
X119886928Y-79375000D01*
X119903031Y-79538500D01*
X119950722Y-79695716D01*
X120028169Y-79840608D01*
X120132394Y-79967606D01*
X120171866Y-80000000D01*
X120132394Y-80032394D01*
X120028169Y-80159392D01*
X119950722Y-80304284D01*
X119903031Y-80461500D01*
X119886928Y-80625000D01*
X119886928Y-81025000D01*
X119903031Y-81188500D01*
X119950722Y-81345716D01*
X120028169Y-81490608D01*
X120117945Y-81600000D01*
X120028169Y-81709392D01*
X119950722Y-81854284D01*
X119903031Y-82011500D01*
X119886928Y-82175000D01*
X119886928Y-82575000D01*
X119903031Y-82738500D01*
X119950722Y-82895716D01*
X120028169Y-83040608D01*
X120132394Y-83167606D01*
X120171866Y-83200000D01*
X120132394Y-83232394D01*
X120028169Y-83359392D01*
X119950722Y-83504284D01*
X119903031Y-83661500D01*
X119886928Y-83825000D01*
X119886928Y-84225000D01*
X119903031Y-84388500D01*
X119950722Y-84545716D01*
X120028169Y-84690608D01*
X120124611Y-84808122D01*
X120032382Y-84920503D01*
X119952625Y-85069717D01*
X119903512Y-85231623D01*
X119886928Y-85400000D01*
X119886928Y-85850000D01*
X119903512Y-86018377D01*
X119952625Y-86180283D01*
X120030700Y-86326351D01*
X119994463Y-86370506D01*
X119935498Y-86480820D01*
X119899188Y-86600518D01*
X119886928Y-86725000D01*
X119890000Y-86889250D01*
X120048750Y-87048000D01*
X120873000Y-87048000D01*
X120873000Y-87028000D01*
X121127000Y-87028000D01*
X121127000Y-87048000D01*
X121951250Y-87048000D01*
X122110000Y-86889250D01*
X122113072Y-86725000D01*
X122100812Y-86600518D01*
X122064502Y-86480820D01*
X122005537Y-86370506D01*
X121969300Y-86326351D01*
X122047375Y-86180283D01*
X122055080Y-86154882D01*
X122904230Y-87004031D01*
X122729118Y-87097631D01*
X122491577Y-87292576D01*
X122296632Y-87530117D01*
X122151774Y-87801125D01*
X122062572Y-88095187D01*
X122040000Y-88324364D01*
X122040000Y-89675635D01*
X122062572Y-89904812D01*
X122151774Y-90198874D01*
X122296631Y-90469882D01*
X122491576Y-90707424D01*
X122729117Y-90902369D01*
X123000125Y-91047226D01*
X123294187Y-91136428D01*
X123600000Y-91166548D01*
X123905812Y-91136428D01*
X124199874Y-91047226D01*
X124470882Y-90902369D01*
X124708424Y-90707424D01*
X124903369Y-90469883D01*
X125048226Y-90198875D01*
X125137428Y-89904813D01*
X125160000Y-89675636D01*
X125160000Y-89259802D01*
X127961211Y-92061013D01*
X127985009Y-92090011D01*
X128100734Y-92184984D01*
X128232763Y-92255556D01*
X128376024Y-92299013D01*
X128487677Y-92310010D01*
X128487686Y-92310010D01*
X128525009Y-92313686D01*
X128562332Y-92310010D01*
X164212668Y-92310010D01*
X164249990Y-92313686D01*
X164287312Y-92310010D01*
X164287323Y-92310010D01*
X164398976Y-92299013D01*
X164542237Y-92255556D01*
X164674266Y-92184984D01*
X164789991Y-92090011D01*
X164813794Y-92061007D01*
X168011004Y-88863798D01*
X168040001Y-88840001D01*
X168134974Y-88724276D01*
X168205546Y-88592247D01*
X168249003Y-88448986D01*
X168260000Y-88337333D01*
X168260000Y-88337324D01*
X168263676Y-88300001D01*
X168260000Y-88262678D01*
X168260000Y-88010000D01*
X168761928Y-88010000D01*
X168774188Y-88134482D01*
X168810498Y-88254180D01*
X168869463Y-88364494D01*
X168948815Y-88461185D01*
X169045506Y-88540537D01*
X169155820Y-88599502D01*
X169275518Y-88635812D01*
X169400000Y-88648072D01*
X170089250Y-88645000D01*
X170248000Y-88486250D01*
X170248000Y-87837000D01*
X170502000Y-87837000D01*
X170502000Y-88486250D01*
X170660750Y-88645000D01*
X171350000Y-88648072D01*
X171474482Y-88635812D01*
X171594180Y-88599502D01*
X171704494Y-88540537D01*
X171801185Y-88461185D01*
X171880537Y-88364494D01*
X171939502Y-88254180D01*
X171975812Y-88134482D01*
X171988072Y-88010000D01*
X171985000Y-87995750D01*
X171826250Y-87837000D01*
X170502000Y-87837000D01*
X170248000Y-87837000D01*
X168923750Y-87837000D01*
X168765000Y-87995750D01*
X168761928Y-88010000D01*
X168260000Y-88010000D01*
X168260000Y-82497323D01*
X168263676Y-82460000D01*
X168260000Y-82422677D01*
X168260000Y-82422667D01*
X168249003Y-82311014D01*
X168205546Y-82167753D01*
X168179486Y-82118998D01*
X168134974Y-82035723D01*
X168063799Y-81948997D01*
X168040001Y-81919999D01*
X168011003Y-81896201D01*
X166963804Y-80849002D01*
X166940001Y-80819999D01*
X166923650Y-80806580D01*
X166905258Y-80772171D01*
X166866546Y-80725000D01*
X166905258Y-80677829D01*
X166978084Y-80541582D01*
X167022929Y-80393745D01*
X167038072Y-80240000D01*
X167038072Y-79940000D01*
X167022929Y-79786255D01*
X166978084Y-79638418D01*
X166962894Y-79610000D01*
X167002002Y-79610000D01*
X167002002Y-79451252D01*
X167160750Y-79610000D01*
X167325000Y-79613072D01*
X167449482Y-79600812D01*
X167569180Y-79564502D01*
X167679494Y-79505537D01*
X167776185Y-79426185D01*
X167855537Y-79329494D01*
X167914502Y-79219180D01*
X167950812Y-79099482D01*
X167963072Y-78975000D01*
X167960000Y-78785750D01*
X167801250Y-78627000D01*
X167002000Y-78627000D01*
X167002000Y-78647000D01*
X166748000Y-78647000D01*
X166748000Y-78627000D01*
X166728000Y-78627000D01*
X166728000Y-78373000D01*
X166748000Y-78373000D01*
X166748000Y-78353000D01*
X167002000Y-78353000D01*
X167002000Y-78373000D01*
X167801250Y-78373000D01*
X167960000Y-78214250D01*
X167963072Y-78025000D01*
X167950812Y-77900518D01*
X167914502Y-77780820D01*
X167855537Y-77670506D01*
X167776185Y-77573815D01*
X167679494Y-77494463D01*
X167569180Y-77435498D01*
X167449482Y-77399188D01*
X167325000Y-77386928D01*
X167160750Y-77390000D01*
X167002002Y-77548748D01*
X167002002Y-77449576D01*
X168163507Y-76288072D01*
X169250000Y-76288072D01*
X169374482Y-76275812D01*
X169494180Y-76239502D01*
X169604494Y-76180537D01*
X169701185Y-76101185D01*
X169780537Y-76004494D01*
X169839502Y-75894180D01*
X169875812Y-75774482D01*
X169888072Y-75650000D01*
X169888072Y-73950000D01*
X169875812Y-73825518D01*
X169839502Y-73705820D01*
X169780537Y-73595506D01*
X169701185Y-73498815D01*
X169604494Y-73419463D01*
X169494180Y-73360498D01*
X169421620Y-73338487D01*
X169553475Y-73206632D01*
X169678178Y-73020000D01*
X171045199Y-73020000D01*
X171240000Y-73214802D01*
X171240001Y-79155868D01*
X171205066Y-79152427D01*
X171235000Y-79001939D01*
X171235000Y-78798061D01*
X171195226Y-78598102D01*
X171117205Y-78409744D01*
X171003937Y-78240226D01*
X170859774Y-78096063D01*
X170690256Y-77982795D01*
X170501898Y-77904774D01*
X170301939Y-77865000D01*
X170098061Y-77865000D01*
X169898102Y-77904774D01*
X169709744Y-77982795D01*
X169540226Y-78096063D01*
X169396063Y-78240226D01*
X169282795Y-78409744D01*
X169204774Y-78598102D01*
X169165000Y-78798061D01*
X169165000Y-79001939D01*
X169204774Y-79201898D01*
X169216083Y-79229200D01*
X169112171Y-79284742D01*
X168992749Y-79382749D01*
X168894742Y-79502171D01*
X168821916Y-79638418D01*
X168777071Y-79786255D01*
X168761928Y-79940000D01*
X168761928Y-80240000D01*
X168777071Y-80393745D01*
X168821916Y-80541582D01*
X168894742Y-80677829D01*
X168933454Y-80725000D01*
X168894742Y-80772171D01*
X168821916Y-80908418D01*
X168777071Y-81056255D01*
X168761928Y-81210000D01*
X168761928Y-81510000D01*
X168777071Y-81663745D01*
X168821916Y-81811582D01*
X168894742Y-81947829D01*
X168933454Y-81995000D01*
X168894742Y-82042171D01*
X168821916Y-82178418D01*
X168777071Y-82326255D01*
X168761928Y-82480000D01*
X168761928Y-82780000D01*
X168777071Y-82933745D01*
X168821916Y-83081582D01*
X168894742Y-83217829D01*
X168933454Y-83265000D01*
X168894742Y-83312171D01*
X168821916Y-83448418D01*
X168777071Y-83596255D01*
X168761928Y-83750000D01*
X168761928Y-84050000D01*
X168777071Y-84203745D01*
X168821916Y-84351582D01*
X168894742Y-84487829D01*
X168933454Y-84535000D01*
X168894742Y-84582171D01*
X168821916Y-84718418D01*
X168777071Y-84866255D01*
X168761928Y-85020000D01*
X168761928Y-85320000D01*
X168777071Y-85473745D01*
X168821916Y-85621582D01*
X168894742Y-85757829D01*
X168933454Y-85805000D01*
X168894742Y-85852171D01*
X168821916Y-85988418D01*
X168777071Y-86136255D01*
X168761928Y-86290000D01*
X168761928Y-86590000D01*
X168777071Y-86743745D01*
X168821916Y-86891582D01*
X168893730Y-87025936D01*
X168869463Y-87055506D01*
X168810498Y-87165820D01*
X168774188Y-87285518D01*
X168761928Y-87410000D01*
X168765000Y-87424250D01*
X168923750Y-87583000D01*
X170248000Y-87583000D01*
X170248000Y-87563000D01*
X170502000Y-87563000D01*
X170502000Y-87583000D01*
X171826250Y-87583000D01*
X171985000Y-87424250D01*
X171988072Y-87410000D01*
X171975812Y-87285518D01*
X171939502Y-87165820D01*
X171911683Y-87113776D01*
X171984276Y-87074974D01*
X172100001Y-86980001D01*
X172123804Y-86950997D01*
X173911003Y-85163799D01*
X173940001Y-85140001D01*
X173997682Y-85069717D01*
X174034974Y-85024277D01*
X174105546Y-84892247D01*
X174121611Y-84839286D01*
X174149003Y-84748986D01*
X174160000Y-84637333D01*
X174160000Y-84637323D01*
X174163676Y-84600000D01*
X174160000Y-84562677D01*
X174160000Y-71015252D01*
X174163677Y-70977919D01*
X174149003Y-70828933D01*
X174105546Y-70685672D01*
X174034974Y-70553643D01*
X173963799Y-70466916D01*
X173940001Y-70437918D01*
X173911004Y-70414121D01*
X170165885Y-66669003D01*
X170142082Y-66639999D01*
X170026357Y-66545026D01*
X169894328Y-66474454D01*
X169751067Y-66430997D01*
X169680909Y-66424087D01*
X169553475Y-66233368D01*
X169346632Y-66026525D01*
X169172240Y-65910000D01*
X169346632Y-65793475D01*
X169553475Y-65586632D01*
X169715990Y-65343411D01*
X169827932Y-65073158D01*
X169885000Y-64786260D01*
X169885000Y-64493740D01*
X169827932Y-64206842D01*
X169715990Y-63936589D01*
X169553475Y-63693368D01*
X169346632Y-63486525D01*
X169172240Y-63370000D01*
X169346632Y-63253475D01*
X169553475Y-63046632D01*
X169715990Y-62803411D01*
X169827932Y-62533158D01*
X169885000Y-62246260D01*
X169885000Y-61953740D01*
X169827932Y-61666842D01*
X169715990Y-61396589D01*
X169553475Y-61153368D01*
X169346632Y-60946525D01*
X169172240Y-60830000D01*
X169346632Y-60713475D01*
X169553475Y-60506632D01*
X169715990Y-60263411D01*
X169827932Y-59993158D01*
X169885000Y-59706260D01*
X169885000Y-59413740D01*
X169827932Y-59126842D01*
X169715990Y-58856589D01*
X169553475Y-58613368D01*
X169346632Y-58406525D01*
X169164466Y-58284805D01*
X169281355Y-58215178D01*
X169497588Y-58020269D01*
X169671641Y-57786920D01*
X169796825Y-57524099D01*
X169841476Y-57376890D01*
X169720155Y-57147000D01*
X168527000Y-57147000D01*
X168527000Y-57167000D01*
X168273000Y-57167000D01*
X168273000Y-57147000D01*
X167079845Y-57147000D01*
X166958524Y-57376890D01*
X167003175Y-57524099D01*
X167128359Y-57786920D01*
X167302412Y-58020269D01*
X167518645Y-58215178D01*
X167635534Y-58284805D01*
X167453368Y-58406525D01*
X167246525Y-58613368D01*
X167084010Y-58856589D01*
X166972068Y-59126842D01*
X166915000Y-59413740D01*
X166915000Y-59706260D01*
X166972068Y-59993158D01*
X167084010Y-60263411D01*
X167246525Y-60506632D01*
X167453368Y-60713475D01*
X167627760Y-60830000D01*
X167453368Y-60946525D01*
X167246525Y-61153368D01*
X167084010Y-61396589D01*
X166972068Y-61666842D01*
X166915000Y-61953740D01*
X166915000Y-62246260D01*
X166972068Y-62533158D01*
X167007207Y-62617991D01*
X165935000Y-63690198D01*
X165935000Y-63498061D01*
X165895226Y-63298102D01*
X165817205Y-63109744D01*
X165703937Y-62940226D01*
X165559774Y-62796063D01*
X165390256Y-62682795D01*
X165201898Y-62604774D01*
X165001939Y-62565000D01*
X164798061Y-62565000D01*
X164598102Y-62604774D01*
X164409744Y-62682795D01*
X164240226Y-62796063D01*
X164221289Y-62815000D01*
X163094365Y-62815000D01*
X163067606Y-62782394D01*
X163020012Y-62743334D01*
X163060284Y-62710284D01*
X163167618Y-62579497D01*
X163247375Y-62430283D01*
X163296488Y-62268377D01*
X163313072Y-62100000D01*
X163313072Y-61650000D01*
X163296488Y-61481623D01*
X163247375Y-61319717D01*
X163169300Y-61173649D01*
X163205537Y-61129494D01*
X163264502Y-61019180D01*
X163300812Y-60899482D01*
X163313072Y-60775000D01*
X163310000Y-60610750D01*
X163151250Y-60452000D01*
X162327000Y-60452000D01*
X162327000Y-60472000D01*
X162073000Y-60472000D01*
X162073000Y-60452000D01*
X161248750Y-60452000D01*
X161090000Y-60610750D01*
X161086928Y-60775000D01*
X161099188Y-60899482D01*
X161135498Y-61019180D01*
X161194463Y-61129494D01*
X161230700Y-61173649D01*
X161152625Y-61319717D01*
X161103512Y-61481623D01*
X161086928Y-61650000D01*
X161086928Y-62100000D01*
X161103512Y-62268377D01*
X161152625Y-62430283D01*
X161232382Y-62579497D01*
X161339716Y-62710284D01*
X161379988Y-62743334D01*
X161332394Y-62782394D01*
X161228169Y-62909392D01*
X161150722Y-63054284D01*
X161103031Y-63211500D01*
X161086928Y-63375000D01*
X161086928Y-63775000D01*
X161103031Y-63938500D01*
X161150722Y-64095716D01*
X161228169Y-64240608D01*
X161332394Y-64367606D01*
X161371866Y-64400000D01*
X161332394Y-64432394D01*
X161228169Y-64559392D01*
X161150722Y-64704284D01*
X161103031Y-64861500D01*
X161086928Y-65025000D01*
X161086928Y-65425000D01*
X161103031Y-65588500D01*
X161150722Y-65745716D01*
X161228169Y-65890608D01*
X161332394Y-66017606D01*
X161371866Y-66050000D01*
X161332394Y-66082394D01*
X161228169Y-66209392D01*
X161150722Y-66354284D01*
X161103031Y-66511500D01*
X161086928Y-66675000D01*
X161086928Y-66913270D01*
X159341264Y-68658935D01*
X159294187Y-68663572D01*
X159000125Y-68752774D01*
X158729117Y-68897631D01*
X158491576Y-69092576D01*
X158296631Y-69330118D01*
X158151774Y-69601126D01*
X158062572Y-69895188D01*
X158040000Y-70124365D01*
X158040000Y-71475636D01*
X158062572Y-71704813D01*
X158151774Y-71998875D01*
X158296632Y-72269883D01*
X158491577Y-72507424D01*
X158729118Y-72702369D01*
X159000126Y-72847226D01*
X159294188Y-72936428D01*
X159310397Y-72938024D01*
X159308422Y-72940000D01*
X154727002Y-72940000D01*
X154727002Y-72794484D01*
X154968664Y-72914812D01*
X155079655Y-72888853D01*
X155361094Y-72766650D01*
X155613285Y-72591889D01*
X155826536Y-72371286D01*
X155992652Y-72113319D01*
X156105249Y-71827901D01*
X156160000Y-71526000D01*
X156160000Y-70927000D01*
X154727000Y-70927000D01*
X154727000Y-70947000D01*
X154473000Y-70947000D01*
X154473000Y-70927000D01*
X153040000Y-70927000D01*
X153040000Y-71526000D01*
X153094751Y-71827901D01*
X153207348Y-72113319D01*
X153373464Y-72371286D01*
X153586715Y-72591889D01*
X153838906Y-72766650D01*
X154120345Y-72888853D01*
X154231336Y-72914812D01*
X154472998Y-72794484D01*
X154472998Y-72940000D01*
X152068465Y-72940000D01*
X152024999Y-72935719D01*
X151981533Y-72940000D01*
X147585000Y-72940000D01*
X147585000Y-70074000D01*
X153040000Y-70074000D01*
X153040000Y-70673000D01*
X154473000Y-70673000D01*
X154473000Y-68805517D01*
X154727000Y-68805517D01*
X154727000Y-70673000D01*
X156160000Y-70673000D01*
X156160000Y-70074000D01*
X156105249Y-69772099D01*
X155992652Y-69486681D01*
X155826536Y-69228714D01*
X155613285Y-69008111D01*
X155361094Y-68833350D01*
X155079655Y-68711147D01*
X154968664Y-68685188D01*
X154727000Y-68805517D01*
X154473000Y-68805517D01*
X154231336Y-68685188D01*
X154120345Y-68711147D01*
X153838906Y-68833350D01*
X153586715Y-69008111D01*
X153373464Y-69228714D01*
X153207348Y-69486681D01*
X153094751Y-69772099D01*
X153040000Y-70074000D01*
X147585000Y-70074000D01*
X147585000Y-69296411D01*
X147671831Y-69190608D01*
X147749278Y-69045716D01*
X147796969Y-68888500D01*
X147813072Y-68725000D01*
X147813072Y-68325000D01*
X147796969Y-68161500D01*
X147749278Y-68004284D01*
X147671831Y-67859392D01*
X147567606Y-67732394D01*
X147528134Y-67700000D01*
X147567606Y-67667606D01*
X147671831Y-67540608D01*
X147749278Y-67395716D01*
X147796969Y-67238500D01*
X147813072Y-67075000D01*
X147813072Y-66675000D01*
X147796969Y-66511500D01*
X147749278Y-66354284D01*
X147671831Y-66209392D01*
X147567606Y-66082394D01*
X147528134Y-66050000D01*
X147567606Y-66017606D01*
X147671831Y-65890608D01*
X147749278Y-65745716D01*
X147796969Y-65588500D01*
X147813072Y-65425000D01*
X147813072Y-65025000D01*
X147796969Y-64861500D01*
X147749278Y-64704284D01*
X147671831Y-64559392D01*
X147567606Y-64432394D01*
X147528134Y-64400000D01*
X147567606Y-64367606D01*
X147594365Y-64335000D01*
X148752705Y-64335000D01*
X148898102Y-64395226D01*
X149098061Y-64435000D01*
X149301939Y-64435000D01*
X149501898Y-64395226D01*
X149690256Y-64317205D01*
X149859774Y-64203937D01*
X150003937Y-64059774D01*
X150117205Y-63890256D01*
X150165208Y-63774365D01*
X153355000Y-63774365D01*
X153355000Y-65125636D01*
X153377572Y-65354813D01*
X153466774Y-65648875D01*
X153611632Y-65919883D01*
X153806577Y-66157424D01*
X154044118Y-66352369D01*
X154315126Y-66497226D01*
X154609188Y-66586428D01*
X154915000Y-66616548D01*
X155220813Y-66586428D01*
X155514875Y-66497226D01*
X155785883Y-66352369D01*
X156023424Y-66157424D01*
X156218369Y-65919883D01*
X156363226Y-65648875D01*
X156452428Y-65354813D01*
X156475000Y-65125636D01*
X156475000Y-63774365D01*
X157725000Y-63774365D01*
X157725000Y-65125636D01*
X157747572Y-65354813D01*
X157836774Y-65648875D01*
X157981632Y-65919883D01*
X158176577Y-66157424D01*
X158414118Y-66352369D01*
X158685126Y-66497226D01*
X158979188Y-66586428D01*
X159285000Y-66616548D01*
X159590813Y-66586428D01*
X159884875Y-66497226D01*
X160155883Y-66352369D01*
X160393424Y-66157424D01*
X160588369Y-65919883D01*
X160733226Y-65648875D01*
X160822428Y-65354813D01*
X160845000Y-65125636D01*
X160845000Y-63774364D01*
X160822428Y-63545187D01*
X160733226Y-63251125D01*
X160588369Y-62980117D01*
X160393424Y-62742576D01*
X160155882Y-62547631D01*
X159884874Y-62402774D01*
X159590812Y-62313572D01*
X159285000Y-62283452D01*
X158979187Y-62313572D01*
X158685125Y-62402774D01*
X158414117Y-62547631D01*
X158176576Y-62742576D01*
X157981631Y-62980118D01*
X157836774Y-63251126D01*
X157747572Y-63545188D01*
X157725000Y-63774365D01*
X156475000Y-63774365D01*
X156475000Y-63774364D01*
X156452428Y-63545187D01*
X156363226Y-63251125D01*
X156218369Y-62980117D01*
X156023424Y-62742576D01*
X155785882Y-62547631D01*
X155514874Y-62402774D01*
X155220812Y-62313572D01*
X154915000Y-62283452D01*
X154609187Y-62313572D01*
X154315125Y-62402774D01*
X154044117Y-62547631D01*
X153806576Y-62742576D01*
X153611631Y-62980118D01*
X153466774Y-63251126D01*
X153377572Y-63545188D01*
X153355000Y-63774365D01*
X150165208Y-63774365D01*
X150195226Y-63701898D01*
X150235000Y-63501939D01*
X150235000Y-63298061D01*
X150195226Y-63098102D01*
X150117205Y-62909744D01*
X150003937Y-62740226D01*
X149859774Y-62596063D01*
X149690256Y-62482795D01*
X149501898Y-62404774D01*
X149301939Y-62365000D01*
X149098061Y-62365000D01*
X148898102Y-62404774D01*
X148709744Y-62482795D01*
X148540226Y-62596063D01*
X148396063Y-62740226D01*
X148346101Y-62815000D01*
X147594365Y-62815000D01*
X147567606Y-62782394D01*
X147520012Y-62743334D01*
X147560284Y-62710284D01*
X147667618Y-62579497D01*
X147747375Y-62430283D01*
X147796488Y-62268377D01*
X147813072Y-62100000D01*
X147813072Y-61650000D01*
X147796488Y-61481623D01*
X147747375Y-61319717D01*
X147669300Y-61173649D01*
X147705537Y-61129494D01*
X147764502Y-61019180D01*
X147800812Y-60899482D01*
X147813072Y-60775000D01*
X147810000Y-60610750D01*
X147651250Y-60452000D01*
X146827000Y-60452000D01*
X146827000Y-60472000D01*
X146573000Y-60472000D01*
X146573000Y-60452000D01*
X145748750Y-60452000D01*
X145590000Y-60610750D01*
X145586928Y-60775000D01*
X145599188Y-60899482D01*
X145635498Y-61019180D01*
X145694463Y-61129494D01*
X145730700Y-61173649D01*
X145652625Y-61319717D01*
X145603512Y-61481623D01*
X145586928Y-61650000D01*
X145586928Y-62100000D01*
X145603512Y-62268377D01*
X145652625Y-62430283D01*
X145732382Y-62579497D01*
X145839716Y-62710284D01*
X145879988Y-62743334D01*
X145832394Y-62782394D01*
X145728169Y-62909392D01*
X145650722Y-63054284D01*
X145603031Y-63211500D01*
X145586928Y-63375000D01*
X145586928Y-63775000D01*
X145603031Y-63938500D01*
X145650722Y-64095716D01*
X145728169Y-64240608D01*
X145832394Y-64367606D01*
X145871866Y-64400000D01*
X145832394Y-64432394D01*
X145728169Y-64559392D01*
X145650722Y-64704284D01*
X145603031Y-64861500D01*
X145586928Y-65025000D01*
X145586928Y-65425000D01*
X145603031Y-65588500D01*
X145650722Y-65745716D01*
X145728169Y-65890608D01*
X145832394Y-66017606D01*
X145871866Y-66050000D01*
X145832394Y-66082394D01*
X145728169Y-66209392D01*
X145650722Y-66354284D01*
X145603031Y-66511500D01*
X145586928Y-66675000D01*
X145586928Y-66913270D01*
X143841264Y-68658935D01*
X143794187Y-68663572D01*
X143500125Y-68752774D01*
X143229117Y-68897631D01*
X142991576Y-69092576D01*
X142796631Y-69330118D01*
X142651774Y-69601126D01*
X142562572Y-69895188D01*
X142540000Y-70124365D01*
X142540000Y-71475636D01*
X142562572Y-71704813D01*
X142651774Y-71998875D01*
X142796632Y-72269883D01*
X142991577Y-72507424D01*
X143229118Y-72702369D01*
X143500126Y-72847226D01*
X143794188Y-72936428D01*
X143830455Y-72940000D01*
X139227002Y-72940000D01*
X139227002Y-72794484D01*
X139468664Y-72914812D01*
X139579655Y-72888853D01*
X139861094Y-72766650D01*
X140113285Y-72591889D01*
X140326536Y-72371286D01*
X140492652Y-72113319D01*
X140605249Y-71827901D01*
X140660000Y-71526000D01*
X140660000Y-70927000D01*
X139227000Y-70927000D01*
X139227000Y-70947000D01*
X138973000Y-70947000D01*
X138973000Y-70927000D01*
X137540000Y-70927000D01*
X137540000Y-71526000D01*
X137594751Y-71827901D01*
X137707348Y-72113319D01*
X137873464Y-72371286D01*
X138086715Y-72591889D01*
X138338906Y-72766650D01*
X138620345Y-72888853D01*
X138731336Y-72914812D01*
X138972998Y-72794484D01*
X138972998Y-72940000D01*
X136543477Y-72940000D01*
X136500000Y-72935718D01*
X136456524Y-72940000D01*
X132085000Y-72940000D01*
X132085000Y-70074000D01*
X137540000Y-70074000D01*
X137540000Y-70673000D01*
X138973000Y-70673000D01*
X138973000Y-68805517D01*
X139227000Y-68805517D01*
X139227000Y-70673000D01*
X140660000Y-70673000D01*
X140660000Y-70074000D01*
X140605249Y-69772099D01*
X140492652Y-69486681D01*
X140326536Y-69228714D01*
X140113285Y-69008111D01*
X139861094Y-68833350D01*
X139579655Y-68711147D01*
X139468664Y-68685188D01*
X139227000Y-68805517D01*
X138973000Y-68805517D01*
X138731336Y-68685188D01*
X138620345Y-68711147D01*
X138338906Y-68833350D01*
X138086715Y-69008111D01*
X137873464Y-69228714D01*
X137707348Y-69486681D01*
X137594751Y-69772099D01*
X137540000Y-70074000D01*
X132085000Y-70074000D01*
X132085000Y-69296411D01*
X132171831Y-69190608D01*
X132249278Y-69045716D01*
X132296969Y-68888500D01*
X132313072Y-68725000D01*
X132313072Y-68325000D01*
X132296969Y-68161500D01*
X132249278Y-68004284D01*
X132171831Y-67859392D01*
X132067606Y-67732394D01*
X132028134Y-67700000D01*
X132067606Y-67667606D01*
X132171831Y-67540608D01*
X132249278Y-67395716D01*
X132296969Y-67238500D01*
X132313072Y-67075000D01*
X132313072Y-66675000D01*
X132296969Y-66511500D01*
X132249278Y-66354284D01*
X132171831Y-66209392D01*
X132067606Y-66082394D01*
X132028134Y-66050000D01*
X132067606Y-66017606D01*
X132171831Y-65890608D01*
X132249278Y-65745716D01*
X132296969Y-65588500D01*
X132313072Y-65425000D01*
X132313072Y-65025000D01*
X132296969Y-64861500D01*
X132249278Y-64704284D01*
X132171831Y-64559392D01*
X132067606Y-64432394D01*
X132028134Y-64400000D01*
X132067606Y-64367606D01*
X132094365Y-64335000D01*
X132886715Y-64335000D01*
X133009744Y-64417205D01*
X133198102Y-64495226D01*
X133398061Y-64535000D01*
X133601939Y-64535000D01*
X133801898Y-64495226D01*
X133990256Y-64417205D01*
X134159774Y-64303937D01*
X134303937Y-64159774D01*
X134417205Y-63990256D01*
X134495226Y-63801898D01*
X134500702Y-63774365D01*
X137855000Y-63774365D01*
X137855000Y-65125636D01*
X137877572Y-65354813D01*
X137966774Y-65648875D01*
X138111632Y-65919883D01*
X138306577Y-66157424D01*
X138544118Y-66352369D01*
X138815126Y-66497226D01*
X139109188Y-66586428D01*
X139415000Y-66616548D01*
X139720813Y-66586428D01*
X140014875Y-66497226D01*
X140285883Y-66352369D01*
X140523424Y-66157424D01*
X140718369Y-65919883D01*
X140863226Y-65648875D01*
X140952428Y-65354813D01*
X140975000Y-65125636D01*
X140975000Y-63774365D01*
X142225000Y-63774365D01*
X142225000Y-65125636D01*
X142247572Y-65354813D01*
X142336774Y-65648875D01*
X142481632Y-65919883D01*
X142676577Y-66157424D01*
X142914118Y-66352369D01*
X143185126Y-66497226D01*
X143479188Y-66586428D01*
X143785000Y-66616548D01*
X144090813Y-66586428D01*
X144384875Y-66497226D01*
X144655883Y-66352369D01*
X144893424Y-66157424D01*
X145088369Y-65919883D01*
X145233226Y-65648875D01*
X145322428Y-65354813D01*
X145345000Y-65125636D01*
X145345000Y-63774364D01*
X145322428Y-63545187D01*
X145233226Y-63251125D01*
X145088369Y-62980117D01*
X144893424Y-62742576D01*
X144655882Y-62547631D01*
X144384874Y-62402774D01*
X144090812Y-62313572D01*
X143785000Y-62283452D01*
X143479187Y-62313572D01*
X143185125Y-62402774D01*
X142914117Y-62547631D01*
X142676576Y-62742576D01*
X142481631Y-62980118D01*
X142336774Y-63251126D01*
X142247572Y-63545188D01*
X142225000Y-63774365D01*
X140975000Y-63774365D01*
X140975000Y-63774364D01*
X140952428Y-63545187D01*
X140863226Y-63251125D01*
X140718369Y-62980117D01*
X140523424Y-62742576D01*
X140285882Y-62547631D01*
X140014874Y-62402774D01*
X139720812Y-62313572D01*
X139415000Y-62283452D01*
X139109187Y-62313572D01*
X138815125Y-62402774D01*
X138544117Y-62547631D01*
X138306576Y-62742576D01*
X138111631Y-62980118D01*
X137966774Y-63251126D01*
X137877572Y-63545188D01*
X137855000Y-63774365D01*
X134500702Y-63774365D01*
X134535000Y-63601939D01*
X134535000Y-63398061D01*
X134495226Y-63198102D01*
X134417205Y-63009744D01*
X134303937Y-62840226D01*
X134159774Y-62696063D01*
X133990256Y-62582795D01*
X133801898Y-62504774D01*
X133601939Y-62465000D01*
X133398061Y-62465000D01*
X133198102Y-62504774D01*
X133009744Y-62582795D01*
X132840226Y-62696063D01*
X132721289Y-62815000D01*
X132094365Y-62815000D01*
X132067606Y-62782394D01*
X132020012Y-62743334D01*
X132060284Y-62710284D01*
X132167618Y-62579497D01*
X132247375Y-62430283D01*
X132296488Y-62268377D01*
X132313072Y-62100000D01*
X132313072Y-61650000D01*
X132296488Y-61481623D01*
X132247375Y-61319717D01*
X132169300Y-61173649D01*
X132205537Y-61129494D01*
X132264502Y-61019180D01*
X132300812Y-60899482D01*
X132313072Y-60775000D01*
X132310000Y-60610750D01*
X132151250Y-60452000D01*
X131327000Y-60452000D01*
X131327000Y-60472000D01*
X131073000Y-60472000D01*
X131073000Y-60452000D01*
X130248750Y-60452000D01*
X130090000Y-60610750D01*
X130086928Y-60775000D01*
X130099188Y-60899482D01*
X130135498Y-61019180D01*
X130194463Y-61129494D01*
X130230700Y-61173649D01*
X130152625Y-61319717D01*
X130103512Y-61481623D01*
X130086928Y-61650000D01*
X130086928Y-62100000D01*
X130103512Y-62268377D01*
X130152625Y-62430283D01*
X130232382Y-62579497D01*
X130339716Y-62710284D01*
X130379988Y-62743334D01*
X130332394Y-62782394D01*
X130228169Y-62909392D01*
X130150722Y-63054284D01*
X130103031Y-63211500D01*
X130086928Y-63375000D01*
X130086928Y-63775000D01*
X130103031Y-63938500D01*
X130150722Y-64095716D01*
X130228169Y-64240608D01*
X130332394Y-64367606D01*
X130371866Y-64400000D01*
X130332394Y-64432394D01*
X130228169Y-64559392D01*
X130150722Y-64704284D01*
X130103031Y-64861500D01*
X130086928Y-65025000D01*
X130086928Y-65425000D01*
X130103031Y-65588500D01*
X130150722Y-65745716D01*
X130228169Y-65890608D01*
X130332394Y-66017606D01*
X130371866Y-66050000D01*
X130332394Y-66082394D01*
X130228169Y-66209392D01*
X130150722Y-66354284D01*
X130103031Y-66511500D01*
X130086928Y-66675000D01*
X130086928Y-66913270D01*
X128341264Y-68658935D01*
X128294187Y-68663572D01*
X128000125Y-68752774D01*
X127729117Y-68897631D01*
X127491576Y-69092576D01*
X127296631Y-69330118D01*
X127151774Y-69601126D01*
X127062572Y-69895188D01*
X127040000Y-70124365D01*
X127040000Y-71475636D01*
X127062572Y-71704813D01*
X127151774Y-71998875D01*
X127296632Y-72269883D01*
X127491577Y-72507424D01*
X127729118Y-72702369D01*
X128000126Y-72847226D01*
X128294188Y-72936428D01*
X128330455Y-72940000D01*
X123727002Y-72940000D01*
X123727002Y-72794484D01*
X123968664Y-72914812D01*
X124079655Y-72888853D01*
X124361094Y-72766650D01*
X124613285Y-72591889D01*
X124826536Y-72371286D01*
X124992652Y-72113319D01*
X125105249Y-71827901D01*
X125160000Y-71526000D01*
X125160000Y-70927000D01*
X123727000Y-70927000D01*
X123727000Y-70947000D01*
X123473000Y-70947000D01*
X123473000Y-70927000D01*
X122040000Y-70927000D01*
X122040000Y-71526000D01*
X122094751Y-71827901D01*
X122207348Y-72113319D01*
X122373464Y-72371286D01*
X122586715Y-72591889D01*
X122838906Y-72766650D01*
X123120345Y-72888853D01*
X123231336Y-72914812D01*
X123472998Y-72794484D01*
X123472998Y-72940000D01*
X123018469Y-72940000D01*
X122975000Y-72935719D01*
X122931531Y-72940000D01*
X122931523Y-72940000D01*
X122801510Y-72952805D01*
X122634687Y-73003411D01*
X122485016Y-73083411D01*
X122480941Y-73085589D01*
X122379953Y-73168468D01*
X122379951Y-73168470D01*
X122346183Y-73196183D01*
X122318470Y-73229951D01*
X120404951Y-75143471D01*
X120371184Y-75171183D01*
X120343471Y-75204951D01*
X120343468Y-75204954D01*
X120260590Y-75305941D01*
X120178412Y-75459687D01*
X120127805Y-75626510D01*
X120110719Y-75800000D01*
X120115001Y-75843479D01*
X120115000Y-78403588D01*
X120028169Y-78509392D01*
X119950722Y-78654284D01*
X119903031Y-78811500D01*
X119886928Y-78975000D01*
X113875107Y-78975000D01*
X113746632Y-78846525D01*
X113572240Y-78730000D01*
X113746632Y-78613475D01*
X113953475Y-78406632D01*
X114115990Y-78163411D01*
X114227932Y-77893158D01*
X114285000Y-77606260D01*
X114285000Y-77313740D01*
X114227932Y-77026842D01*
X114115990Y-76756589D01*
X113953475Y-76513368D01*
X113746632Y-76306525D01*
X113572240Y-76190000D01*
X113746632Y-76073475D01*
X113953475Y-75866632D01*
X114115990Y-75623411D01*
X114227932Y-75353158D01*
X114285000Y-75066260D01*
X114285000Y-74773740D01*
X114227932Y-74486842D01*
X114115990Y-74216589D01*
X113953475Y-73973368D01*
X113746632Y-73766525D01*
X113572240Y-73650000D01*
X113746632Y-73533475D01*
X113953475Y-73326632D01*
X114115990Y-73083411D01*
X114227932Y-72813158D01*
X114285000Y-72526260D01*
X114285000Y-72233740D01*
X114227932Y-71946842D01*
X114115990Y-71676589D01*
X113953475Y-71433368D01*
X113746632Y-71226525D01*
X113572240Y-71110000D01*
X113746632Y-70993475D01*
X113953475Y-70786632D01*
X114115990Y-70543411D01*
X114227932Y-70273158D01*
X114267547Y-70074000D01*
X122040000Y-70074000D01*
X122040000Y-70673000D01*
X123473000Y-70673000D01*
X123473000Y-68805517D01*
X123727000Y-68805517D01*
X123727000Y-70673000D01*
X125160000Y-70673000D01*
X125160000Y-70074000D01*
X125105249Y-69772099D01*
X124992652Y-69486681D01*
X124826536Y-69228714D01*
X124613285Y-69008111D01*
X124361094Y-68833350D01*
X124079655Y-68711147D01*
X123968664Y-68685188D01*
X123727000Y-68805517D01*
X123473000Y-68805517D01*
X123231336Y-68685188D01*
X123120345Y-68711147D01*
X122838906Y-68833350D01*
X122586715Y-69008111D01*
X122373464Y-69228714D01*
X122207348Y-69486681D01*
X122094751Y-69772099D01*
X122040000Y-70074000D01*
X114267547Y-70074000D01*
X114285000Y-69986260D01*
X114285000Y-69693740D01*
X114227932Y-69406842D01*
X114115990Y-69136589D01*
X113953475Y-68893368D01*
X113821620Y-68761513D01*
X113894180Y-68739502D01*
X114004494Y-68680537D01*
X114101185Y-68601185D01*
X114180537Y-68504494D01*
X114239502Y-68394180D01*
X114275812Y-68274482D01*
X114288072Y-68150000D01*
X114288072Y-66450000D01*
X114275812Y-66325518D01*
X114239502Y-66205820D01*
X114180537Y-66095506D01*
X114101185Y-65998815D01*
X114004494Y-65919463D01*
X113894180Y-65860498D01*
X113774482Y-65824188D01*
X113650000Y-65811928D01*
X111950000Y-65811928D01*
X111825518Y-65824188D01*
X111705820Y-65860498D01*
X111595506Y-65919463D01*
X111498815Y-65998815D01*
X111419463Y-66095506D01*
X111360498Y-66205820D01*
X111324188Y-66325518D01*
X111311928Y-66450000D01*
X110460000Y-66450000D01*
X110460000Y-63774365D01*
X122355000Y-63774365D01*
X122355000Y-65125636D01*
X122377572Y-65354813D01*
X122466774Y-65648875D01*
X122611632Y-65919883D01*
X122806577Y-66157424D01*
X123044118Y-66352369D01*
X123315126Y-66497226D01*
X123609188Y-66586428D01*
X123915000Y-66616548D01*
X124220813Y-66586428D01*
X124514875Y-66497226D01*
X124785883Y-66352369D01*
X125023424Y-66157424D01*
X125218369Y-65919883D01*
X125363226Y-65648875D01*
X125452428Y-65354813D01*
X125475000Y-65125636D01*
X125475000Y-63774365D01*
X126725000Y-63774365D01*
X126725000Y-65125636D01*
X126747572Y-65354813D01*
X126836774Y-65648875D01*
X126981632Y-65919883D01*
X127176577Y-66157424D01*
X127414118Y-66352369D01*
X127685126Y-66497226D01*
X127979188Y-66586428D01*
X128285000Y-66616548D01*
X128590813Y-66586428D01*
X128884875Y-66497226D01*
X129155883Y-66352369D01*
X129393424Y-66157424D01*
X129588369Y-65919883D01*
X129733226Y-65648875D01*
X129822428Y-65354813D01*
X129845000Y-65125636D01*
X129845000Y-63774364D01*
X129822428Y-63545187D01*
X129733226Y-63251125D01*
X129588369Y-62980117D01*
X129393424Y-62742576D01*
X129155882Y-62547631D01*
X128884874Y-62402774D01*
X128590812Y-62313572D01*
X128285000Y-62283452D01*
X127979187Y-62313572D01*
X127685125Y-62402774D01*
X127414117Y-62547631D01*
X127176576Y-62742576D01*
X126981631Y-62980118D01*
X126836774Y-63251126D01*
X126747572Y-63545188D01*
X126725000Y-63774365D01*
X125475000Y-63774365D01*
X125475000Y-63774364D01*
X125452428Y-63545187D01*
X125363226Y-63251125D01*
X125218369Y-62980117D01*
X125023424Y-62742576D01*
X124785882Y-62547631D01*
X124514874Y-62402774D01*
X124220812Y-62313572D01*
X123915000Y-62283452D01*
X123609187Y-62313572D01*
X123315125Y-62402774D01*
X123044117Y-62547631D01*
X122806576Y-62742576D01*
X122611631Y-62980118D01*
X122466774Y-63251126D01*
X122377572Y-63545188D01*
X122355000Y-63774365D01*
X110460000Y-63774365D01*
X110460000Y-57624365D01*
X122040000Y-57624365D01*
X122040000Y-58975636D01*
X122062572Y-59204813D01*
X122151774Y-59498875D01*
X122296632Y-59769883D01*
X122491577Y-60007424D01*
X122729118Y-60202369D01*
X123000126Y-60347226D01*
X123294188Y-60436428D01*
X123600000Y-60466548D01*
X123905813Y-60436428D01*
X124199875Y-60347226D01*
X124470883Y-60202369D01*
X124708424Y-60007424D01*
X124903369Y-59769883D01*
X125048226Y-59498875D01*
X125137428Y-59204813D01*
X125160000Y-58975636D01*
X125160000Y-57624365D01*
X127040000Y-57624365D01*
X127040000Y-58975636D01*
X127062572Y-59204813D01*
X127151774Y-59498875D01*
X127296632Y-59769883D01*
X127491577Y-60007424D01*
X127729118Y-60202369D01*
X128000126Y-60347226D01*
X128294188Y-60436428D01*
X128600000Y-60466548D01*
X128905813Y-60436428D01*
X129199875Y-60347226D01*
X129470883Y-60202369D01*
X129708424Y-60007424D01*
X129817101Y-59875000D01*
X130086928Y-59875000D01*
X130090000Y-60039250D01*
X130248750Y-60198000D01*
X131073000Y-60198000D01*
X131073000Y-59398750D01*
X131327000Y-59398750D01*
X131327000Y-60198000D01*
X132151250Y-60198000D01*
X132310000Y-60039250D01*
X132313072Y-59875000D01*
X132300812Y-59750518D01*
X132264502Y-59630820D01*
X132205537Y-59520506D01*
X132126185Y-59423815D01*
X132029494Y-59344463D01*
X131919180Y-59285498D01*
X131799482Y-59249188D01*
X131675000Y-59236928D01*
X131485750Y-59240000D01*
X131327000Y-59398750D01*
X131073000Y-59398750D01*
X130914250Y-59240000D01*
X130725000Y-59236928D01*
X130600518Y-59249188D01*
X130480820Y-59285498D01*
X130370506Y-59344463D01*
X130273815Y-59423815D01*
X130194463Y-59520506D01*
X130135498Y-59630820D01*
X130099188Y-59750518D01*
X130086928Y-59875000D01*
X129817101Y-59875000D01*
X129903369Y-59769883D01*
X130048226Y-59498875D01*
X130137428Y-59204813D01*
X130160000Y-58975636D01*
X130160000Y-57624365D01*
X137540000Y-57624365D01*
X137540000Y-58975636D01*
X137562572Y-59204813D01*
X137651774Y-59498875D01*
X137796632Y-59769883D01*
X137991577Y-60007424D01*
X138229118Y-60202369D01*
X138500126Y-60347226D01*
X138794188Y-60436428D01*
X139100000Y-60466548D01*
X139405813Y-60436428D01*
X139699875Y-60347226D01*
X139970883Y-60202369D01*
X140208424Y-60007424D01*
X140403369Y-59769883D01*
X140548226Y-59498875D01*
X140637428Y-59204813D01*
X140660000Y-58975636D01*
X140660000Y-57624365D01*
X142540000Y-57624365D01*
X142540000Y-58975636D01*
X142562572Y-59204813D01*
X142651774Y-59498875D01*
X142796632Y-59769883D01*
X142991577Y-60007424D01*
X143229118Y-60202369D01*
X143500126Y-60347226D01*
X143794188Y-60436428D01*
X144100000Y-60466548D01*
X144405813Y-60436428D01*
X144699875Y-60347226D01*
X144970883Y-60202369D01*
X145208424Y-60007424D01*
X145317101Y-59875000D01*
X145586928Y-59875000D01*
X145590000Y-60039250D01*
X145748750Y-60198000D01*
X146573000Y-60198000D01*
X146573000Y-59398750D01*
X146827000Y-59398750D01*
X146827000Y-60198000D01*
X147651250Y-60198000D01*
X147810000Y-60039250D01*
X147813072Y-59875000D01*
X147800812Y-59750518D01*
X147764502Y-59630820D01*
X147705537Y-59520506D01*
X147626185Y-59423815D01*
X147529494Y-59344463D01*
X147419180Y-59285498D01*
X147299482Y-59249188D01*
X147175000Y-59236928D01*
X146985750Y-59240000D01*
X146827000Y-59398750D01*
X146573000Y-59398750D01*
X146414250Y-59240000D01*
X146225000Y-59236928D01*
X146100518Y-59249188D01*
X145980820Y-59285498D01*
X145870506Y-59344463D01*
X145773815Y-59423815D01*
X145694463Y-59520506D01*
X145635498Y-59630820D01*
X145599188Y-59750518D01*
X145586928Y-59875000D01*
X145317101Y-59875000D01*
X145403369Y-59769883D01*
X145548226Y-59498875D01*
X145637428Y-59204813D01*
X145660000Y-58975636D01*
X145660000Y-57624365D01*
X153040000Y-57624365D01*
X153040000Y-58975636D01*
X153062572Y-59204813D01*
X153151774Y-59498875D01*
X153296632Y-59769883D01*
X153491577Y-60007424D01*
X153729118Y-60202369D01*
X154000126Y-60347226D01*
X154294188Y-60436428D01*
X154600000Y-60466548D01*
X154905813Y-60436428D01*
X155199875Y-60347226D01*
X155470883Y-60202369D01*
X155708424Y-60007424D01*
X155903369Y-59769883D01*
X156048226Y-59498875D01*
X156137428Y-59204813D01*
X156160000Y-58975636D01*
X156160000Y-57624365D01*
X158040000Y-57624365D01*
X158040000Y-58975636D01*
X158062572Y-59204813D01*
X158151774Y-59498875D01*
X158296632Y-59769883D01*
X158491577Y-60007424D01*
X158729118Y-60202369D01*
X159000126Y-60347226D01*
X159294188Y-60436428D01*
X159600000Y-60466548D01*
X159905813Y-60436428D01*
X160199875Y-60347226D01*
X160470883Y-60202369D01*
X160708424Y-60007424D01*
X160817101Y-59875000D01*
X161086928Y-59875000D01*
X161090000Y-60039250D01*
X161248750Y-60198000D01*
X162073000Y-60198000D01*
X162073000Y-59398750D01*
X162327000Y-59398750D01*
X162327000Y-60198000D01*
X163151250Y-60198000D01*
X163310000Y-60039250D01*
X163313072Y-59875000D01*
X163300812Y-59750518D01*
X163264502Y-59630820D01*
X163205537Y-59520506D01*
X163126185Y-59423815D01*
X163029494Y-59344463D01*
X162919180Y-59285498D01*
X162799482Y-59249188D01*
X162675000Y-59236928D01*
X162485750Y-59240000D01*
X162327000Y-59398750D01*
X162073000Y-59398750D01*
X161914250Y-59240000D01*
X161725000Y-59236928D01*
X161600518Y-59249188D01*
X161480820Y-59285498D01*
X161370506Y-59344463D01*
X161273815Y-59423815D01*
X161194463Y-59520506D01*
X161135498Y-59630820D01*
X161099188Y-59750518D01*
X161086928Y-59875000D01*
X160817101Y-59875000D01*
X160903369Y-59769883D01*
X161048226Y-59498875D01*
X161137428Y-59204813D01*
X161160000Y-58975636D01*
X161160000Y-57624364D01*
X161137428Y-57395187D01*
X161048226Y-57101125D01*
X160903369Y-56830117D01*
X160766310Y-56663110D01*
X166958524Y-56663110D01*
X167079845Y-56893000D01*
X168273000Y-56893000D01*
X168273000Y-55699186D01*
X168527000Y-55699186D01*
X168527000Y-56893000D01*
X169720155Y-56893000D01*
X169841476Y-56663110D01*
X169796825Y-56515901D01*
X169671641Y-56253080D01*
X169497588Y-56019731D01*
X169281355Y-55824822D01*
X169031252Y-55675843D01*
X168756891Y-55578519D01*
X168527000Y-55699186D01*
X168273000Y-55699186D01*
X168043109Y-55578519D01*
X167768748Y-55675843D01*
X167518645Y-55824822D01*
X167302412Y-56019731D01*
X167128359Y-56253080D01*
X167003175Y-56515901D01*
X166958524Y-56663110D01*
X160766310Y-56663110D01*
X160708424Y-56592576D01*
X160470882Y-56397631D01*
X160199874Y-56252774D01*
X159905812Y-56163572D01*
X159600000Y-56133452D01*
X159294187Y-56163572D01*
X159000125Y-56252774D01*
X158729117Y-56397631D01*
X158491576Y-56592576D01*
X158296631Y-56830118D01*
X158151774Y-57101126D01*
X158062572Y-57395188D01*
X158040000Y-57624365D01*
X156160000Y-57624365D01*
X156160000Y-57624364D01*
X156137428Y-57395187D01*
X156048226Y-57101125D01*
X155903369Y-56830117D01*
X155708424Y-56592576D01*
X155470882Y-56397631D01*
X155199874Y-56252774D01*
X154905812Y-56163572D01*
X154600000Y-56133452D01*
X154294187Y-56163572D01*
X154000125Y-56252774D01*
X153729117Y-56397631D01*
X153491576Y-56592576D01*
X153296631Y-56830118D01*
X153151774Y-57101126D01*
X153062572Y-57395188D01*
X153040000Y-57624365D01*
X145660000Y-57624365D01*
X145660000Y-57624364D01*
X145637428Y-57395187D01*
X145548226Y-57101125D01*
X145403369Y-56830117D01*
X145208424Y-56592576D01*
X144970882Y-56397631D01*
X144699874Y-56252774D01*
X144405812Y-56163572D01*
X144100000Y-56133452D01*
X143794187Y-56163572D01*
X143500125Y-56252774D01*
X143229117Y-56397631D01*
X142991576Y-56592576D01*
X142796631Y-56830118D01*
X142651774Y-57101126D01*
X142562572Y-57395188D01*
X142540000Y-57624365D01*
X140660000Y-57624365D01*
X140660000Y-57624364D01*
X140637428Y-57395187D01*
X140548226Y-57101125D01*
X140403369Y-56830117D01*
X140208424Y-56592576D01*
X139970882Y-56397631D01*
X139699874Y-56252774D01*
X139405812Y-56163572D01*
X139100000Y-56133452D01*
X138794187Y-56163572D01*
X138500125Y-56252774D01*
X138229117Y-56397631D01*
X137991576Y-56592576D01*
X137796631Y-56830118D01*
X137651774Y-57101126D01*
X137562572Y-57395188D01*
X137540000Y-57624365D01*
X130160000Y-57624365D01*
X130160000Y-57624364D01*
X130137428Y-57395187D01*
X130048226Y-57101125D01*
X129903369Y-56830117D01*
X129708424Y-56592576D01*
X129470882Y-56397631D01*
X129199874Y-56252774D01*
X128905812Y-56163572D01*
X128600000Y-56133452D01*
X128294187Y-56163572D01*
X128000125Y-56252774D01*
X127729117Y-56397631D01*
X127491576Y-56592576D01*
X127296631Y-56830118D01*
X127151774Y-57101126D01*
X127062572Y-57395188D01*
X127040000Y-57624365D01*
X125160000Y-57624365D01*
X125160000Y-57624364D01*
X125137428Y-57395187D01*
X125048226Y-57101125D01*
X124903369Y-56830117D01*
X124708424Y-56592576D01*
X124470882Y-56397631D01*
X124199874Y-56252774D01*
X123905812Y-56163572D01*
X123600000Y-56133452D01*
X123294187Y-56163572D01*
X123000125Y-56252774D01*
X122729117Y-56397631D01*
X122491576Y-56592576D01*
X122296631Y-56830118D01*
X122151774Y-57101126D01*
X122062572Y-57395188D01*
X122040000Y-57624365D01*
X110460000Y-57624365D01*
X110460000Y-49114344D01*
X111415000Y-49114344D01*
X111415000Y-49485656D01*
X111487439Y-49849834D01*
X111629534Y-50192882D01*
X111835825Y-50501618D01*
X112098382Y-50764175D01*
X112407118Y-50970466D01*
X112750166Y-51112561D01*
X113114344Y-51185000D01*
X113485656Y-51185000D01*
X113849834Y-51112561D01*
X114192882Y-50970466D01*
X114501618Y-50764175D01*
X114764175Y-50501618D01*
X114970466Y-50192882D01*
X115112561Y-49849834D01*
X115185000Y-49485656D01*
X115185000Y-49114344D01*
X170315000Y-49114344D01*
X170315000Y-49485656D01*
X170387439Y-49849834D01*
X170529534Y-50192882D01*
X170735825Y-50501618D01*
X170998382Y-50764175D01*
X171307118Y-50970466D01*
X171650166Y-51112561D01*
X172014344Y-51185000D01*
X172385656Y-51185000D01*
X172749834Y-51112561D01*
X173092882Y-50970466D01*
X173401618Y-50764175D01*
X173664175Y-50501618D01*
X173870466Y-50192882D01*
X174012561Y-49849834D01*
X174085000Y-49485656D01*
X174085000Y-49114344D01*
X174012561Y-48750166D01*
X173870466Y-48407118D01*
X173664175Y-48098382D01*
X173401618Y-47835825D01*
X173092882Y-47629534D01*
X172749834Y-47487439D01*
X172385656Y-47415000D01*
X172014344Y-47415000D01*
X171650166Y-47487439D01*
X171307118Y-47629534D01*
X170998382Y-47835825D01*
X170735825Y-48098382D01*
X170529534Y-48407118D01*
X170387439Y-48750166D01*
X170315000Y-49114344D01*
X115185000Y-49114344D01*
X115112561Y-48750166D01*
X114970466Y-48407118D01*
X114764175Y-48098382D01*
X114501618Y-47835825D01*
X114192882Y-47629534D01*
X113849834Y-47487439D01*
X113485656Y-47415000D01*
X113114344Y-47415000D01*
X112750166Y-47487439D01*
X112407118Y-47629534D01*
X112098382Y-47835825D01*
X111835825Y-48098382D01*
X111629534Y-48407118D01*
X111487439Y-48750166D01*
X111415000Y-49114344D01*
X110460000Y-49114344D01*
X110460000Y-46460000D01*
X175040000Y-46460000D01*
X175040001Y-99840000D01*
G04 #@! TA.AperFunction,Conductor*
D17*
G36*
X175040001Y-99840000D02*
G01*
X110460000Y-99840000D01*
X110460000Y-96814344D01*
X111415000Y-96814344D01*
X111415000Y-97185656D01*
X111487439Y-97549834D01*
X111629534Y-97892882D01*
X111835825Y-98201618D01*
X112098382Y-98464175D01*
X112407118Y-98670466D01*
X112750166Y-98812561D01*
X113114344Y-98885000D01*
X113485656Y-98885000D01*
X113849834Y-98812561D01*
X114192882Y-98670466D01*
X114501618Y-98464175D01*
X114764175Y-98201618D01*
X114970466Y-97892882D01*
X115112561Y-97549834D01*
X115185000Y-97185656D01*
X115185000Y-96814344D01*
X170315000Y-96814344D01*
X170315000Y-97185656D01*
X170387439Y-97549834D01*
X170529534Y-97892882D01*
X170735825Y-98201618D01*
X170998382Y-98464175D01*
X171307118Y-98670466D01*
X171650166Y-98812561D01*
X172014344Y-98885000D01*
X172385656Y-98885000D01*
X172749834Y-98812561D01*
X173092882Y-98670466D01*
X173401618Y-98464175D01*
X173664175Y-98201618D01*
X173870466Y-97892882D01*
X174012561Y-97549834D01*
X174085000Y-97185656D01*
X174085000Y-96814344D01*
X174012561Y-96450166D01*
X173870466Y-96107118D01*
X173664175Y-95798382D01*
X173401618Y-95535825D01*
X173092882Y-95329534D01*
X172749834Y-95187439D01*
X172385656Y-95115000D01*
X172014344Y-95115000D01*
X171650166Y-95187439D01*
X171307118Y-95329534D01*
X170998382Y-95535825D01*
X170735825Y-95798382D01*
X170529534Y-96107118D01*
X170387439Y-96450166D01*
X170315000Y-96814344D01*
X115185000Y-96814344D01*
X115112561Y-96450166D01*
X114970466Y-96107118D01*
X114764175Y-95798382D01*
X114501618Y-95535825D01*
X114192882Y-95329534D01*
X113849834Y-95187439D01*
X113485656Y-95115000D01*
X113114344Y-95115000D01*
X112750166Y-95187439D01*
X112407118Y-95329534D01*
X112098382Y-95535825D01*
X111835825Y-95798382D01*
X111629534Y-96107118D01*
X111487439Y-96450166D01*
X111415000Y-96814344D01*
X110460000Y-96814344D01*
X110460000Y-87625000D01*
X119886928Y-87625000D01*
X119899188Y-87749482D01*
X119935498Y-87869180D01*
X119994463Y-87979494D01*
X120073815Y-88076185D01*
X120170506Y-88155537D01*
X120280820Y-88214502D01*
X120400518Y-88250812D01*
X120525000Y-88263072D01*
X120714250Y-88260000D01*
X120873000Y-88101250D01*
X120873000Y-87302000D01*
X121127000Y-87302000D01*
X121127000Y-88101250D01*
X121285750Y-88260000D01*
X121475000Y-88263072D01*
X121599482Y-88250812D01*
X121719180Y-88214502D01*
X121829494Y-88155537D01*
X121926185Y-88076185D01*
X122005537Y-87979494D01*
X122064502Y-87869180D01*
X122100812Y-87749482D01*
X122113072Y-87625000D01*
X122110000Y-87460750D01*
X121951250Y-87302000D01*
X121127000Y-87302000D01*
X120873000Y-87302000D01*
X120048750Y-87302000D01*
X119890000Y-87460750D01*
X119886928Y-87625000D01*
X110460000Y-87625000D01*
X110460000Y-66450000D01*
X111311928Y-66450000D01*
X111311928Y-68150000D01*
X111324188Y-68274482D01*
X111360498Y-68394180D01*
X111419463Y-68504494D01*
X111498815Y-68601185D01*
X111595506Y-68680537D01*
X111705820Y-68739502D01*
X111778380Y-68761513D01*
X111646525Y-68893368D01*
X111484010Y-69136589D01*
X111372068Y-69406842D01*
X111315000Y-69693740D01*
X111315000Y-69986260D01*
X111372068Y-70273158D01*
X111484010Y-70543411D01*
X111646525Y-70786632D01*
X111853368Y-70993475D01*
X112027760Y-71110000D01*
X111853368Y-71226525D01*
X111646525Y-71433368D01*
X111484010Y-71676589D01*
X111372068Y-71946842D01*
X111315000Y-72233740D01*
X111315000Y-72526260D01*
X111372068Y-72813158D01*
X111484010Y-73083411D01*
X111646525Y-73326632D01*
X111853368Y-73533475D01*
X112027760Y-73650000D01*
X111853368Y-73766525D01*
X111646525Y-73973368D01*
X111484010Y-74216589D01*
X111372068Y-74486842D01*
X111315000Y-74773740D01*
X111315000Y-75066260D01*
X111372068Y-75353158D01*
X111484010Y-75623411D01*
X111646525Y-75866632D01*
X111853368Y-76073475D01*
X112027760Y-76190000D01*
X111853368Y-76306525D01*
X111646525Y-76513368D01*
X111484010Y-76756589D01*
X111372068Y-77026842D01*
X111315000Y-77313740D01*
X111315000Y-77606260D01*
X111372068Y-77893158D01*
X111484010Y-78163411D01*
X111646525Y-78406632D01*
X111853368Y-78613475D01*
X112027760Y-78730000D01*
X111853368Y-78846525D01*
X111646525Y-79053368D01*
X111484010Y-79296589D01*
X111372068Y-79566842D01*
X111315000Y-79853740D01*
X111315000Y-80146260D01*
X111372068Y-80433158D01*
X111484010Y-80703411D01*
X111646525Y-80946632D01*
X111853368Y-81153475D01*
X112096589Y-81315990D01*
X112366842Y-81427932D01*
X112653740Y-81485000D01*
X112946260Y-81485000D01*
X113233158Y-81427932D01*
X113503411Y-81315990D01*
X113746632Y-81153475D01*
X113953475Y-80946632D01*
X114115990Y-80703411D01*
X114227932Y-80433158D01*
X114285000Y-80146260D01*
X114285000Y-79853740D01*
X114227932Y-79566842D01*
X114115990Y-79296589D01*
X113953475Y-79053368D01*
X113875107Y-78975000D01*
X119886928Y-78975000D01*
X119886928Y-79375000D01*
X119903031Y-79538500D01*
X119950722Y-79695716D01*
X120028169Y-79840608D01*
X120132394Y-79967606D01*
X120171866Y-80000000D01*
X120132394Y-80032394D01*
X120028169Y-80159392D01*
X119950722Y-80304284D01*
X119903031Y-80461500D01*
X119886928Y-80625000D01*
X119886928Y-81025000D01*
X119903031Y-81188500D01*
X119950722Y-81345716D01*
X120028169Y-81490608D01*
X120117945Y-81600000D01*
X120028169Y-81709392D01*
X119950722Y-81854284D01*
X119903031Y-82011500D01*
X119886928Y-82175000D01*
X119886928Y-82575000D01*
X119903031Y-82738500D01*
X119950722Y-82895716D01*
X120028169Y-83040608D01*
X120132394Y-83167606D01*
X120171866Y-83200000D01*
X120132394Y-83232394D01*
X120028169Y-83359392D01*
X119950722Y-83504284D01*
X119903031Y-83661500D01*
X119886928Y-83825000D01*
X119886928Y-84225000D01*
X119903031Y-84388500D01*
X119950722Y-84545716D01*
X120028169Y-84690608D01*
X120124611Y-84808122D01*
X120032382Y-84920503D01*
X119952625Y-85069717D01*
X119903512Y-85231623D01*
X119886928Y-85400000D01*
X119886928Y-85850000D01*
X119903512Y-86018377D01*
X119952625Y-86180283D01*
X120030700Y-86326351D01*
X119994463Y-86370506D01*
X119935498Y-86480820D01*
X119899188Y-86600518D01*
X119886928Y-86725000D01*
X119890000Y-86889250D01*
X120048750Y-87048000D01*
X120873000Y-87048000D01*
X120873000Y-87028000D01*
X121127000Y-87028000D01*
X121127000Y-87048000D01*
X121951250Y-87048000D01*
X122110000Y-86889250D01*
X122113072Y-86725000D01*
X122100812Y-86600518D01*
X122064502Y-86480820D01*
X122005537Y-86370506D01*
X121969300Y-86326351D01*
X122047375Y-86180283D01*
X122055080Y-86154882D01*
X122904230Y-87004031D01*
X122729118Y-87097631D01*
X122491577Y-87292576D01*
X122296632Y-87530117D01*
X122151774Y-87801125D01*
X122062572Y-88095187D01*
X122040000Y-88324364D01*
X122040000Y-89675635D01*
X122062572Y-89904812D01*
X122151774Y-90198874D01*
X122296631Y-90469882D01*
X122491576Y-90707424D01*
X122729117Y-90902369D01*
X123000125Y-91047226D01*
X123294187Y-91136428D01*
X123600000Y-91166548D01*
X123905812Y-91136428D01*
X124199874Y-91047226D01*
X124470882Y-90902369D01*
X124708424Y-90707424D01*
X124903369Y-90469883D01*
X125048226Y-90198875D01*
X125137428Y-89904813D01*
X125160000Y-89675636D01*
X125160000Y-89259802D01*
X127961211Y-92061013D01*
X127985009Y-92090011D01*
X128100734Y-92184984D01*
X128232763Y-92255556D01*
X128376024Y-92299013D01*
X128487677Y-92310010D01*
X128487686Y-92310010D01*
X128525009Y-92313686D01*
X128562332Y-92310010D01*
X164212668Y-92310010D01*
X164249990Y-92313686D01*
X164287312Y-92310010D01*
X164287323Y-92310010D01*
X164398976Y-92299013D01*
X164542237Y-92255556D01*
X164674266Y-92184984D01*
X164789991Y-92090011D01*
X164813794Y-92061007D01*
X168011004Y-88863798D01*
X168040001Y-88840001D01*
X168134974Y-88724276D01*
X168205546Y-88592247D01*
X168249003Y-88448986D01*
X168260000Y-88337333D01*
X168260000Y-88337324D01*
X168263676Y-88300001D01*
X168260000Y-88262678D01*
X168260000Y-88010000D01*
X168761928Y-88010000D01*
X168774188Y-88134482D01*
X168810498Y-88254180D01*
X168869463Y-88364494D01*
X168948815Y-88461185D01*
X169045506Y-88540537D01*
X169155820Y-88599502D01*
X169275518Y-88635812D01*
X169400000Y-88648072D01*
X170089250Y-88645000D01*
X170248000Y-88486250D01*
X170248000Y-87837000D01*
X170502000Y-87837000D01*
X170502000Y-88486250D01*
X170660750Y-88645000D01*
X171350000Y-88648072D01*
X171474482Y-88635812D01*
X171594180Y-88599502D01*
X171704494Y-88540537D01*
X171801185Y-88461185D01*
X171880537Y-88364494D01*
X171939502Y-88254180D01*
X171975812Y-88134482D01*
X171988072Y-88010000D01*
X171985000Y-87995750D01*
X171826250Y-87837000D01*
X170502000Y-87837000D01*
X170248000Y-87837000D01*
X168923750Y-87837000D01*
X168765000Y-87995750D01*
X168761928Y-88010000D01*
X168260000Y-88010000D01*
X168260000Y-82497323D01*
X168263676Y-82460000D01*
X168260000Y-82422677D01*
X168260000Y-82422667D01*
X168249003Y-82311014D01*
X168205546Y-82167753D01*
X168179486Y-82118998D01*
X168134974Y-82035723D01*
X168063799Y-81948997D01*
X168040001Y-81919999D01*
X168011003Y-81896201D01*
X166963804Y-80849002D01*
X166940001Y-80819999D01*
X166923650Y-80806580D01*
X166905258Y-80772171D01*
X166866546Y-80725000D01*
X166905258Y-80677829D01*
X166978084Y-80541582D01*
X167022929Y-80393745D01*
X167038072Y-80240000D01*
X167038072Y-79940000D01*
X167022929Y-79786255D01*
X166978084Y-79638418D01*
X166962894Y-79610000D01*
X167002002Y-79610000D01*
X167002002Y-79451252D01*
X167160750Y-79610000D01*
X167325000Y-79613072D01*
X167449482Y-79600812D01*
X167569180Y-79564502D01*
X167679494Y-79505537D01*
X167776185Y-79426185D01*
X167855537Y-79329494D01*
X167914502Y-79219180D01*
X167950812Y-79099482D01*
X167963072Y-78975000D01*
X167960000Y-78785750D01*
X167801250Y-78627000D01*
X167002000Y-78627000D01*
X167002000Y-78647000D01*
X166748000Y-78647000D01*
X166748000Y-78627000D01*
X166728000Y-78627000D01*
X166728000Y-78373000D01*
X166748000Y-78373000D01*
X166748000Y-78353000D01*
X167002000Y-78353000D01*
X167002000Y-78373000D01*
X167801250Y-78373000D01*
X167960000Y-78214250D01*
X167963072Y-78025000D01*
X167950812Y-77900518D01*
X167914502Y-77780820D01*
X167855537Y-77670506D01*
X167776185Y-77573815D01*
X167679494Y-77494463D01*
X167569180Y-77435498D01*
X167449482Y-77399188D01*
X167325000Y-77386928D01*
X167160750Y-77390000D01*
X167002002Y-77548748D01*
X167002002Y-77449576D01*
X168163507Y-76288072D01*
X169250000Y-76288072D01*
X169374482Y-76275812D01*
X169494180Y-76239502D01*
X169604494Y-76180537D01*
X169701185Y-76101185D01*
X169780537Y-76004494D01*
X169839502Y-75894180D01*
X169875812Y-75774482D01*
X169888072Y-75650000D01*
X169888072Y-73950000D01*
X169875812Y-73825518D01*
X169839502Y-73705820D01*
X169780537Y-73595506D01*
X169701185Y-73498815D01*
X169604494Y-73419463D01*
X169494180Y-73360498D01*
X169421620Y-73338487D01*
X169553475Y-73206632D01*
X169678178Y-73020000D01*
X171045199Y-73020000D01*
X171240000Y-73214802D01*
X171240001Y-79155868D01*
X171205066Y-79152427D01*
X171235000Y-79001939D01*
X171235000Y-78798061D01*
X171195226Y-78598102D01*
X171117205Y-78409744D01*
X171003937Y-78240226D01*
X170859774Y-78096063D01*
X170690256Y-77982795D01*
X170501898Y-77904774D01*
X170301939Y-77865000D01*
X170098061Y-77865000D01*
X169898102Y-77904774D01*
X169709744Y-77982795D01*
X169540226Y-78096063D01*
X169396063Y-78240226D01*
X169282795Y-78409744D01*
X169204774Y-78598102D01*
X169165000Y-78798061D01*
X169165000Y-79001939D01*
X169204774Y-79201898D01*
X169216083Y-79229200D01*
X169112171Y-79284742D01*
X168992749Y-79382749D01*
X168894742Y-79502171D01*
X168821916Y-79638418D01*
X168777071Y-79786255D01*
X168761928Y-79940000D01*
X168761928Y-80240000D01*
X168777071Y-80393745D01*
X168821916Y-80541582D01*
X168894742Y-80677829D01*
X168933454Y-80725000D01*
X168894742Y-80772171D01*
X168821916Y-80908418D01*
X168777071Y-81056255D01*
X168761928Y-81210000D01*
X168761928Y-81510000D01*
X168777071Y-81663745D01*
X168821916Y-81811582D01*
X168894742Y-81947829D01*
X168933454Y-81995000D01*
X168894742Y-82042171D01*
X168821916Y-82178418D01*
X168777071Y-82326255D01*
X168761928Y-82480000D01*
X168761928Y-82780000D01*
X168777071Y-82933745D01*
X168821916Y-83081582D01*
X168894742Y-83217829D01*
X168933454Y-83265000D01*
X168894742Y-83312171D01*
X168821916Y-83448418D01*
X168777071Y-83596255D01*
X168761928Y-83750000D01*
X168761928Y-84050000D01*
X168777071Y-84203745D01*
X168821916Y-84351582D01*
X168894742Y-84487829D01*
X168933454Y-84535000D01*
X168894742Y-84582171D01*
X168821916Y-84718418D01*
X168777071Y-84866255D01*
X168761928Y-85020000D01*
X168761928Y-85320000D01*
X168777071Y-85473745D01*
X168821916Y-85621582D01*
X168894742Y-85757829D01*
X168933454Y-85805000D01*
X168894742Y-85852171D01*
X168821916Y-85988418D01*
X168777071Y-86136255D01*
X168761928Y-86290000D01*
X168761928Y-86590000D01*
X168777071Y-86743745D01*
X168821916Y-86891582D01*
X168893730Y-87025936D01*
X168869463Y-87055506D01*
X168810498Y-87165820D01*
X168774188Y-87285518D01*
X168761928Y-87410000D01*
X168765000Y-87424250D01*
X168923750Y-87583000D01*
X170248000Y-87583000D01*
X170248000Y-87563000D01*
X170502000Y-87563000D01*
X170502000Y-87583000D01*
X171826250Y-87583000D01*
X171985000Y-87424250D01*
X171988072Y-87410000D01*
X171975812Y-87285518D01*
X171939502Y-87165820D01*
X171911683Y-87113776D01*
X171984276Y-87074974D01*
X172100001Y-86980001D01*
X172123804Y-86950997D01*
X173911003Y-85163799D01*
X173940001Y-85140001D01*
X173997682Y-85069717D01*
X174034974Y-85024277D01*
X174105546Y-84892247D01*
X174121611Y-84839286D01*
X174149003Y-84748986D01*
X174160000Y-84637333D01*
X174160000Y-84637323D01*
X174163676Y-84600000D01*
X174160000Y-84562677D01*
X174160000Y-71015252D01*
X174163677Y-70977919D01*
X174149003Y-70828933D01*
X174105546Y-70685672D01*
X174034974Y-70553643D01*
X173963799Y-70466916D01*
X173940001Y-70437918D01*
X173911004Y-70414121D01*
X170165885Y-66669003D01*
X170142082Y-66639999D01*
X170026357Y-66545026D01*
X169894328Y-66474454D01*
X169751067Y-66430997D01*
X169680909Y-66424087D01*
X169553475Y-66233368D01*
X169346632Y-66026525D01*
X169172240Y-65910000D01*
X169346632Y-65793475D01*
X169553475Y-65586632D01*
X169715990Y-65343411D01*
X169827932Y-65073158D01*
X169885000Y-64786260D01*
X169885000Y-64493740D01*
X169827932Y-64206842D01*
X169715990Y-63936589D01*
X169553475Y-63693368D01*
X169346632Y-63486525D01*
X169172240Y-63370000D01*
X169346632Y-63253475D01*
X169553475Y-63046632D01*
X169715990Y-62803411D01*
X169827932Y-62533158D01*
X169885000Y-62246260D01*
X169885000Y-61953740D01*
X169827932Y-61666842D01*
X169715990Y-61396589D01*
X169553475Y-61153368D01*
X169346632Y-60946525D01*
X169172240Y-60830000D01*
X169346632Y-60713475D01*
X169553475Y-60506632D01*
X169715990Y-60263411D01*
X169827932Y-59993158D01*
X169885000Y-59706260D01*
X169885000Y-59413740D01*
X169827932Y-59126842D01*
X169715990Y-58856589D01*
X169553475Y-58613368D01*
X169346632Y-58406525D01*
X169164466Y-58284805D01*
X169281355Y-58215178D01*
X169497588Y-58020269D01*
X169671641Y-57786920D01*
X169796825Y-57524099D01*
X169841476Y-57376890D01*
X169720155Y-57147000D01*
X168527000Y-57147000D01*
X168527000Y-57167000D01*
X168273000Y-57167000D01*
X168273000Y-57147000D01*
X167079845Y-57147000D01*
X166958524Y-57376890D01*
X167003175Y-57524099D01*
X167128359Y-57786920D01*
X167302412Y-58020269D01*
X167518645Y-58215178D01*
X167635534Y-58284805D01*
X167453368Y-58406525D01*
X167246525Y-58613368D01*
X167084010Y-58856589D01*
X166972068Y-59126842D01*
X166915000Y-59413740D01*
X166915000Y-59706260D01*
X166972068Y-59993158D01*
X167084010Y-60263411D01*
X167246525Y-60506632D01*
X167453368Y-60713475D01*
X167627760Y-60830000D01*
X167453368Y-60946525D01*
X167246525Y-61153368D01*
X167084010Y-61396589D01*
X166972068Y-61666842D01*
X166915000Y-61953740D01*
X166915000Y-62246260D01*
X166972068Y-62533158D01*
X167007207Y-62617991D01*
X165935000Y-63690198D01*
X165935000Y-63498061D01*
X165895226Y-63298102D01*
X165817205Y-63109744D01*
X165703937Y-62940226D01*
X165559774Y-62796063D01*
X165390256Y-62682795D01*
X165201898Y-62604774D01*
X165001939Y-62565000D01*
X164798061Y-62565000D01*
X164598102Y-62604774D01*
X164409744Y-62682795D01*
X164240226Y-62796063D01*
X164221289Y-62815000D01*
X163094365Y-62815000D01*
X163067606Y-62782394D01*
X163020012Y-62743334D01*
X163060284Y-62710284D01*
X163167618Y-62579497D01*
X163247375Y-62430283D01*
X163296488Y-62268377D01*
X163313072Y-62100000D01*
X163313072Y-61650000D01*
X163296488Y-61481623D01*
X163247375Y-61319717D01*
X163169300Y-61173649D01*
X163205537Y-61129494D01*
X163264502Y-61019180D01*
X163300812Y-60899482D01*
X163313072Y-60775000D01*
X163310000Y-60610750D01*
X163151250Y-60452000D01*
X162327000Y-60452000D01*
X162327000Y-60472000D01*
X162073000Y-60472000D01*
X162073000Y-60452000D01*
X161248750Y-60452000D01*
X161090000Y-60610750D01*
X161086928Y-60775000D01*
X161099188Y-60899482D01*
X161135498Y-61019180D01*
X161194463Y-61129494D01*
X161230700Y-61173649D01*
X161152625Y-61319717D01*
X161103512Y-61481623D01*
X161086928Y-61650000D01*
X161086928Y-62100000D01*
X161103512Y-62268377D01*
X161152625Y-62430283D01*
X161232382Y-62579497D01*
X161339716Y-62710284D01*
X161379988Y-62743334D01*
X161332394Y-62782394D01*
X161228169Y-62909392D01*
X161150722Y-63054284D01*
X161103031Y-63211500D01*
X161086928Y-63375000D01*
X161086928Y-63775000D01*
X161103031Y-63938500D01*
X161150722Y-64095716D01*
X161228169Y-64240608D01*
X161332394Y-64367606D01*
X161371866Y-64400000D01*
X161332394Y-64432394D01*
X161228169Y-64559392D01*
X161150722Y-64704284D01*
X161103031Y-64861500D01*
X161086928Y-65025000D01*
X161086928Y-65425000D01*
X161103031Y-65588500D01*
X161150722Y-65745716D01*
X161228169Y-65890608D01*
X161332394Y-66017606D01*
X161371866Y-66050000D01*
X161332394Y-66082394D01*
X161228169Y-66209392D01*
X161150722Y-66354284D01*
X161103031Y-66511500D01*
X161086928Y-66675000D01*
X161086928Y-66913270D01*
X159341264Y-68658935D01*
X159294187Y-68663572D01*
X159000125Y-68752774D01*
X158729117Y-68897631D01*
X158491576Y-69092576D01*
X158296631Y-69330118D01*
X158151774Y-69601126D01*
X158062572Y-69895188D01*
X158040000Y-70124365D01*
X158040000Y-71475636D01*
X158062572Y-71704813D01*
X158151774Y-71998875D01*
X158296632Y-72269883D01*
X158491577Y-72507424D01*
X158729118Y-72702369D01*
X159000126Y-72847226D01*
X159294188Y-72936428D01*
X159310397Y-72938024D01*
X159308422Y-72940000D01*
X154727002Y-72940000D01*
X154727002Y-72794484D01*
X154968664Y-72914812D01*
X155079655Y-72888853D01*
X155361094Y-72766650D01*
X155613285Y-72591889D01*
X155826536Y-72371286D01*
X155992652Y-72113319D01*
X156105249Y-71827901D01*
X156160000Y-71526000D01*
X156160000Y-70927000D01*
X154727000Y-70927000D01*
X154727000Y-70947000D01*
X154473000Y-70947000D01*
X154473000Y-70927000D01*
X153040000Y-70927000D01*
X153040000Y-71526000D01*
X153094751Y-71827901D01*
X153207348Y-72113319D01*
X153373464Y-72371286D01*
X153586715Y-72591889D01*
X153838906Y-72766650D01*
X154120345Y-72888853D01*
X154231336Y-72914812D01*
X154472998Y-72794484D01*
X154472998Y-72940000D01*
X152068465Y-72940000D01*
X152024999Y-72935719D01*
X151981533Y-72940000D01*
X147585000Y-72940000D01*
X147585000Y-70074000D01*
X153040000Y-70074000D01*
X153040000Y-70673000D01*
X154473000Y-70673000D01*
X154473000Y-68805517D01*
X154727000Y-68805517D01*
X154727000Y-70673000D01*
X156160000Y-70673000D01*
X156160000Y-70074000D01*
X156105249Y-69772099D01*
X155992652Y-69486681D01*
X155826536Y-69228714D01*
X155613285Y-69008111D01*
X155361094Y-68833350D01*
X155079655Y-68711147D01*
X154968664Y-68685188D01*
X154727000Y-68805517D01*
X154473000Y-68805517D01*
X154231336Y-68685188D01*
X154120345Y-68711147D01*
X153838906Y-68833350D01*
X153586715Y-69008111D01*
X153373464Y-69228714D01*
X153207348Y-69486681D01*
X153094751Y-69772099D01*
X153040000Y-70074000D01*
X147585000Y-70074000D01*
X147585000Y-69296411D01*
X147671831Y-69190608D01*
X147749278Y-69045716D01*
X147796969Y-68888500D01*
X147813072Y-68725000D01*
X147813072Y-68325000D01*
X147796969Y-68161500D01*
X147749278Y-68004284D01*
X147671831Y-67859392D01*
X147567606Y-67732394D01*
X147528134Y-67700000D01*
X147567606Y-67667606D01*
X147671831Y-67540608D01*
X147749278Y-67395716D01*
X147796969Y-67238500D01*
X147813072Y-67075000D01*
X147813072Y-66675000D01*
X147796969Y-66511500D01*
X147749278Y-66354284D01*
X147671831Y-66209392D01*
X147567606Y-66082394D01*
X147528134Y-66050000D01*
X147567606Y-66017606D01*
X147671831Y-65890608D01*
X147749278Y-65745716D01*
X147796969Y-65588500D01*
X147813072Y-65425000D01*
X147813072Y-65025000D01*
X147796969Y-64861500D01*
X147749278Y-64704284D01*
X147671831Y-64559392D01*
X147567606Y-64432394D01*
X147528134Y-64400000D01*
X147567606Y-64367606D01*
X147594365Y-64335000D01*
X148752705Y-64335000D01*
X148898102Y-64395226D01*
X149098061Y-64435000D01*
X149301939Y-64435000D01*
X149501898Y-64395226D01*
X149690256Y-64317205D01*
X149859774Y-64203937D01*
X150003937Y-64059774D01*
X150117205Y-63890256D01*
X150165208Y-63774365D01*
X153355000Y-63774365D01*
X153355000Y-65125636D01*
X153377572Y-65354813D01*
X153466774Y-65648875D01*
X153611632Y-65919883D01*
X153806577Y-66157424D01*
X154044118Y-66352369D01*
X154315126Y-66497226D01*
X154609188Y-66586428D01*
X154915000Y-66616548D01*
X155220813Y-66586428D01*
X155514875Y-66497226D01*
X155785883Y-66352369D01*
X156023424Y-66157424D01*
X156218369Y-65919883D01*
X156363226Y-65648875D01*
X156452428Y-65354813D01*
X156475000Y-65125636D01*
X156475000Y-63774365D01*
X157725000Y-63774365D01*
X157725000Y-65125636D01*
X157747572Y-65354813D01*
X157836774Y-65648875D01*
X157981632Y-65919883D01*
X158176577Y-66157424D01*
X158414118Y-66352369D01*
X158685126Y-66497226D01*
X158979188Y-66586428D01*
X159285000Y-66616548D01*
X159590813Y-66586428D01*
X159884875Y-66497226D01*
X160155883Y-66352369D01*
X160393424Y-66157424D01*
X160588369Y-65919883D01*
X160733226Y-65648875D01*
X160822428Y-65354813D01*
X160845000Y-65125636D01*
X160845000Y-63774364D01*
X160822428Y-63545187D01*
X160733226Y-63251125D01*
X160588369Y-62980117D01*
X160393424Y-62742576D01*
X160155882Y-62547631D01*
X159884874Y-62402774D01*
X159590812Y-62313572D01*
X159285000Y-62283452D01*
X158979187Y-62313572D01*
X158685125Y-62402774D01*
X158414117Y-62547631D01*
X158176576Y-62742576D01*
X157981631Y-62980118D01*
X157836774Y-63251126D01*
X157747572Y-63545188D01*
X157725000Y-63774365D01*
X156475000Y-63774365D01*
X156475000Y-63774364D01*
X156452428Y-63545187D01*
X156363226Y-63251125D01*
X156218369Y-62980117D01*
X156023424Y-62742576D01*
X155785882Y-62547631D01*
X155514874Y-62402774D01*
X155220812Y-62313572D01*
X154915000Y-62283452D01*
X154609187Y-62313572D01*
X154315125Y-62402774D01*
X154044117Y-62547631D01*
X153806576Y-62742576D01*
X153611631Y-62980118D01*
X153466774Y-63251126D01*
X153377572Y-63545188D01*
X153355000Y-63774365D01*
X150165208Y-63774365D01*
X150195226Y-63701898D01*
X150235000Y-63501939D01*
X150235000Y-63298061D01*
X150195226Y-63098102D01*
X150117205Y-62909744D01*
X150003937Y-62740226D01*
X149859774Y-62596063D01*
X149690256Y-62482795D01*
X149501898Y-62404774D01*
X149301939Y-62365000D01*
X149098061Y-62365000D01*
X148898102Y-62404774D01*
X148709744Y-62482795D01*
X148540226Y-62596063D01*
X148396063Y-62740226D01*
X148346101Y-62815000D01*
X147594365Y-62815000D01*
X147567606Y-62782394D01*
X147520012Y-62743334D01*
X147560284Y-62710284D01*
X147667618Y-62579497D01*
X147747375Y-62430283D01*
X147796488Y-62268377D01*
X147813072Y-62100000D01*
X147813072Y-61650000D01*
X147796488Y-61481623D01*
X147747375Y-61319717D01*
X147669300Y-61173649D01*
X147705537Y-61129494D01*
X147764502Y-61019180D01*
X147800812Y-60899482D01*
X147813072Y-60775000D01*
X147810000Y-60610750D01*
X147651250Y-60452000D01*
X146827000Y-60452000D01*
X146827000Y-60472000D01*
X146573000Y-60472000D01*
X146573000Y-60452000D01*
X145748750Y-60452000D01*
X145590000Y-60610750D01*
X145586928Y-60775000D01*
X145599188Y-60899482D01*
X145635498Y-61019180D01*
X145694463Y-61129494D01*
X145730700Y-61173649D01*
X145652625Y-61319717D01*
X145603512Y-61481623D01*
X145586928Y-61650000D01*
X145586928Y-62100000D01*
X145603512Y-62268377D01*
X145652625Y-62430283D01*
X145732382Y-62579497D01*
X145839716Y-62710284D01*
X145879988Y-62743334D01*
X145832394Y-62782394D01*
X145728169Y-62909392D01*
X145650722Y-63054284D01*
X145603031Y-63211500D01*
X145586928Y-63375000D01*
X145586928Y-63775000D01*
X145603031Y-63938500D01*
X145650722Y-64095716D01*
X145728169Y-64240608D01*
X145832394Y-64367606D01*
X145871866Y-64400000D01*
X145832394Y-64432394D01*
X145728169Y-64559392D01*
X145650722Y-64704284D01*
X145603031Y-64861500D01*
X145586928Y-65025000D01*
X145586928Y-65425000D01*
X145603031Y-65588500D01*
X145650722Y-65745716D01*
X145728169Y-65890608D01*
X145832394Y-66017606D01*
X145871866Y-66050000D01*
X145832394Y-66082394D01*
X145728169Y-66209392D01*
X145650722Y-66354284D01*
X145603031Y-66511500D01*
X145586928Y-66675000D01*
X145586928Y-66913270D01*
X143841264Y-68658935D01*
X143794187Y-68663572D01*
X143500125Y-68752774D01*
X143229117Y-68897631D01*
X142991576Y-69092576D01*
X142796631Y-69330118D01*
X142651774Y-69601126D01*
X142562572Y-69895188D01*
X142540000Y-70124365D01*
X142540000Y-71475636D01*
X142562572Y-71704813D01*
X142651774Y-71998875D01*
X142796632Y-72269883D01*
X142991577Y-72507424D01*
X143229118Y-72702369D01*
X143500126Y-72847226D01*
X143794188Y-72936428D01*
X143830455Y-72940000D01*
X139227002Y-72940000D01*
X139227002Y-72794484D01*
X139468664Y-72914812D01*
X139579655Y-72888853D01*
X139861094Y-72766650D01*
X140113285Y-72591889D01*
X140326536Y-72371286D01*
X140492652Y-72113319D01*
X140605249Y-71827901D01*
X140660000Y-71526000D01*
X140660000Y-70927000D01*
X139227000Y-70927000D01*
X139227000Y-70947000D01*
X138973000Y-70947000D01*
X138973000Y-70927000D01*
X137540000Y-70927000D01*
X137540000Y-71526000D01*
X137594751Y-71827901D01*
X137707348Y-72113319D01*
X137873464Y-72371286D01*
X138086715Y-72591889D01*
X138338906Y-72766650D01*
X138620345Y-72888853D01*
X138731336Y-72914812D01*
X138972998Y-72794484D01*
X138972998Y-72940000D01*
X136543477Y-72940000D01*
X136500000Y-72935718D01*
X136456524Y-72940000D01*
X132085000Y-72940000D01*
X132085000Y-70074000D01*
X137540000Y-70074000D01*
X137540000Y-70673000D01*
X138973000Y-70673000D01*
X138973000Y-68805517D01*
X139227000Y-68805517D01*
X139227000Y-70673000D01*
X140660000Y-70673000D01*
X140660000Y-70074000D01*
X140605249Y-69772099D01*
X140492652Y-69486681D01*
X140326536Y-69228714D01*
X140113285Y-69008111D01*
X139861094Y-68833350D01*
X139579655Y-68711147D01*
X139468664Y-68685188D01*
X139227000Y-68805517D01*
X138973000Y-68805517D01*
X138731336Y-68685188D01*
X138620345Y-68711147D01*
X138338906Y-68833350D01*
X138086715Y-69008111D01*
X137873464Y-69228714D01*
X137707348Y-69486681D01*
X137594751Y-69772099D01*
X137540000Y-70074000D01*
X132085000Y-70074000D01*
X132085000Y-69296411D01*
X132171831Y-69190608D01*
X132249278Y-69045716D01*
X132296969Y-68888500D01*
X132313072Y-68725000D01*
X132313072Y-68325000D01*
X132296969Y-68161500D01*
X132249278Y-68004284D01*
X132171831Y-67859392D01*
X132067606Y-67732394D01*
X132028134Y-67700000D01*
X132067606Y-67667606D01*
X132171831Y-67540608D01*
X132249278Y-67395716D01*
X132296969Y-67238500D01*
X132313072Y-67075000D01*
X132313072Y-66675000D01*
X132296969Y-66511500D01*
X132249278Y-66354284D01*
X132171831Y-66209392D01*
X132067606Y-66082394D01*
X132028134Y-66050000D01*
X132067606Y-66017606D01*
X132171831Y-65890608D01*
X132249278Y-65745716D01*
X132296969Y-65588500D01*
X132313072Y-65425000D01*
X132313072Y-65025000D01*
X132296969Y-64861500D01*
X132249278Y-64704284D01*
X132171831Y-64559392D01*
X132067606Y-64432394D01*
X132028134Y-64400000D01*
X132067606Y-64367606D01*
X132094365Y-64335000D01*
X132886715Y-64335000D01*
X133009744Y-64417205D01*
X133198102Y-64495226D01*
X133398061Y-64535000D01*
X133601939Y-64535000D01*
X133801898Y-64495226D01*
X133990256Y-64417205D01*
X134159774Y-64303937D01*
X134303937Y-64159774D01*
X134417205Y-63990256D01*
X134495226Y-63801898D01*
X134500702Y-63774365D01*
X137855000Y-63774365D01*
X137855000Y-65125636D01*
X137877572Y-65354813D01*
X137966774Y-65648875D01*
X138111632Y-65919883D01*
X138306577Y-66157424D01*
X138544118Y-66352369D01*
X138815126Y-66497226D01*
X139109188Y-66586428D01*
X139415000Y-66616548D01*
X139720813Y-66586428D01*
X140014875Y-66497226D01*
X140285883Y-66352369D01*
X140523424Y-66157424D01*
X140718369Y-65919883D01*
X140863226Y-65648875D01*
X140952428Y-65354813D01*
X140975000Y-65125636D01*
X140975000Y-63774365D01*
X142225000Y-63774365D01*
X142225000Y-65125636D01*
X142247572Y-65354813D01*
X142336774Y-65648875D01*
X142481632Y-65919883D01*
X142676577Y-66157424D01*
X142914118Y-66352369D01*
X143185126Y-66497226D01*
X143479188Y-66586428D01*
X143785000Y-66616548D01*
X144090813Y-66586428D01*
X144384875Y-66497226D01*
X144655883Y-66352369D01*
X144893424Y-66157424D01*
X145088369Y-65919883D01*
X145233226Y-65648875D01*
X145322428Y-65354813D01*
X145345000Y-65125636D01*
X145345000Y-63774364D01*
X145322428Y-63545187D01*
X145233226Y-63251125D01*
X145088369Y-62980117D01*
X144893424Y-62742576D01*
X144655882Y-62547631D01*
X144384874Y-62402774D01*
X144090812Y-62313572D01*
X143785000Y-62283452D01*
X143479187Y-62313572D01*
X143185125Y-62402774D01*
X142914117Y-62547631D01*
X142676576Y-62742576D01*
X142481631Y-62980118D01*
X142336774Y-63251126D01*
X142247572Y-63545188D01*
X142225000Y-63774365D01*
X140975000Y-63774365D01*
X140975000Y-63774364D01*
X140952428Y-63545187D01*
X140863226Y-63251125D01*
X140718369Y-62980117D01*
X140523424Y-62742576D01*
X140285882Y-62547631D01*
X140014874Y-62402774D01*
X139720812Y-62313572D01*
X139415000Y-62283452D01*
X139109187Y-62313572D01*
X138815125Y-62402774D01*
X138544117Y-62547631D01*
X138306576Y-62742576D01*
X138111631Y-62980118D01*
X137966774Y-63251126D01*
X137877572Y-63545188D01*
X137855000Y-63774365D01*
X134500702Y-63774365D01*
X134535000Y-63601939D01*
X134535000Y-63398061D01*
X134495226Y-63198102D01*
X134417205Y-63009744D01*
X134303937Y-62840226D01*
X134159774Y-62696063D01*
X133990256Y-62582795D01*
X133801898Y-62504774D01*
X133601939Y-62465000D01*
X133398061Y-62465000D01*
X133198102Y-62504774D01*
X133009744Y-62582795D01*
X132840226Y-62696063D01*
X132721289Y-62815000D01*
X132094365Y-62815000D01*
X132067606Y-62782394D01*
X132020012Y-62743334D01*
X132060284Y-62710284D01*
X132167618Y-62579497D01*
X132247375Y-62430283D01*
X132296488Y-62268377D01*
X132313072Y-62100000D01*
X132313072Y-61650000D01*
X132296488Y-61481623D01*
X132247375Y-61319717D01*
X132169300Y-61173649D01*
X132205537Y-61129494D01*
X132264502Y-61019180D01*
X132300812Y-60899482D01*
X132313072Y-60775000D01*
X132310000Y-60610750D01*
X132151250Y-60452000D01*
X131327000Y-60452000D01*
X131327000Y-60472000D01*
X131073000Y-60472000D01*
X131073000Y-60452000D01*
X130248750Y-60452000D01*
X130090000Y-60610750D01*
X130086928Y-60775000D01*
X130099188Y-60899482D01*
X130135498Y-61019180D01*
X130194463Y-61129494D01*
X130230700Y-61173649D01*
X130152625Y-61319717D01*
X130103512Y-61481623D01*
X130086928Y-61650000D01*
X130086928Y-62100000D01*
X130103512Y-62268377D01*
X130152625Y-62430283D01*
X130232382Y-62579497D01*
X130339716Y-62710284D01*
X130379988Y-62743334D01*
X130332394Y-62782394D01*
X130228169Y-62909392D01*
X130150722Y-63054284D01*
X130103031Y-63211500D01*
X130086928Y-63375000D01*
X130086928Y-63775000D01*
X130103031Y-63938500D01*
X130150722Y-64095716D01*
X130228169Y-64240608D01*
X130332394Y-64367606D01*
X130371866Y-64400000D01*
X130332394Y-64432394D01*
X130228169Y-64559392D01*
X130150722Y-64704284D01*
X130103031Y-64861500D01*
X130086928Y-65025000D01*
X130086928Y-65425000D01*
X130103031Y-65588500D01*
X130150722Y-65745716D01*
X130228169Y-65890608D01*
X130332394Y-66017606D01*
X130371866Y-66050000D01*
X130332394Y-66082394D01*
X130228169Y-66209392D01*
X130150722Y-66354284D01*
X130103031Y-66511500D01*
X130086928Y-66675000D01*
X130086928Y-66913270D01*
X128341264Y-68658935D01*
X128294187Y-68663572D01*
X128000125Y-68752774D01*
X127729117Y-68897631D01*
X127491576Y-69092576D01*
X127296631Y-69330118D01*
X127151774Y-69601126D01*
X127062572Y-69895188D01*
X127040000Y-70124365D01*
X127040000Y-71475636D01*
X127062572Y-71704813D01*
X127151774Y-71998875D01*
X127296632Y-72269883D01*
X127491577Y-72507424D01*
X127729118Y-72702369D01*
X128000126Y-72847226D01*
X128294188Y-72936428D01*
X128330455Y-72940000D01*
X123727002Y-72940000D01*
X123727002Y-72794484D01*
X123968664Y-72914812D01*
X124079655Y-72888853D01*
X124361094Y-72766650D01*
X124613285Y-72591889D01*
X124826536Y-72371286D01*
X124992652Y-72113319D01*
X125105249Y-71827901D01*
X125160000Y-71526000D01*
X125160000Y-70927000D01*
X123727000Y-70927000D01*
X123727000Y-70947000D01*
X123473000Y-70947000D01*
X123473000Y-70927000D01*
X122040000Y-70927000D01*
X122040000Y-71526000D01*
X122094751Y-71827901D01*
X122207348Y-72113319D01*
X122373464Y-72371286D01*
X122586715Y-72591889D01*
X122838906Y-72766650D01*
X123120345Y-72888853D01*
X123231336Y-72914812D01*
X123472998Y-72794484D01*
X123472998Y-72940000D01*
X123018469Y-72940000D01*
X122975000Y-72935719D01*
X122931531Y-72940000D01*
X122931523Y-72940000D01*
X122801510Y-72952805D01*
X122634687Y-73003411D01*
X122485016Y-73083411D01*
X122480941Y-73085589D01*
X122379953Y-73168468D01*
X122379951Y-73168470D01*
X122346183Y-73196183D01*
X122318470Y-73229951D01*
X120404951Y-75143471D01*
X120371184Y-75171183D01*
X120343471Y-75204951D01*
X120343468Y-75204954D01*
X120260590Y-75305941D01*
X120178412Y-75459687D01*
X120127805Y-75626510D01*
X120110719Y-75800000D01*
X120115001Y-75843479D01*
X120115000Y-78403588D01*
X120028169Y-78509392D01*
X119950722Y-78654284D01*
X119903031Y-78811500D01*
X119886928Y-78975000D01*
X113875107Y-78975000D01*
X113746632Y-78846525D01*
X113572240Y-78730000D01*
X113746632Y-78613475D01*
X113953475Y-78406632D01*
X114115990Y-78163411D01*
X114227932Y-77893158D01*
X114285000Y-77606260D01*
X114285000Y-77313740D01*
X114227932Y-77026842D01*
X114115990Y-76756589D01*
X113953475Y-76513368D01*
X113746632Y-76306525D01*
X113572240Y-76190000D01*
X113746632Y-76073475D01*
X113953475Y-75866632D01*
X114115990Y-75623411D01*
X114227932Y-75353158D01*
X114285000Y-75066260D01*
X114285000Y-74773740D01*
X114227932Y-74486842D01*
X114115990Y-74216589D01*
X113953475Y-73973368D01*
X113746632Y-73766525D01*
X113572240Y-73650000D01*
X113746632Y-73533475D01*
X113953475Y-73326632D01*
X114115990Y-73083411D01*
X114227932Y-72813158D01*
X114285000Y-72526260D01*
X114285000Y-72233740D01*
X114227932Y-71946842D01*
X114115990Y-71676589D01*
X113953475Y-71433368D01*
X113746632Y-71226525D01*
X113572240Y-71110000D01*
X113746632Y-70993475D01*
X113953475Y-70786632D01*
X114115990Y-70543411D01*
X114227932Y-70273158D01*
X114267547Y-70074000D01*
X122040000Y-70074000D01*
X122040000Y-70673000D01*
X123473000Y-70673000D01*
X123473000Y-68805517D01*
X123727000Y-68805517D01*
X123727000Y-70673000D01*
X125160000Y-70673000D01*
X125160000Y-70074000D01*
X125105249Y-69772099D01*
X124992652Y-69486681D01*
X124826536Y-69228714D01*
X124613285Y-69008111D01*
X124361094Y-68833350D01*
X124079655Y-68711147D01*
X123968664Y-68685188D01*
X123727000Y-68805517D01*
X123473000Y-68805517D01*
X123231336Y-68685188D01*
X123120345Y-68711147D01*
X122838906Y-68833350D01*
X122586715Y-69008111D01*
X122373464Y-69228714D01*
X122207348Y-69486681D01*
X122094751Y-69772099D01*
X122040000Y-70074000D01*
X114267547Y-70074000D01*
X114285000Y-69986260D01*
X114285000Y-69693740D01*
X114227932Y-69406842D01*
X114115990Y-69136589D01*
X113953475Y-68893368D01*
X113821620Y-68761513D01*
X113894180Y-68739502D01*
X114004494Y-68680537D01*
X114101185Y-68601185D01*
X114180537Y-68504494D01*
X114239502Y-68394180D01*
X114275812Y-68274482D01*
X114288072Y-68150000D01*
X114288072Y-66450000D01*
X114275812Y-66325518D01*
X114239502Y-66205820D01*
X114180537Y-66095506D01*
X114101185Y-65998815D01*
X114004494Y-65919463D01*
X113894180Y-65860498D01*
X113774482Y-65824188D01*
X113650000Y-65811928D01*
X111950000Y-65811928D01*
X111825518Y-65824188D01*
X111705820Y-65860498D01*
X111595506Y-65919463D01*
X111498815Y-65998815D01*
X111419463Y-66095506D01*
X111360498Y-66205820D01*
X111324188Y-66325518D01*
X111311928Y-66450000D01*
X110460000Y-66450000D01*
X110460000Y-63774365D01*
X122355000Y-63774365D01*
X122355000Y-65125636D01*
X122377572Y-65354813D01*
X122466774Y-65648875D01*
X122611632Y-65919883D01*
X122806577Y-66157424D01*
X123044118Y-66352369D01*
X123315126Y-66497226D01*
X123609188Y-66586428D01*
X123915000Y-66616548D01*
X124220813Y-66586428D01*
X124514875Y-66497226D01*
X124785883Y-66352369D01*
X125023424Y-66157424D01*
X125218369Y-65919883D01*
X125363226Y-65648875D01*
X125452428Y-65354813D01*
X125475000Y-65125636D01*
X125475000Y-63774365D01*
X126725000Y-63774365D01*
X126725000Y-65125636D01*
X126747572Y-65354813D01*
X126836774Y-65648875D01*
X126981632Y-65919883D01*
X127176577Y-66157424D01*
X127414118Y-66352369D01*
X127685126Y-66497226D01*
X127979188Y-66586428D01*
X128285000Y-66616548D01*
X128590813Y-66586428D01*
X128884875Y-66497226D01*
X129155883Y-66352369D01*
X129393424Y-66157424D01*
X129588369Y-65919883D01*
X129733226Y-65648875D01*
X129822428Y-65354813D01*
X129845000Y-65125636D01*
X129845000Y-63774364D01*
X129822428Y-63545187D01*
X129733226Y-63251125D01*
X129588369Y-62980117D01*
X129393424Y-62742576D01*
X129155882Y-62547631D01*
X128884874Y-62402774D01*
X128590812Y-62313572D01*
X128285000Y-62283452D01*
X127979187Y-62313572D01*
X127685125Y-62402774D01*
X127414117Y-62547631D01*
X127176576Y-62742576D01*
X126981631Y-62980118D01*
X126836774Y-63251126D01*
X126747572Y-63545188D01*
X126725000Y-63774365D01*
X125475000Y-63774365D01*
X125475000Y-63774364D01*
X125452428Y-63545187D01*
X125363226Y-63251125D01*
X125218369Y-62980117D01*
X125023424Y-62742576D01*
X124785882Y-62547631D01*
X124514874Y-62402774D01*
X124220812Y-62313572D01*
X123915000Y-62283452D01*
X123609187Y-62313572D01*
X123315125Y-62402774D01*
X123044117Y-62547631D01*
X122806576Y-62742576D01*
X122611631Y-62980118D01*
X122466774Y-63251126D01*
X122377572Y-63545188D01*
X122355000Y-63774365D01*
X110460000Y-63774365D01*
X110460000Y-57624365D01*
X122040000Y-57624365D01*
X122040000Y-58975636D01*
X122062572Y-59204813D01*
X122151774Y-59498875D01*
X122296632Y-59769883D01*
X122491577Y-60007424D01*
X122729118Y-60202369D01*
X123000126Y-60347226D01*
X123294188Y-60436428D01*
X123600000Y-60466548D01*
X123905813Y-60436428D01*
X124199875Y-60347226D01*
X124470883Y-60202369D01*
X124708424Y-60007424D01*
X124903369Y-59769883D01*
X125048226Y-59498875D01*
X125137428Y-59204813D01*
X125160000Y-58975636D01*
X125160000Y-57624365D01*
X127040000Y-57624365D01*
X127040000Y-58975636D01*
X127062572Y-59204813D01*
X127151774Y-59498875D01*
X127296632Y-59769883D01*
X127491577Y-60007424D01*
X127729118Y-60202369D01*
X128000126Y-60347226D01*
X128294188Y-60436428D01*
X128600000Y-60466548D01*
X128905813Y-60436428D01*
X129199875Y-60347226D01*
X129470883Y-60202369D01*
X129708424Y-60007424D01*
X129817101Y-59875000D01*
X130086928Y-59875000D01*
X130090000Y-60039250D01*
X130248750Y-60198000D01*
X131073000Y-60198000D01*
X131073000Y-59398750D01*
X131327000Y-59398750D01*
X131327000Y-60198000D01*
X132151250Y-60198000D01*
X132310000Y-60039250D01*
X132313072Y-59875000D01*
X132300812Y-59750518D01*
X132264502Y-59630820D01*
X132205537Y-59520506D01*
X132126185Y-59423815D01*
X132029494Y-59344463D01*
X131919180Y-59285498D01*
X131799482Y-59249188D01*
X131675000Y-59236928D01*
X131485750Y-59240000D01*
X131327000Y-59398750D01*
X131073000Y-59398750D01*
X130914250Y-59240000D01*
X130725000Y-59236928D01*
X130600518Y-59249188D01*
X130480820Y-59285498D01*
X130370506Y-59344463D01*
X130273815Y-59423815D01*
X130194463Y-59520506D01*
X130135498Y-59630820D01*
X130099188Y-59750518D01*
X130086928Y-59875000D01*
X129817101Y-59875000D01*
X129903369Y-59769883D01*
X130048226Y-59498875D01*
X130137428Y-59204813D01*
X130160000Y-58975636D01*
X130160000Y-57624365D01*
X137540000Y-57624365D01*
X137540000Y-58975636D01*
X137562572Y-59204813D01*
X137651774Y-59498875D01*
X137796632Y-59769883D01*
X137991577Y-60007424D01*
X138229118Y-60202369D01*
X138500126Y-60347226D01*
X138794188Y-60436428D01*
X139100000Y-60466548D01*
X139405813Y-60436428D01*
X139699875Y-60347226D01*
X139970883Y-60202369D01*
X140208424Y-60007424D01*
X140403369Y-59769883D01*
X140548226Y-59498875D01*
X140637428Y-59204813D01*
X140660000Y-58975636D01*
X140660000Y-57624365D01*
X142540000Y-57624365D01*
X142540000Y-58975636D01*
X142562572Y-59204813D01*
X142651774Y-59498875D01*
X142796632Y-59769883D01*
X142991577Y-60007424D01*
X143229118Y-60202369D01*
X143500126Y-60347226D01*
X143794188Y-60436428D01*
X144100000Y-60466548D01*
X144405813Y-60436428D01*
X144699875Y-60347226D01*
X144970883Y-60202369D01*
X145208424Y-60007424D01*
X145317101Y-59875000D01*
X145586928Y-59875000D01*
X145590000Y-60039250D01*
X145748750Y-60198000D01*
X146573000Y-60198000D01*
X146573000Y-59398750D01*
X146827000Y-59398750D01*
X146827000Y-60198000D01*
X147651250Y-60198000D01*
X147810000Y-60039250D01*
X147813072Y-59875000D01*
X147800812Y-59750518D01*
X147764502Y-59630820D01*
X147705537Y-59520506D01*
X147626185Y-59423815D01*
X147529494Y-59344463D01*
X147419180Y-59285498D01*
X147299482Y-59249188D01*
X147175000Y-59236928D01*
X146985750Y-59240000D01*
X146827000Y-59398750D01*
X146573000Y-59398750D01*
X146414250Y-59240000D01*
X146225000Y-59236928D01*
X146100518Y-59249188D01*
X145980820Y-59285498D01*
X145870506Y-59344463D01*
X145773815Y-59423815D01*
X145694463Y-59520506D01*
X145635498Y-59630820D01*
X145599188Y-59750518D01*
X145586928Y-59875000D01*
X145317101Y-59875000D01*
X145403369Y-59769883D01*
X145548226Y-59498875D01*
X145637428Y-59204813D01*
X145660000Y-58975636D01*
X145660000Y-57624365D01*
X153040000Y-57624365D01*
X153040000Y-58975636D01*
X153062572Y-59204813D01*
X153151774Y-59498875D01*
X153296632Y-59769883D01*
X153491577Y-60007424D01*
X153729118Y-60202369D01*
X154000126Y-60347226D01*
X154294188Y-60436428D01*
X154600000Y-60466548D01*
X154905813Y-60436428D01*
X155199875Y-60347226D01*
X155470883Y-60202369D01*
X155708424Y-60007424D01*
X155903369Y-59769883D01*
X156048226Y-59498875D01*
X156137428Y-59204813D01*
X156160000Y-58975636D01*
X156160000Y-57624365D01*
X158040000Y-57624365D01*
X158040000Y-58975636D01*
X158062572Y-59204813D01*
X158151774Y-59498875D01*
X158296632Y-59769883D01*
X158491577Y-60007424D01*
X158729118Y-60202369D01*
X159000126Y-60347226D01*
X159294188Y-60436428D01*
X159600000Y-60466548D01*
X159905813Y-60436428D01*
X160199875Y-60347226D01*
X160470883Y-60202369D01*
X160708424Y-60007424D01*
X160817101Y-59875000D01*
X161086928Y-59875000D01*
X161090000Y-60039250D01*
X161248750Y-60198000D01*
X162073000Y-60198000D01*
X162073000Y-59398750D01*
X162327000Y-59398750D01*
X162327000Y-60198000D01*
X163151250Y-60198000D01*
X163310000Y-60039250D01*
X163313072Y-59875000D01*
X163300812Y-59750518D01*
X163264502Y-59630820D01*
X163205537Y-59520506D01*
X163126185Y-59423815D01*
X163029494Y-59344463D01*
X162919180Y-59285498D01*
X162799482Y-59249188D01*
X162675000Y-59236928D01*
X162485750Y-59240000D01*
X162327000Y-59398750D01*
X162073000Y-59398750D01*
X161914250Y-59240000D01*
X161725000Y-59236928D01*
X161600518Y-59249188D01*
X161480820Y-59285498D01*
X161370506Y-59344463D01*
X161273815Y-59423815D01*
X161194463Y-59520506D01*
X161135498Y-59630820D01*
X161099188Y-59750518D01*
X161086928Y-59875000D01*
X160817101Y-59875000D01*
X160903369Y-59769883D01*
X161048226Y-59498875D01*
X161137428Y-59204813D01*
X161160000Y-58975636D01*
X161160000Y-57624364D01*
X161137428Y-57395187D01*
X161048226Y-57101125D01*
X160903369Y-56830117D01*
X160766310Y-56663110D01*
X166958524Y-56663110D01*
X167079845Y-56893000D01*
X168273000Y-56893000D01*
X168273000Y-55699186D01*
X168527000Y-55699186D01*
X168527000Y-56893000D01*
X169720155Y-56893000D01*
X169841476Y-56663110D01*
X169796825Y-56515901D01*
X169671641Y-56253080D01*
X169497588Y-56019731D01*
X169281355Y-55824822D01*
X169031252Y-55675843D01*
X168756891Y-55578519D01*
X168527000Y-55699186D01*
X168273000Y-55699186D01*
X168043109Y-55578519D01*
X167768748Y-55675843D01*
X167518645Y-55824822D01*
X167302412Y-56019731D01*
X167128359Y-56253080D01*
X167003175Y-56515901D01*
X166958524Y-56663110D01*
X160766310Y-56663110D01*
X160708424Y-56592576D01*
X160470882Y-56397631D01*
X160199874Y-56252774D01*
X159905812Y-56163572D01*
X159600000Y-56133452D01*
X159294187Y-56163572D01*
X159000125Y-56252774D01*
X158729117Y-56397631D01*
X158491576Y-56592576D01*
X158296631Y-56830118D01*
X158151774Y-57101126D01*
X158062572Y-57395188D01*
X158040000Y-57624365D01*
X156160000Y-57624365D01*
X156160000Y-57624364D01*
X156137428Y-57395187D01*
X156048226Y-57101125D01*
X155903369Y-56830117D01*
X155708424Y-56592576D01*
X155470882Y-56397631D01*
X155199874Y-56252774D01*
X154905812Y-56163572D01*
X154600000Y-56133452D01*
X154294187Y-56163572D01*
X154000125Y-56252774D01*
X153729117Y-56397631D01*
X153491576Y-56592576D01*
X153296631Y-56830118D01*
X153151774Y-57101126D01*
X153062572Y-57395188D01*
X153040000Y-57624365D01*
X145660000Y-57624365D01*
X145660000Y-57624364D01*
X145637428Y-57395187D01*
X145548226Y-57101125D01*
X145403369Y-56830117D01*
X145208424Y-56592576D01*
X144970882Y-56397631D01*
X144699874Y-56252774D01*
X144405812Y-56163572D01*
X144100000Y-56133452D01*
X143794187Y-56163572D01*
X143500125Y-56252774D01*
X143229117Y-56397631D01*
X142991576Y-56592576D01*
X142796631Y-56830118D01*
X142651774Y-57101126D01*
X142562572Y-57395188D01*
X142540000Y-57624365D01*
X140660000Y-57624365D01*
X140660000Y-57624364D01*
X140637428Y-57395187D01*
X140548226Y-57101125D01*
X140403369Y-56830117D01*
X140208424Y-56592576D01*
X139970882Y-56397631D01*
X139699874Y-56252774D01*
X139405812Y-56163572D01*
X139100000Y-56133452D01*
X138794187Y-56163572D01*
X138500125Y-56252774D01*
X138229117Y-56397631D01*
X137991576Y-56592576D01*
X137796631Y-56830118D01*
X137651774Y-57101126D01*
X137562572Y-57395188D01*
X137540000Y-57624365D01*
X130160000Y-57624365D01*
X130160000Y-57624364D01*
X130137428Y-57395187D01*
X130048226Y-57101125D01*
X129903369Y-56830117D01*
X129708424Y-56592576D01*
X129470882Y-56397631D01*
X129199874Y-56252774D01*
X128905812Y-56163572D01*
X128600000Y-56133452D01*
X128294187Y-56163572D01*
X128000125Y-56252774D01*
X127729117Y-56397631D01*
X127491576Y-56592576D01*
X127296631Y-56830118D01*
X127151774Y-57101126D01*
X127062572Y-57395188D01*
X127040000Y-57624365D01*
X125160000Y-57624365D01*
X125160000Y-57624364D01*
X125137428Y-57395187D01*
X125048226Y-57101125D01*
X124903369Y-56830117D01*
X124708424Y-56592576D01*
X124470882Y-56397631D01*
X124199874Y-56252774D01*
X123905812Y-56163572D01*
X123600000Y-56133452D01*
X123294187Y-56163572D01*
X123000125Y-56252774D01*
X122729117Y-56397631D01*
X122491576Y-56592576D01*
X122296631Y-56830118D01*
X122151774Y-57101126D01*
X122062572Y-57395188D01*
X122040000Y-57624365D01*
X110460000Y-57624365D01*
X110460000Y-49114344D01*
X111415000Y-49114344D01*
X111415000Y-49485656D01*
X111487439Y-49849834D01*
X111629534Y-50192882D01*
X111835825Y-50501618D01*
X112098382Y-50764175D01*
X112407118Y-50970466D01*
X112750166Y-51112561D01*
X113114344Y-51185000D01*
X113485656Y-51185000D01*
X113849834Y-51112561D01*
X114192882Y-50970466D01*
X114501618Y-50764175D01*
X114764175Y-50501618D01*
X114970466Y-50192882D01*
X115112561Y-49849834D01*
X115185000Y-49485656D01*
X115185000Y-49114344D01*
X170315000Y-49114344D01*
X170315000Y-49485656D01*
X170387439Y-49849834D01*
X170529534Y-50192882D01*
X170735825Y-50501618D01*
X170998382Y-50764175D01*
X171307118Y-50970466D01*
X171650166Y-51112561D01*
X172014344Y-51185000D01*
X172385656Y-51185000D01*
X172749834Y-51112561D01*
X173092882Y-50970466D01*
X173401618Y-50764175D01*
X173664175Y-50501618D01*
X173870466Y-50192882D01*
X174012561Y-49849834D01*
X174085000Y-49485656D01*
X174085000Y-49114344D01*
X174012561Y-48750166D01*
X173870466Y-48407118D01*
X173664175Y-48098382D01*
X173401618Y-47835825D01*
X173092882Y-47629534D01*
X172749834Y-47487439D01*
X172385656Y-47415000D01*
X172014344Y-47415000D01*
X171650166Y-47487439D01*
X171307118Y-47629534D01*
X170998382Y-47835825D01*
X170735825Y-48098382D01*
X170529534Y-48407118D01*
X170387439Y-48750166D01*
X170315000Y-49114344D01*
X115185000Y-49114344D01*
X115112561Y-48750166D01*
X114970466Y-48407118D01*
X114764175Y-48098382D01*
X114501618Y-47835825D01*
X114192882Y-47629534D01*
X113849834Y-47487439D01*
X113485656Y-47415000D01*
X113114344Y-47415000D01*
X112750166Y-47487439D01*
X112407118Y-47629534D01*
X112098382Y-47835825D01*
X111835825Y-48098382D01*
X111629534Y-48407118D01*
X111487439Y-48750166D01*
X111415000Y-49114344D01*
X110460000Y-49114344D01*
X110460000Y-46460000D01*
X175040000Y-46460000D01*
X175040001Y-99840000D01*
G37*
G04 #@! TD.AperFunction*
D16*
X127373464Y-74928714D02*
X127207348Y-75186681D01*
X127094751Y-75472099D01*
X127040000Y-75774000D01*
X127040000Y-76373000D01*
X128473000Y-76373000D01*
X128473000Y-76353000D01*
X128727000Y-76353000D01*
X128727000Y-76373000D01*
X130160000Y-76373000D01*
X130160000Y-75774000D01*
X130105249Y-75472099D01*
X129992652Y-75186681D01*
X129826536Y-74928714D01*
X129615111Y-74710000D01*
X135615001Y-74710000D01*
X135615000Y-78403588D01*
X135528169Y-78509392D01*
X135450722Y-78654284D01*
X135403031Y-78811500D01*
X135386928Y-78975000D01*
X135386928Y-79375000D01*
X135403031Y-79538500D01*
X135450722Y-79695716D01*
X135528169Y-79840608D01*
X135632394Y-79967606D01*
X135671866Y-80000000D01*
X135632394Y-80032394D01*
X135528169Y-80159392D01*
X135450722Y-80304284D01*
X135403031Y-80461500D01*
X135386928Y-80625000D01*
X135386928Y-81025000D01*
X135403031Y-81188500D01*
X135450722Y-81345716D01*
X135528169Y-81490608D01*
X135617945Y-81600000D01*
X135528169Y-81709392D01*
X135450722Y-81854284D01*
X135403031Y-82011500D01*
X135386928Y-82175000D01*
X135386928Y-82575000D01*
X135403031Y-82738500D01*
X135450722Y-82895716D01*
X135528169Y-83040608D01*
X135632394Y-83167606D01*
X135671866Y-83200000D01*
X135632394Y-83232394D01*
X135528169Y-83359392D01*
X135450722Y-83504284D01*
X135403031Y-83661500D01*
X135386928Y-83825000D01*
X135386928Y-84225000D01*
X135403031Y-84388500D01*
X135450722Y-84545716D01*
X135528169Y-84690608D01*
X135624611Y-84808122D01*
X135532382Y-84920503D01*
X135452625Y-85069717D01*
X135403512Y-85231623D01*
X135386928Y-85400000D01*
X135386928Y-85850000D01*
X135403512Y-86018377D01*
X135452625Y-86180283D01*
X135530700Y-86326351D01*
X135494463Y-86370506D01*
X135435498Y-86480820D01*
X135399188Y-86600518D01*
X135386928Y-86725000D01*
X135390000Y-86889250D01*
X135548750Y-87048000D01*
X136373000Y-87048000D01*
X136373000Y-87028000D01*
X136627000Y-87028000D01*
X136627000Y-87048000D01*
X137451250Y-87048000D01*
X137610000Y-86889250D01*
X137613072Y-86725000D01*
X137600812Y-86600518D01*
X137564502Y-86480820D01*
X137505537Y-86370506D01*
X137469300Y-86326351D01*
X137547375Y-86180283D01*
X137555080Y-86154882D01*
X138404230Y-87004031D01*
X138229118Y-87097631D01*
X137991577Y-87292576D01*
X137796632Y-87530117D01*
X137651774Y-87801125D01*
X137562572Y-88095187D01*
X137540000Y-88324364D01*
X137540000Y-89675635D01*
X137562572Y-89904812D01*
X137651774Y-90198874D01*
X137796631Y-90469882D01*
X137991576Y-90707424D01*
X138092207Y-90790010D01*
X129607792Y-90790010D01*
X129708424Y-90707424D01*
X129903369Y-90469883D01*
X130048226Y-90198875D01*
X130137428Y-89904813D01*
X130160000Y-89675636D01*
X130160000Y-88324364D01*
X130137428Y-88095187D01*
X130048226Y-87801125D01*
X129954086Y-87625000D01*
X135386928Y-87625000D01*
X135399188Y-87749482D01*
X135435498Y-87869180D01*
X135494463Y-87979494D01*
X135573815Y-88076185D01*
X135670506Y-88155537D01*
X135780820Y-88214502D01*
X135900518Y-88250812D01*
X136025000Y-88263072D01*
X136214250Y-88260000D01*
X136373000Y-88101250D01*
X136373000Y-87302000D01*
X136627000Y-87302000D01*
X136627000Y-88101250D01*
X136785750Y-88260000D01*
X136975000Y-88263072D01*
X137099482Y-88250812D01*
X137219180Y-88214502D01*
X137329494Y-88155537D01*
X137426185Y-88076185D01*
X137505537Y-87979494D01*
X137564502Y-87869180D01*
X137600812Y-87749482D01*
X137613072Y-87625000D01*
X137610000Y-87460750D01*
X137451250Y-87302000D01*
X136627000Y-87302000D01*
X136373000Y-87302000D01*
X135548750Y-87302000D01*
X135390000Y-87460750D01*
X135386928Y-87625000D01*
X129954086Y-87625000D01*
X129903369Y-87530117D01*
X129708424Y-87292576D01*
X129470883Y-87097631D01*
X129199875Y-86952774D01*
X128905813Y-86863572D01*
X128600000Y-86833452D01*
X128294188Y-86863572D01*
X128000126Y-86952774D01*
X127729118Y-87097631D01*
X127491577Y-87292576D01*
X127296632Y-87530117D01*
X127151774Y-87801125D01*
X127062572Y-88095187D01*
X127040000Y-88324364D01*
X127040000Y-88990198D01*
X122113072Y-84063271D01*
X122113072Y-83825000D01*
X122096969Y-83661500D01*
X122049278Y-83504284D01*
X121971831Y-83359392D01*
X121867606Y-83232394D01*
X121828134Y-83200000D01*
X121867606Y-83167606D01*
X121971831Y-83040608D01*
X122049278Y-82895716D01*
X122096969Y-82738500D01*
X122113072Y-82575000D01*
X122113072Y-82175000D01*
X122113010Y-82174364D01*
X122355000Y-82174364D01*
X122355000Y-83525635D01*
X122377572Y-83754812D01*
X122466774Y-84048874D01*
X122611631Y-84319882D01*
X122806576Y-84557424D01*
X123044117Y-84752369D01*
X123315125Y-84897226D01*
X123609187Y-84986428D01*
X123915000Y-85016548D01*
X124220812Y-84986428D01*
X124514874Y-84897226D01*
X124785882Y-84752369D01*
X125023424Y-84557424D01*
X125218369Y-84319883D01*
X125363226Y-84048875D01*
X125452428Y-83754813D01*
X125475000Y-83525636D01*
X125475000Y-82174364D01*
X126725000Y-82174364D01*
X126725000Y-83525635D01*
X126747572Y-83754812D01*
X126836774Y-84048874D01*
X126981631Y-84319882D01*
X127176576Y-84557424D01*
X127414117Y-84752369D01*
X127685125Y-84897226D01*
X127979187Y-84986428D01*
X128285000Y-85016548D01*
X128590812Y-84986428D01*
X128884874Y-84897226D01*
X129155882Y-84752369D01*
X129393424Y-84557424D01*
X129588369Y-84319883D01*
X129733226Y-84048875D01*
X129822428Y-83754813D01*
X129845000Y-83525636D01*
X129845000Y-82174364D01*
X129822428Y-81945187D01*
X129733226Y-81651125D01*
X129588369Y-81380117D01*
X129393424Y-81142576D01*
X129155883Y-80947631D01*
X128884875Y-80802774D01*
X128590813Y-80713572D01*
X128285000Y-80683452D01*
X127979188Y-80713572D01*
X127685126Y-80802774D01*
X127414118Y-80947631D01*
X127176577Y-81142576D01*
X126981632Y-81380117D01*
X126836774Y-81651125D01*
X126747572Y-81945187D01*
X126725000Y-82174364D01*
X125475000Y-82174364D01*
X125452428Y-81945187D01*
X125363226Y-81651125D01*
X125218369Y-81380117D01*
X125023424Y-81142576D01*
X124785883Y-80947631D01*
X124514875Y-80802774D01*
X124220813Y-80713572D01*
X123915000Y-80683452D01*
X123609188Y-80713572D01*
X123315126Y-80802774D01*
X123044118Y-80947631D01*
X122806577Y-81142576D01*
X122611632Y-81380117D01*
X122466774Y-81651125D01*
X122377572Y-81945187D01*
X122355000Y-82174364D01*
X122113010Y-82174364D01*
X122096969Y-82011500D01*
X122049278Y-81854284D01*
X121971831Y-81709392D01*
X121882055Y-81600000D01*
X121971831Y-81490608D01*
X122049278Y-81345716D01*
X122096969Y-81188500D01*
X122113072Y-81025000D01*
X122113072Y-80786729D01*
X124111004Y-78788798D01*
X124140001Y-78765001D01*
X124234974Y-78649276D01*
X124305546Y-78517247D01*
X124315142Y-78485614D01*
X124470882Y-78402369D01*
X124708424Y-78207424D01*
X124903369Y-77969883D01*
X125048226Y-77698875D01*
X125137428Y-77404813D01*
X125160000Y-77175636D01*
X125160000Y-76627000D01*
X127040000Y-76627000D01*
X127040000Y-77226000D01*
X127094751Y-77527901D01*
X127207348Y-77813319D01*
X127373464Y-78071286D01*
X127586715Y-78291889D01*
X127838906Y-78466650D01*
X128120345Y-78588853D01*
X128231336Y-78614812D01*
X128473000Y-78494483D01*
X128473000Y-76627000D01*
X128727000Y-76627000D01*
X128727000Y-78494483D01*
X128968664Y-78614812D01*
X129079655Y-78588853D01*
X129361094Y-78466650D01*
X129613285Y-78291889D01*
X129826536Y-78071286D01*
X129992652Y-77813319D01*
X130105249Y-77527901D01*
X130160000Y-77226000D01*
X130160000Y-76627000D01*
X128727000Y-76627000D01*
X128473000Y-76627000D01*
X127040000Y-76627000D01*
X125160000Y-76627000D01*
X125160000Y-75824364D01*
X125137428Y-75595187D01*
X125048226Y-75301125D01*
X124903369Y-75030117D01*
X124708424Y-74792576D01*
X124607805Y-74710000D01*
X127584889Y-74710000D01*
X127373464Y-74928714D01*
G04 #@! TA.AperFunction,Conductor*
D17*
G36*
X127373464Y-74928714D02*
G01*
X127207348Y-75186681D01*
X127094751Y-75472099D01*
X127040000Y-75774000D01*
X127040000Y-76373000D01*
X128473000Y-76373000D01*
X128473000Y-76353000D01*
X128727000Y-76353000D01*
X128727000Y-76373000D01*
X130160000Y-76373000D01*
X130160000Y-75774000D01*
X130105249Y-75472099D01*
X129992652Y-75186681D01*
X129826536Y-74928714D01*
X129615111Y-74710000D01*
X135615001Y-74710000D01*
X135615000Y-78403588D01*
X135528169Y-78509392D01*
X135450722Y-78654284D01*
X135403031Y-78811500D01*
X135386928Y-78975000D01*
X135386928Y-79375000D01*
X135403031Y-79538500D01*
X135450722Y-79695716D01*
X135528169Y-79840608D01*
X135632394Y-79967606D01*
X135671866Y-80000000D01*
X135632394Y-80032394D01*
X135528169Y-80159392D01*
X135450722Y-80304284D01*
X135403031Y-80461500D01*
X135386928Y-80625000D01*
X135386928Y-81025000D01*
X135403031Y-81188500D01*
X135450722Y-81345716D01*
X135528169Y-81490608D01*
X135617945Y-81600000D01*
X135528169Y-81709392D01*
X135450722Y-81854284D01*
X135403031Y-82011500D01*
X135386928Y-82175000D01*
X135386928Y-82575000D01*
X135403031Y-82738500D01*
X135450722Y-82895716D01*
X135528169Y-83040608D01*
X135632394Y-83167606D01*
X135671866Y-83200000D01*
X135632394Y-83232394D01*
X135528169Y-83359392D01*
X135450722Y-83504284D01*
X135403031Y-83661500D01*
X135386928Y-83825000D01*
X135386928Y-84225000D01*
X135403031Y-84388500D01*
X135450722Y-84545716D01*
X135528169Y-84690608D01*
X135624611Y-84808122D01*
X135532382Y-84920503D01*
X135452625Y-85069717D01*
X135403512Y-85231623D01*
X135386928Y-85400000D01*
X135386928Y-85850000D01*
X135403512Y-86018377D01*
X135452625Y-86180283D01*
X135530700Y-86326351D01*
X135494463Y-86370506D01*
X135435498Y-86480820D01*
X135399188Y-86600518D01*
X135386928Y-86725000D01*
X135390000Y-86889250D01*
X135548750Y-87048000D01*
X136373000Y-87048000D01*
X136373000Y-87028000D01*
X136627000Y-87028000D01*
X136627000Y-87048000D01*
X137451250Y-87048000D01*
X137610000Y-86889250D01*
X137613072Y-86725000D01*
X137600812Y-86600518D01*
X137564502Y-86480820D01*
X137505537Y-86370506D01*
X137469300Y-86326351D01*
X137547375Y-86180283D01*
X137555080Y-86154882D01*
X138404230Y-87004031D01*
X138229118Y-87097631D01*
X137991577Y-87292576D01*
X137796632Y-87530117D01*
X137651774Y-87801125D01*
X137562572Y-88095187D01*
X137540000Y-88324364D01*
X137540000Y-89675635D01*
X137562572Y-89904812D01*
X137651774Y-90198874D01*
X137796631Y-90469882D01*
X137991576Y-90707424D01*
X138092207Y-90790010D01*
X129607792Y-90790010D01*
X129708424Y-90707424D01*
X129903369Y-90469883D01*
X130048226Y-90198875D01*
X130137428Y-89904813D01*
X130160000Y-89675636D01*
X130160000Y-88324364D01*
X130137428Y-88095187D01*
X130048226Y-87801125D01*
X129954086Y-87625000D01*
X135386928Y-87625000D01*
X135399188Y-87749482D01*
X135435498Y-87869180D01*
X135494463Y-87979494D01*
X135573815Y-88076185D01*
X135670506Y-88155537D01*
X135780820Y-88214502D01*
X135900518Y-88250812D01*
X136025000Y-88263072D01*
X136214250Y-88260000D01*
X136373000Y-88101250D01*
X136373000Y-87302000D01*
X136627000Y-87302000D01*
X136627000Y-88101250D01*
X136785750Y-88260000D01*
X136975000Y-88263072D01*
X137099482Y-88250812D01*
X137219180Y-88214502D01*
X137329494Y-88155537D01*
X137426185Y-88076185D01*
X137505537Y-87979494D01*
X137564502Y-87869180D01*
X137600812Y-87749482D01*
X137613072Y-87625000D01*
X137610000Y-87460750D01*
X137451250Y-87302000D01*
X136627000Y-87302000D01*
X136373000Y-87302000D01*
X135548750Y-87302000D01*
X135390000Y-87460750D01*
X135386928Y-87625000D01*
X129954086Y-87625000D01*
X129903369Y-87530117D01*
X129708424Y-87292576D01*
X129470883Y-87097631D01*
X129199875Y-86952774D01*
X128905813Y-86863572D01*
X128600000Y-86833452D01*
X128294188Y-86863572D01*
X128000126Y-86952774D01*
X127729118Y-87097631D01*
X127491577Y-87292576D01*
X127296632Y-87530117D01*
X127151774Y-87801125D01*
X127062572Y-88095187D01*
X127040000Y-88324364D01*
X127040000Y-88990198D01*
X122113072Y-84063271D01*
X122113072Y-83825000D01*
X122096969Y-83661500D01*
X122049278Y-83504284D01*
X121971831Y-83359392D01*
X121867606Y-83232394D01*
X121828134Y-83200000D01*
X121867606Y-83167606D01*
X121971831Y-83040608D01*
X122049278Y-82895716D01*
X122096969Y-82738500D01*
X122113072Y-82575000D01*
X122113072Y-82175000D01*
X122113010Y-82174364D01*
X122355000Y-82174364D01*
X122355000Y-83525635D01*
X122377572Y-83754812D01*
X122466774Y-84048874D01*
X122611631Y-84319882D01*
X122806576Y-84557424D01*
X123044117Y-84752369D01*
X123315125Y-84897226D01*
X123609187Y-84986428D01*
X123915000Y-85016548D01*
X124220812Y-84986428D01*
X124514874Y-84897226D01*
X124785882Y-84752369D01*
X125023424Y-84557424D01*
X125218369Y-84319883D01*
X125363226Y-84048875D01*
X125452428Y-83754813D01*
X125475000Y-83525636D01*
X125475000Y-82174364D01*
X126725000Y-82174364D01*
X126725000Y-83525635D01*
X126747572Y-83754812D01*
X126836774Y-84048874D01*
X126981631Y-84319882D01*
X127176576Y-84557424D01*
X127414117Y-84752369D01*
X127685125Y-84897226D01*
X127979187Y-84986428D01*
X128285000Y-85016548D01*
X128590812Y-84986428D01*
X128884874Y-84897226D01*
X129155882Y-84752369D01*
X129393424Y-84557424D01*
X129588369Y-84319883D01*
X129733226Y-84048875D01*
X129822428Y-83754813D01*
X129845000Y-83525636D01*
X129845000Y-82174364D01*
X129822428Y-81945187D01*
X129733226Y-81651125D01*
X129588369Y-81380117D01*
X129393424Y-81142576D01*
X129155883Y-80947631D01*
X128884875Y-80802774D01*
X128590813Y-80713572D01*
X128285000Y-80683452D01*
X127979188Y-80713572D01*
X127685126Y-80802774D01*
X127414118Y-80947631D01*
X127176577Y-81142576D01*
X126981632Y-81380117D01*
X126836774Y-81651125D01*
X126747572Y-81945187D01*
X126725000Y-82174364D01*
X125475000Y-82174364D01*
X125452428Y-81945187D01*
X125363226Y-81651125D01*
X125218369Y-81380117D01*
X125023424Y-81142576D01*
X124785883Y-80947631D01*
X124514875Y-80802774D01*
X124220813Y-80713572D01*
X123915000Y-80683452D01*
X123609188Y-80713572D01*
X123315126Y-80802774D01*
X123044118Y-80947631D01*
X122806577Y-81142576D01*
X122611632Y-81380117D01*
X122466774Y-81651125D01*
X122377572Y-81945187D01*
X122355000Y-82174364D01*
X122113010Y-82174364D01*
X122096969Y-82011500D01*
X122049278Y-81854284D01*
X121971831Y-81709392D01*
X121882055Y-81600000D01*
X121971831Y-81490608D01*
X122049278Y-81345716D01*
X122096969Y-81188500D01*
X122113072Y-81025000D01*
X122113072Y-80786729D01*
X124111004Y-78788798D01*
X124140001Y-78765001D01*
X124234974Y-78649276D01*
X124305546Y-78517247D01*
X124315142Y-78485614D01*
X124470882Y-78402369D01*
X124708424Y-78207424D01*
X124903369Y-77969883D01*
X125048226Y-77698875D01*
X125137428Y-77404813D01*
X125160000Y-77175636D01*
X125160000Y-76627000D01*
X127040000Y-76627000D01*
X127040000Y-77226000D01*
X127094751Y-77527901D01*
X127207348Y-77813319D01*
X127373464Y-78071286D01*
X127586715Y-78291889D01*
X127838906Y-78466650D01*
X128120345Y-78588853D01*
X128231336Y-78614812D01*
X128473000Y-78494483D01*
X128473000Y-76627000D01*
X128727000Y-76627000D01*
X128727000Y-78494483D01*
X128968664Y-78614812D01*
X129079655Y-78588853D01*
X129361094Y-78466650D01*
X129613285Y-78291889D01*
X129826536Y-78071286D01*
X129992652Y-77813319D01*
X130105249Y-77527901D01*
X130160000Y-77226000D01*
X130160000Y-76627000D01*
X128727000Y-76627000D01*
X128473000Y-76627000D01*
X127040000Y-76627000D01*
X125160000Y-76627000D01*
X125160000Y-75824364D01*
X125137428Y-75595187D01*
X125048226Y-75301125D01*
X124903369Y-75030117D01*
X124708424Y-74792576D01*
X124607805Y-74710000D01*
X127584889Y-74710000D01*
X127373464Y-74928714D01*
G37*
G04 #@! TD.AperFunction*
D16*
X142873464Y-74928714D02*
X142707348Y-75186681D01*
X142594751Y-75472099D01*
X142540000Y-75774000D01*
X142540000Y-76373000D01*
X143973000Y-76373000D01*
X143973000Y-76353000D01*
X144227000Y-76353000D01*
X144227000Y-76373000D01*
X145660000Y-76373000D01*
X145660000Y-75774000D01*
X145605249Y-75472099D01*
X145492652Y-75186681D01*
X145326536Y-74928714D01*
X145115111Y-74710000D01*
X146731533Y-74710000D01*
X146774999Y-74714281D01*
X146818466Y-74710000D01*
X151115001Y-74710000D01*
X151115000Y-78403588D01*
X151028169Y-78509392D01*
X150950722Y-78654284D01*
X150903031Y-78811500D01*
X150886928Y-78975000D01*
X150886928Y-79375000D01*
X150903031Y-79538500D01*
X150950722Y-79695716D01*
X151028169Y-79840608D01*
X151132394Y-79967606D01*
X151171866Y-80000000D01*
X151132394Y-80032394D01*
X151028169Y-80159392D01*
X150950722Y-80304284D01*
X150903031Y-80461500D01*
X150886928Y-80625000D01*
X150886928Y-81025000D01*
X150903031Y-81188500D01*
X150950722Y-81345716D01*
X151028169Y-81490608D01*
X151117945Y-81600000D01*
X151028169Y-81709392D01*
X150950722Y-81854284D01*
X150903031Y-82011500D01*
X150886928Y-82175000D01*
X150886928Y-82575000D01*
X150903031Y-82738500D01*
X150950722Y-82895716D01*
X151028169Y-83040608D01*
X151132394Y-83167606D01*
X151171866Y-83200000D01*
X151132394Y-83232394D01*
X151028169Y-83359392D01*
X150950722Y-83504284D01*
X150903031Y-83661500D01*
X150886928Y-83825000D01*
X150886928Y-84225000D01*
X150903031Y-84388500D01*
X150950722Y-84545716D01*
X151028169Y-84690608D01*
X151124611Y-84808122D01*
X151032382Y-84920503D01*
X150952625Y-85069717D01*
X150903512Y-85231623D01*
X150886928Y-85400000D01*
X150886928Y-85850000D01*
X150903512Y-86018377D01*
X150952625Y-86180283D01*
X151030700Y-86326351D01*
X150994463Y-86370506D01*
X150935498Y-86480820D01*
X150899188Y-86600518D01*
X150886928Y-86725000D01*
X150890000Y-86889250D01*
X151048750Y-87048000D01*
X151873000Y-87048000D01*
X151873000Y-87028000D01*
X152127000Y-87028000D01*
X152127000Y-87048000D01*
X152147000Y-87048000D01*
X152147000Y-87302000D01*
X152127000Y-87302000D01*
X152127000Y-88101250D01*
X152285750Y-88260000D01*
X152475000Y-88263072D01*
X152599482Y-88250812D01*
X152719180Y-88214502D01*
X152829494Y-88155537D01*
X152926185Y-88076185D01*
X153005537Y-87979494D01*
X153064502Y-87869180D01*
X153100812Y-87749482D01*
X153113072Y-87625000D01*
X153110000Y-87460750D01*
X152951252Y-87302002D01*
X153110000Y-87302002D01*
X153110000Y-87200000D01*
X153604381Y-87200000D01*
X153491577Y-87292576D01*
X153296632Y-87530117D01*
X153151774Y-87801125D01*
X153062572Y-88095187D01*
X153040000Y-88324364D01*
X153040000Y-89675635D01*
X153062572Y-89904812D01*
X153151774Y-90198874D01*
X153227208Y-90340000D01*
X145472793Y-90340000D01*
X145548226Y-90198875D01*
X145637428Y-89904813D01*
X145660000Y-89675636D01*
X145660000Y-88324364D01*
X145637428Y-88095187D01*
X145548226Y-87801125D01*
X145454086Y-87625000D01*
X150886928Y-87625000D01*
X150899188Y-87749482D01*
X150935498Y-87869180D01*
X150994463Y-87979494D01*
X151073815Y-88076185D01*
X151170506Y-88155537D01*
X151280820Y-88214502D01*
X151400518Y-88250812D01*
X151525000Y-88263072D01*
X151714250Y-88260000D01*
X151873000Y-88101250D01*
X151873000Y-87302000D01*
X151048750Y-87302000D01*
X150890000Y-87460750D01*
X150886928Y-87625000D01*
X145454086Y-87625000D01*
X145403369Y-87530117D01*
X145208424Y-87292576D01*
X144970883Y-87097631D01*
X144699875Y-86952774D01*
X144405813Y-86863572D01*
X144100000Y-86833452D01*
X143794188Y-86863572D01*
X143500126Y-86952774D01*
X143229118Y-87097631D01*
X142991577Y-87292576D01*
X142796632Y-87530117D01*
X142651774Y-87801125D01*
X142562572Y-88095187D01*
X142540000Y-88324364D01*
X142540000Y-88990198D01*
X137613072Y-84063271D01*
X137613072Y-83825000D01*
X137596969Y-83661500D01*
X137549278Y-83504284D01*
X137471831Y-83359392D01*
X137367606Y-83232394D01*
X137328134Y-83200000D01*
X137367606Y-83167606D01*
X137471831Y-83040608D01*
X137549278Y-82895716D01*
X137596969Y-82738500D01*
X137613072Y-82575000D01*
X137613072Y-82175000D01*
X137613010Y-82174364D01*
X137855000Y-82174364D01*
X137855000Y-83525635D01*
X137877572Y-83754812D01*
X137966774Y-84048874D01*
X138111631Y-84319882D01*
X138306576Y-84557424D01*
X138544117Y-84752369D01*
X138815125Y-84897226D01*
X139109187Y-84986428D01*
X139415000Y-85016548D01*
X139720812Y-84986428D01*
X140014874Y-84897226D01*
X140285882Y-84752369D01*
X140523424Y-84557424D01*
X140718369Y-84319883D01*
X140863226Y-84048875D01*
X140952428Y-83754813D01*
X140975000Y-83525636D01*
X140975000Y-82174364D01*
X142225000Y-82174364D01*
X142225000Y-83525635D01*
X142247572Y-83754812D01*
X142336774Y-84048874D01*
X142481631Y-84319882D01*
X142676576Y-84557424D01*
X142914117Y-84752369D01*
X143185125Y-84897226D01*
X143479187Y-84986428D01*
X143785000Y-85016548D01*
X144090812Y-84986428D01*
X144384874Y-84897226D01*
X144655882Y-84752369D01*
X144893424Y-84557424D01*
X145088369Y-84319883D01*
X145233226Y-84048875D01*
X145322428Y-83754813D01*
X145345000Y-83525636D01*
X145345000Y-82174364D01*
X145322428Y-81945187D01*
X145233226Y-81651125D01*
X145088369Y-81380117D01*
X144893424Y-81142576D01*
X144655883Y-80947631D01*
X144384875Y-80802774D01*
X144090813Y-80713572D01*
X143785000Y-80683452D01*
X143479188Y-80713572D01*
X143185126Y-80802774D01*
X142914118Y-80947631D01*
X142676577Y-81142576D01*
X142481632Y-81380117D01*
X142336774Y-81651125D01*
X142247572Y-81945187D01*
X142225000Y-82174364D01*
X140975000Y-82174364D01*
X140952428Y-81945187D01*
X140863226Y-81651125D01*
X140718369Y-81380117D01*
X140523424Y-81142576D01*
X140285883Y-80947631D01*
X140014875Y-80802774D01*
X139720813Y-80713572D01*
X139415000Y-80683452D01*
X139109188Y-80713572D01*
X138815126Y-80802774D01*
X138544118Y-80947631D01*
X138306577Y-81142576D01*
X138111632Y-81380117D01*
X137966774Y-81651125D01*
X137877572Y-81945187D01*
X137855000Y-82174364D01*
X137613010Y-82174364D01*
X137596969Y-82011500D01*
X137549278Y-81854284D01*
X137471831Y-81709392D01*
X137382055Y-81600000D01*
X137471831Y-81490608D01*
X137549278Y-81345716D01*
X137596969Y-81188500D01*
X137613072Y-81025000D01*
X137613072Y-80786729D01*
X139611004Y-78788798D01*
X139640001Y-78765001D01*
X139734974Y-78649276D01*
X139805546Y-78517247D01*
X139815142Y-78485614D01*
X139970882Y-78402369D01*
X140208424Y-78207424D01*
X140403369Y-77969883D01*
X140548226Y-77698875D01*
X140637428Y-77404813D01*
X140660000Y-77175636D01*
X140660000Y-76627000D01*
X142540000Y-76627000D01*
X142540000Y-77226000D01*
X142594751Y-77527901D01*
X142707348Y-77813319D01*
X142873464Y-78071286D01*
X143086715Y-78291889D01*
X143338906Y-78466650D01*
X143620345Y-78588853D01*
X143731336Y-78614812D01*
X143973000Y-78494483D01*
X143973000Y-76627000D01*
X144227000Y-76627000D01*
X144227000Y-78494483D01*
X144468664Y-78614812D01*
X144579655Y-78588853D01*
X144861094Y-78466650D01*
X145113285Y-78291889D01*
X145326536Y-78071286D01*
X145492652Y-77813319D01*
X145605249Y-77527901D01*
X145660000Y-77226000D01*
X145660000Y-76627000D01*
X144227000Y-76627000D01*
X143973000Y-76627000D01*
X142540000Y-76627000D01*
X140660000Y-76627000D01*
X140660000Y-75824364D01*
X140637428Y-75595187D01*
X140548226Y-75301125D01*
X140403369Y-75030117D01*
X140208424Y-74792576D01*
X140107805Y-74710000D01*
X143084889Y-74710000D01*
X142873464Y-74928714D01*
G04 #@! TA.AperFunction,Conductor*
D17*
G36*
X142873464Y-74928714D02*
G01*
X142707348Y-75186681D01*
X142594751Y-75472099D01*
X142540000Y-75774000D01*
X142540000Y-76373000D01*
X143973000Y-76373000D01*
X143973000Y-76353000D01*
X144227000Y-76353000D01*
X144227000Y-76373000D01*
X145660000Y-76373000D01*
X145660000Y-75774000D01*
X145605249Y-75472099D01*
X145492652Y-75186681D01*
X145326536Y-74928714D01*
X145115111Y-74710000D01*
X146731533Y-74710000D01*
X146774999Y-74714281D01*
X146818466Y-74710000D01*
X151115001Y-74710000D01*
X151115000Y-78403588D01*
X151028169Y-78509392D01*
X150950722Y-78654284D01*
X150903031Y-78811500D01*
X150886928Y-78975000D01*
X150886928Y-79375000D01*
X150903031Y-79538500D01*
X150950722Y-79695716D01*
X151028169Y-79840608D01*
X151132394Y-79967606D01*
X151171866Y-80000000D01*
X151132394Y-80032394D01*
X151028169Y-80159392D01*
X150950722Y-80304284D01*
X150903031Y-80461500D01*
X150886928Y-80625000D01*
X150886928Y-81025000D01*
X150903031Y-81188500D01*
X150950722Y-81345716D01*
X151028169Y-81490608D01*
X151117945Y-81600000D01*
X151028169Y-81709392D01*
X150950722Y-81854284D01*
X150903031Y-82011500D01*
X150886928Y-82175000D01*
X150886928Y-82575000D01*
X150903031Y-82738500D01*
X150950722Y-82895716D01*
X151028169Y-83040608D01*
X151132394Y-83167606D01*
X151171866Y-83200000D01*
X151132394Y-83232394D01*
X151028169Y-83359392D01*
X150950722Y-83504284D01*
X150903031Y-83661500D01*
X150886928Y-83825000D01*
X150886928Y-84225000D01*
X150903031Y-84388500D01*
X150950722Y-84545716D01*
X151028169Y-84690608D01*
X151124611Y-84808122D01*
X151032382Y-84920503D01*
X150952625Y-85069717D01*
X150903512Y-85231623D01*
X150886928Y-85400000D01*
X150886928Y-85850000D01*
X150903512Y-86018377D01*
X150952625Y-86180283D01*
X151030700Y-86326351D01*
X150994463Y-86370506D01*
X150935498Y-86480820D01*
X150899188Y-86600518D01*
X150886928Y-86725000D01*
X150890000Y-86889250D01*
X151048750Y-87048000D01*
X151873000Y-87048000D01*
X151873000Y-87028000D01*
X152127000Y-87028000D01*
X152127000Y-87048000D01*
X152147000Y-87048000D01*
X152147000Y-87302000D01*
X152127000Y-87302000D01*
X152127000Y-88101250D01*
X152285750Y-88260000D01*
X152475000Y-88263072D01*
X152599482Y-88250812D01*
X152719180Y-88214502D01*
X152829494Y-88155537D01*
X152926185Y-88076185D01*
X153005537Y-87979494D01*
X153064502Y-87869180D01*
X153100812Y-87749482D01*
X153113072Y-87625000D01*
X153110000Y-87460750D01*
X152951252Y-87302002D01*
X153110000Y-87302002D01*
X153110000Y-87200000D01*
X153604381Y-87200000D01*
X153491577Y-87292576D01*
X153296632Y-87530117D01*
X153151774Y-87801125D01*
X153062572Y-88095187D01*
X153040000Y-88324364D01*
X153040000Y-89675635D01*
X153062572Y-89904812D01*
X153151774Y-90198874D01*
X153227208Y-90340000D01*
X145472793Y-90340000D01*
X145548226Y-90198875D01*
X145637428Y-89904813D01*
X145660000Y-89675636D01*
X145660000Y-88324364D01*
X145637428Y-88095187D01*
X145548226Y-87801125D01*
X145454086Y-87625000D01*
X150886928Y-87625000D01*
X150899188Y-87749482D01*
X150935498Y-87869180D01*
X150994463Y-87979494D01*
X151073815Y-88076185D01*
X151170506Y-88155537D01*
X151280820Y-88214502D01*
X151400518Y-88250812D01*
X151525000Y-88263072D01*
X151714250Y-88260000D01*
X151873000Y-88101250D01*
X151873000Y-87302000D01*
X151048750Y-87302000D01*
X150890000Y-87460750D01*
X150886928Y-87625000D01*
X145454086Y-87625000D01*
X145403369Y-87530117D01*
X145208424Y-87292576D01*
X144970883Y-87097631D01*
X144699875Y-86952774D01*
X144405813Y-86863572D01*
X144100000Y-86833452D01*
X143794188Y-86863572D01*
X143500126Y-86952774D01*
X143229118Y-87097631D01*
X142991577Y-87292576D01*
X142796632Y-87530117D01*
X142651774Y-87801125D01*
X142562572Y-88095187D01*
X142540000Y-88324364D01*
X142540000Y-88990198D01*
X137613072Y-84063271D01*
X137613072Y-83825000D01*
X137596969Y-83661500D01*
X137549278Y-83504284D01*
X137471831Y-83359392D01*
X137367606Y-83232394D01*
X137328134Y-83200000D01*
X137367606Y-83167606D01*
X137471831Y-83040608D01*
X137549278Y-82895716D01*
X137596969Y-82738500D01*
X137613072Y-82575000D01*
X137613072Y-82175000D01*
X137613010Y-82174364D01*
X137855000Y-82174364D01*
X137855000Y-83525635D01*
X137877572Y-83754812D01*
X137966774Y-84048874D01*
X138111631Y-84319882D01*
X138306576Y-84557424D01*
X138544117Y-84752369D01*
X138815125Y-84897226D01*
X139109187Y-84986428D01*
X139415000Y-85016548D01*
X139720812Y-84986428D01*
X140014874Y-84897226D01*
X140285882Y-84752369D01*
X140523424Y-84557424D01*
X140718369Y-84319883D01*
X140863226Y-84048875D01*
X140952428Y-83754813D01*
X140975000Y-83525636D01*
X140975000Y-82174364D01*
X142225000Y-82174364D01*
X142225000Y-83525635D01*
X142247572Y-83754812D01*
X142336774Y-84048874D01*
X142481631Y-84319882D01*
X142676576Y-84557424D01*
X142914117Y-84752369D01*
X143185125Y-84897226D01*
X143479187Y-84986428D01*
X143785000Y-85016548D01*
X144090812Y-84986428D01*
X144384874Y-84897226D01*
X144655882Y-84752369D01*
X144893424Y-84557424D01*
X145088369Y-84319883D01*
X145233226Y-84048875D01*
X145322428Y-83754813D01*
X145345000Y-83525636D01*
X145345000Y-82174364D01*
X145322428Y-81945187D01*
X145233226Y-81651125D01*
X145088369Y-81380117D01*
X144893424Y-81142576D01*
X144655883Y-80947631D01*
X144384875Y-80802774D01*
X144090813Y-80713572D01*
X143785000Y-80683452D01*
X143479188Y-80713572D01*
X143185126Y-80802774D01*
X142914118Y-80947631D01*
X142676577Y-81142576D01*
X142481632Y-81380117D01*
X142336774Y-81651125D01*
X142247572Y-81945187D01*
X142225000Y-82174364D01*
X140975000Y-82174364D01*
X140952428Y-81945187D01*
X140863226Y-81651125D01*
X140718369Y-81380117D01*
X140523424Y-81142576D01*
X140285883Y-80947631D01*
X140014875Y-80802774D01*
X139720813Y-80713572D01*
X139415000Y-80683452D01*
X139109188Y-80713572D01*
X138815126Y-80802774D01*
X138544118Y-80947631D01*
X138306577Y-81142576D01*
X138111632Y-81380117D01*
X137966774Y-81651125D01*
X137877572Y-81945187D01*
X137855000Y-82174364D01*
X137613010Y-82174364D01*
X137596969Y-82011500D01*
X137549278Y-81854284D01*
X137471831Y-81709392D01*
X137382055Y-81600000D01*
X137471831Y-81490608D01*
X137549278Y-81345716D01*
X137596969Y-81188500D01*
X137613072Y-81025000D01*
X137613072Y-80786729D01*
X139611004Y-78788798D01*
X139640001Y-78765001D01*
X139734974Y-78649276D01*
X139805546Y-78517247D01*
X139815142Y-78485614D01*
X139970882Y-78402369D01*
X140208424Y-78207424D01*
X140403369Y-77969883D01*
X140548226Y-77698875D01*
X140637428Y-77404813D01*
X140660000Y-77175636D01*
X140660000Y-76627000D01*
X142540000Y-76627000D01*
X142540000Y-77226000D01*
X142594751Y-77527901D01*
X142707348Y-77813319D01*
X142873464Y-78071286D01*
X143086715Y-78291889D01*
X143338906Y-78466650D01*
X143620345Y-78588853D01*
X143731336Y-78614812D01*
X143973000Y-78494483D01*
X143973000Y-76627000D01*
X144227000Y-76627000D01*
X144227000Y-78494483D01*
X144468664Y-78614812D01*
X144579655Y-78588853D01*
X144861094Y-78466650D01*
X145113285Y-78291889D01*
X145326536Y-78071286D01*
X145492652Y-77813319D01*
X145605249Y-77527901D01*
X145660000Y-77226000D01*
X145660000Y-76627000D01*
X144227000Y-76627000D01*
X143973000Y-76627000D01*
X142540000Y-76627000D01*
X140660000Y-76627000D01*
X140660000Y-75824364D01*
X140637428Y-75595187D01*
X140548226Y-75301125D01*
X140403369Y-75030117D01*
X140208424Y-74792576D01*
X140107805Y-74710000D01*
X143084889Y-74710000D01*
X142873464Y-74928714D01*
G37*
G04 #@! TD.AperFunction*
D16*
X162689991Y-84132657D02*
X162686314Y-84169990D01*
X162689991Y-84207323D01*
X162700988Y-84318976D01*
X162710879Y-84351582D01*
X162744444Y-84462236D01*
X162815016Y-84594266D01*
X162859938Y-84649003D01*
X162909990Y-84709991D01*
X162938988Y-84733789D01*
X163885198Y-85680000D01*
X153129802Y-85680000D01*
X153113072Y-85663270D01*
X153113072Y-85400000D01*
X153096488Y-85231623D01*
X153047375Y-85069717D01*
X152967618Y-84920503D01*
X152875389Y-84808122D01*
X152971831Y-84690608D01*
X153049278Y-84545716D01*
X153096969Y-84388500D01*
X153113072Y-84225000D01*
X153113072Y-83825000D01*
X153096969Y-83661500D01*
X153049278Y-83504284D01*
X152971831Y-83359392D01*
X152867606Y-83232394D01*
X152828134Y-83200000D01*
X152867606Y-83167606D01*
X152971831Y-83040608D01*
X153049278Y-82895716D01*
X153096969Y-82738500D01*
X153113072Y-82575000D01*
X153113072Y-82175000D01*
X153113010Y-82174364D01*
X153355000Y-82174364D01*
X153355000Y-83525635D01*
X153377572Y-83754812D01*
X153466774Y-84048874D01*
X153611631Y-84319882D01*
X153806576Y-84557424D01*
X154044117Y-84752369D01*
X154315125Y-84897226D01*
X154609187Y-84986428D01*
X154915000Y-85016548D01*
X155220812Y-84986428D01*
X155514874Y-84897226D01*
X155785882Y-84752369D01*
X156023424Y-84557424D01*
X156218369Y-84319883D01*
X156363226Y-84048875D01*
X156452428Y-83754813D01*
X156475000Y-83525636D01*
X156475000Y-82174364D01*
X157725000Y-82174364D01*
X157725000Y-83525635D01*
X157747572Y-83754812D01*
X157836774Y-84048874D01*
X157981631Y-84319882D01*
X158176576Y-84557424D01*
X158414117Y-84752369D01*
X158685125Y-84897226D01*
X158979187Y-84986428D01*
X159285000Y-85016548D01*
X159590812Y-84986428D01*
X159884874Y-84897226D01*
X160155882Y-84752369D01*
X160393424Y-84557424D01*
X160588369Y-84319883D01*
X160733226Y-84048875D01*
X160822428Y-83754813D01*
X160845000Y-83525636D01*
X160845000Y-82174364D01*
X160822428Y-81945187D01*
X160733226Y-81651125D01*
X160588369Y-81380117D01*
X160393424Y-81142576D01*
X160155883Y-80947631D01*
X159884875Y-80802774D01*
X159590813Y-80713572D01*
X159285000Y-80683452D01*
X158979188Y-80713572D01*
X158685126Y-80802774D01*
X158414118Y-80947631D01*
X158176577Y-81142576D01*
X157981632Y-81380117D01*
X157836774Y-81651125D01*
X157747572Y-81945187D01*
X157725000Y-82174364D01*
X156475000Y-82174364D01*
X156452428Y-81945187D01*
X156363226Y-81651125D01*
X156218369Y-81380117D01*
X156023424Y-81142576D01*
X155785883Y-80947631D01*
X155514875Y-80802774D01*
X155220813Y-80713572D01*
X154915000Y-80683452D01*
X154609188Y-80713572D01*
X154315126Y-80802774D01*
X154044118Y-80947631D01*
X153806577Y-81142576D01*
X153611632Y-81380117D01*
X153466774Y-81651125D01*
X153377572Y-81945187D01*
X153355000Y-82174364D01*
X153113010Y-82174364D01*
X153096969Y-82011500D01*
X153049278Y-81854284D01*
X152971831Y-81709392D01*
X152882055Y-81600000D01*
X152971831Y-81490608D01*
X153049278Y-81345716D01*
X153096969Y-81188500D01*
X153113072Y-81025000D01*
X153113072Y-80786729D01*
X155111004Y-78788798D01*
X155140001Y-78765001D01*
X155234974Y-78649276D01*
X155305546Y-78517247D01*
X155315142Y-78485614D01*
X155470882Y-78402369D01*
X155708424Y-78207424D01*
X155903369Y-77969883D01*
X156048226Y-77698875D01*
X156137428Y-77404813D01*
X156160000Y-77175636D01*
X156160000Y-76627000D01*
X158040000Y-76627000D01*
X158040000Y-77226000D01*
X158094751Y-77527901D01*
X158207348Y-77813319D01*
X158373464Y-78071286D01*
X158586715Y-78291889D01*
X158838906Y-78466650D01*
X159120345Y-78588853D01*
X159231336Y-78614812D01*
X159473000Y-78494483D01*
X159473000Y-76627000D01*
X159727000Y-76627000D01*
X159727000Y-78494483D01*
X159968664Y-78614812D01*
X160079655Y-78588853D01*
X160361094Y-78466650D01*
X160613285Y-78291889D01*
X160826536Y-78071286D01*
X160992652Y-77813319D01*
X161105249Y-77527901D01*
X161160000Y-77226000D01*
X161160000Y-76627000D01*
X159727000Y-76627000D01*
X159473000Y-76627000D01*
X158040000Y-76627000D01*
X156160000Y-76627000D01*
X156160000Y-75824364D01*
X156137428Y-75595187D01*
X156048226Y-75301125D01*
X155903369Y-75030117D01*
X155708424Y-74792576D01*
X155607805Y-74710000D01*
X158584889Y-74710000D01*
X158373464Y-74928714D01*
X158207348Y-75186681D01*
X158094751Y-75472099D01*
X158040000Y-75774000D01*
X158040000Y-76373000D01*
X159473000Y-76373000D01*
X159473000Y-76353000D01*
X159727000Y-76353000D01*
X159727000Y-76373000D01*
X161160000Y-76373000D01*
X161160000Y-75774000D01*
X161105249Y-75472099D01*
X160992652Y-75186681D01*
X160826536Y-74928714D01*
X160613285Y-74708111D01*
X160361094Y-74533350D01*
X160260257Y-74489566D01*
X160303817Y-74453817D01*
X160331534Y-74420044D01*
X162445044Y-72306535D01*
X162501898Y-72295226D01*
X162689990Y-72217315D01*
X162689991Y-84132657D01*
G04 #@! TA.AperFunction,Conductor*
D17*
G36*
X162689991Y-84132657D02*
G01*
X162686314Y-84169990D01*
X162689991Y-84207323D01*
X162700988Y-84318976D01*
X162710879Y-84351582D01*
X162744444Y-84462236D01*
X162815016Y-84594266D01*
X162859938Y-84649003D01*
X162909990Y-84709991D01*
X162938988Y-84733789D01*
X163885198Y-85680000D01*
X153129802Y-85680000D01*
X153113072Y-85663270D01*
X153113072Y-85400000D01*
X153096488Y-85231623D01*
X153047375Y-85069717D01*
X152967618Y-84920503D01*
X152875389Y-84808122D01*
X152971831Y-84690608D01*
X153049278Y-84545716D01*
X153096969Y-84388500D01*
X153113072Y-84225000D01*
X153113072Y-83825000D01*
X153096969Y-83661500D01*
X153049278Y-83504284D01*
X152971831Y-83359392D01*
X152867606Y-83232394D01*
X152828134Y-83200000D01*
X152867606Y-83167606D01*
X152971831Y-83040608D01*
X153049278Y-82895716D01*
X153096969Y-82738500D01*
X153113072Y-82575000D01*
X153113072Y-82175000D01*
X153113010Y-82174364D01*
X153355000Y-82174364D01*
X153355000Y-83525635D01*
X153377572Y-83754812D01*
X153466774Y-84048874D01*
X153611631Y-84319882D01*
X153806576Y-84557424D01*
X154044117Y-84752369D01*
X154315125Y-84897226D01*
X154609187Y-84986428D01*
X154915000Y-85016548D01*
X155220812Y-84986428D01*
X155514874Y-84897226D01*
X155785882Y-84752369D01*
X156023424Y-84557424D01*
X156218369Y-84319883D01*
X156363226Y-84048875D01*
X156452428Y-83754813D01*
X156475000Y-83525636D01*
X156475000Y-82174364D01*
X157725000Y-82174364D01*
X157725000Y-83525635D01*
X157747572Y-83754812D01*
X157836774Y-84048874D01*
X157981631Y-84319882D01*
X158176576Y-84557424D01*
X158414117Y-84752369D01*
X158685125Y-84897226D01*
X158979187Y-84986428D01*
X159285000Y-85016548D01*
X159590812Y-84986428D01*
X159884874Y-84897226D01*
X160155882Y-84752369D01*
X160393424Y-84557424D01*
X160588369Y-84319883D01*
X160733226Y-84048875D01*
X160822428Y-83754813D01*
X160845000Y-83525636D01*
X160845000Y-82174364D01*
X160822428Y-81945187D01*
X160733226Y-81651125D01*
X160588369Y-81380117D01*
X160393424Y-81142576D01*
X160155883Y-80947631D01*
X159884875Y-80802774D01*
X159590813Y-80713572D01*
X159285000Y-80683452D01*
X158979188Y-80713572D01*
X158685126Y-80802774D01*
X158414118Y-80947631D01*
X158176577Y-81142576D01*
X157981632Y-81380117D01*
X157836774Y-81651125D01*
X157747572Y-81945187D01*
X157725000Y-82174364D01*
X156475000Y-82174364D01*
X156452428Y-81945187D01*
X156363226Y-81651125D01*
X156218369Y-81380117D01*
X156023424Y-81142576D01*
X155785883Y-80947631D01*
X155514875Y-80802774D01*
X155220813Y-80713572D01*
X154915000Y-80683452D01*
X154609188Y-80713572D01*
X154315126Y-80802774D01*
X154044118Y-80947631D01*
X153806577Y-81142576D01*
X153611632Y-81380117D01*
X153466774Y-81651125D01*
X153377572Y-81945187D01*
X153355000Y-82174364D01*
X153113010Y-82174364D01*
X153096969Y-82011500D01*
X153049278Y-81854284D01*
X152971831Y-81709392D01*
X152882055Y-81600000D01*
X152971831Y-81490608D01*
X153049278Y-81345716D01*
X153096969Y-81188500D01*
X153113072Y-81025000D01*
X153113072Y-80786729D01*
X155111004Y-78788798D01*
X155140001Y-78765001D01*
X155234974Y-78649276D01*
X155305546Y-78517247D01*
X155315142Y-78485614D01*
X155470882Y-78402369D01*
X155708424Y-78207424D01*
X155903369Y-77969883D01*
X156048226Y-77698875D01*
X156137428Y-77404813D01*
X156160000Y-77175636D01*
X156160000Y-76627000D01*
X158040000Y-76627000D01*
X158040000Y-77226000D01*
X158094751Y-77527901D01*
X158207348Y-77813319D01*
X158373464Y-78071286D01*
X158586715Y-78291889D01*
X158838906Y-78466650D01*
X159120345Y-78588853D01*
X159231336Y-78614812D01*
X159473000Y-78494483D01*
X159473000Y-76627000D01*
X159727000Y-76627000D01*
X159727000Y-78494483D01*
X159968664Y-78614812D01*
X160079655Y-78588853D01*
X160361094Y-78466650D01*
X160613285Y-78291889D01*
X160826536Y-78071286D01*
X160992652Y-77813319D01*
X161105249Y-77527901D01*
X161160000Y-77226000D01*
X161160000Y-76627000D01*
X159727000Y-76627000D01*
X159473000Y-76627000D01*
X158040000Y-76627000D01*
X156160000Y-76627000D01*
X156160000Y-75824364D01*
X156137428Y-75595187D01*
X156048226Y-75301125D01*
X155903369Y-75030117D01*
X155708424Y-74792576D01*
X155607805Y-74710000D01*
X158584889Y-74710000D01*
X158373464Y-74928714D01*
X158207348Y-75186681D01*
X158094751Y-75472099D01*
X158040000Y-75774000D01*
X158040000Y-76373000D01*
X159473000Y-76373000D01*
X159473000Y-76353000D01*
X159727000Y-76353000D01*
X159727000Y-76373000D01*
X161160000Y-76373000D01*
X161160000Y-75774000D01*
X161105249Y-75472099D01*
X160992652Y-75186681D01*
X160826536Y-74928714D01*
X160613285Y-74708111D01*
X160361094Y-74533350D01*
X160260257Y-74489566D01*
X160303817Y-74453817D01*
X160331534Y-74420044D01*
X162445044Y-72306535D01*
X162501898Y-72295226D01*
X162689990Y-72217315D01*
X162689991Y-84132657D01*
G37*
G04 #@! TD.AperFunction*
M02*
