G04 #@! TF.GenerationSoftware,KiCad,Pcbnew,5.1.8-5.1.8*
G04 #@! TF.CreationDate,2021-09-21T08:59:52+02:00*
G04 #@! TF.ProjectId,buttonbar,62757474-6f6e-4626-9172-2e6b69636164,rev?*
G04 #@! TF.SameCoordinates,Original*
G04 #@! TF.FileFunction,Soldermask,Top*
G04 #@! TF.FilePolarity,Negative*
%FSLAX46Y46*%
G04 Gerber Fmt 4.6, Leading zero omitted, Abs format (unit mm)*
G04 Created by KiCad (PCBNEW 5.1.8-5.1.8) date 2021-09-21 08:59:52*
%MOMM*%
%LPD*%
G01*
G04 APERTURE LIST*
%ADD10O,1.850000X3.048000*%
%ADD11C,2.500000*%
%ADD12O,1.700000X1.700000*%
%ADD13R,1.700000X1.700000*%
G04 APERTURE END LIST*
D10*
X143785000Y-64450000D03*
X139415000Y-64450000D03*
X144100000Y-70800000D03*
X139100000Y-70800000D03*
X144100000Y-58300000D03*
X139100000Y-58300000D03*
X123915000Y-82850000D03*
X128285000Y-82850000D03*
X123600000Y-76500000D03*
X128600000Y-76500000D03*
X123600000Y-89000000D03*
X128600000Y-89000000D03*
X159285000Y-64450000D03*
X154915000Y-64450000D03*
X159600000Y-70800000D03*
X154600000Y-70800000D03*
X159600000Y-58300000D03*
X154600000Y-58300000D03*
X128285000Y-64450000D03*
X123915000Y-64450000D03*
X128600000Y-70800000D03*
X123600000Y-70800000D03*
X128600000Y-58300000D03*
X123600000Y-58300000D03*
X139415000Y-82850000D03*
X143785000Y-82850000D03*
X139100000Y-76500000D03*
X144100000Y-76500000D03*
X139100000Y-89000000D03*
X144100000Y-89000000D03*
X154915000Y-82850000D03*
X159285000Y-82850000D03*
X154600000Y-76500000D03*
X159600000Y-76500000D03*
X154600000Y-89000000D03*
X159600000Y-89000000D03*
D11*
X172200000Y-97000000D03*
X172200000Y-49300000D03*
X113300000Y-97000000D03*
X113300000Y-49300000D03*
G36*
G01*
X158100000Y-97125001D02*
X158100000Y-95874999D01*
G75*
G02*
X158349999Y-95625000I249999J0D01*
G01*
X159150001Y-95625000D01*
G75*
G02*
X159400000Y-95874999I0J-249999D01*
G01*
X159400000Y-97125001D01*
G75*
G02*
X159150001Y-97375000I-249999J0D01*
G01*
X158349999Y-97375000D01*
G75*
G02*
X158100000Y-97125001I0J249999D01*
G01*
G37*
G36*
G01*
X155000000Y-97125001D02*
X155000000Y-95874999D01*
G75*
G02*
X155249999Y-95625000I249999J0D01*
G01*
X156050001Y-95625000D01*
G75*
G02*
X156300000Y-95874999I0J-249999D01*
G01*
X156300000Y-97125001D01*
G75*
G02*
X156050001Y-97375000I-249999J0D01*
G01*
X155249999Y-97375000D01*
G75*
G02*
X155000000Y-97125001I0J249999D01*
G01*
G37*
G36*
G01*
X142600000Y-97125001D02*
X142600000Y-95874999D01*
G75*
G02*
X142849999Y-95625000I249999J0D01*
G01*
X143650001Y-95625000D01*
G75*
G02*
X143900000Y-95874999I0J-249999D01*
G01*
X143900000Y-97125001D01*
G75*
G02*
X143650001Y-97375000I-249999J0D01*
G01*
X142849999Y-97375000D01*
G75*
G02*
X142600000Y-97125001I0J249999D01*
G01*
G37*
G36*
G01*
X139500000Y-97125001D02*
X139500000Y-95874999D01*
G75*
G02*
X139749999Y-95625000I249999J0D01*
G01*
X140550001Y-95625000D01*
G75*
G02*
X140800000Y-95874999I0J-249999D01*
G01*
X140800000Y-97125001D01*
G75*
G02*
X140550001Y-97375000I-249999J0D01*
G01*
X139749999Y-97375000D01*
G75*
G02*
X139500000Y-97125001I0J249999D01*
G01*
G37*
G36*
G01*
X127100000Y-97125001D02*
X127100000Y-95874999D01*
G75*
G02*
X127349999Y-95625000I249999J0D01*
G01*
X128150001Y-95625000D01*
G75*
G02*
X128400000Y-95874999I0J-249999D01*
G01*
X128400000Y-97125001D01*
G75*
G02*
X128150001Y-97375000I-249999J0D01*
G01*
X127349999Y-97375000D01*
G75*
G02*
X127100000Y-97125001I0J249999D01*
G01*
G37*
G36*
G01*
X124000000Y-97125001D02*
X124000000Y-95874999D01*
G75*
G02*
X124249999Y-95625000I249999J0D01*
G01*
X125050001Y-95625000D01*
G75*
G02*
X125300000Y-95874999I0J-249999D01*
G01*
X125300000Y-97125001D01*
G75*
G02*
X125050001Y-97375000I-249999J0D01*
G01*
X124249999Y-97375000D01*
G75*
G02*
X124000000Y-97125001I0J249999D01*
G01*
G37*
G36*
G01*
X156200000Y-49874999D02*
X156200000Y-51125001D01*
G75*
G02*
X155950001Y-51375000I-249999J0D01*
G01*
X155149999Y-51375000D01*
G75*
G02*
X154900000Y-51125001I0J249999D01*
G01*
X154900000Y-49874999D01*
G75*
G02*
X155149999Y-49625000I249999J0D01*
G01*
X155950001Y-49625000D01*
G75*
G02*
X156200000Y-49874999I0J-249999D01*
G01*
G37*
G36*
G01*
X159300000Y-49874999D02*
X159300000Y-51125001D01*
G75*
G02*
X159050001Y-51375000I-249999J0D01*
G01*
X158249999Y-51375000D01*
G75*
G02*
X158000000Y-51125001I0J249999D01*
G01*
X158000000Y-49874999D01*
G75*
G02*
X158249999Y-49625000I249999J0D01*
G01*
X159050001Y-49625000D01*
G75*
G02*
X159300000Y-49874999I0J-249999D01*
G01*
G37*
G36*
G01*
X140700000Y-49874999D02*
X140700000Y-51125001D01*
G75*
G02*
X140450001Y-51375000I-249999J0D01*
G01*
X139649999Y-51375000D01*
G75*
G02*
X139400000Y-51125001I0J249999D01*
G01*
X139400000Y-49874999D01*
G75*
G02*
X139649999Y-49625000I249999J0D01*
G01*
X140450001Y-49625000D01*
G75*
G02*
X140700000Y-49874999I0J-249999D01*
G01*
G37*
G36*
G01*
X143800000Y-49874999D02*
X143800000Y-51125001D01*
G75*
G02*
X143550001Y-51375000I-249999J0D01*
G01*
X142749999Y-51375000D01*
G75*
G02*
X142500000Y-51125001I0J249999D01*
G01*
X142500000Y-49874999D01*
G75*
G02*
X142749999Y-49625000I249999J0D01*
G01*
X143550001Y-49625000D01*
G75*
G02*
X143800000Y-49874999I0J-249999D01*
G01*
G37*
G36*
G01*
X125200000Y-49874999D02*
X125200000Y-51125001D01*
G75*
G02*
X124950001Y-51375000I-249999J0D01*
G01*
X124149999Y-51375000D01*
G75*
G02*
X123900000Y-51125001I0J249999D01*
G01*
X123900000Y-49874999D01*
G75*
G02*
X124149999Y-49625000I249999J0D01*
G01*
X124950001Y-49625000D01*
G75*
G02*
X125200000Y-49874999I0J-249999D01*
G01*
G37*
G36*
G01*
X128300000Y-49874999D02*
X128300000Y-51125001D01*
G75*
G02*
X128050001Y-51375000I-249999J0D01*
G01*
X127249999Y-51375000D01*
G75*
G02*
X127000000Y-51125001I0J249999D01*
G01*
X127000000Y-49874999D01*
G75*
G02*
X127249999Y-49625000I249999J0D01*
G01*
X128050001Y-49625000D01*
G75*
G02*
X128300000Y-49874999I0J-249999D01*
G01*
G37*
D12*
X112800000Y-80000000D03*
X112800000Y-77460000D03*
X112800000Y-74920000D03*
X112800000Y-72380000D03*
X112800000Y-69840000D03*
D13*
X112800000Y-67300000D03*
D12*
X168400000Y-57020000D03*
X168400000Y-59560000D03*
X168400000Y-62100000D03*
X168400000Y-64640000D03*
X168400000Y-67180000D03*
X168400000Y-69720000D03*
X168400000Y-72260000D03*
D13*
X168400000Y-74800000D03*
G36*
G01*
X156402500Y-93175000D02*
X156402500Y-94425000D01*
G75*
G02*
X156152500Y-94675000I-250000J0D01*
G01*
X155227500Y-94675000D01*
G75*
G02*
X154977500Y-94425000I0J250000D01*
G01*
X154977500Y-93175000D01*
G75*
G02*
X155227500Y-92925000I250000J0D01*
G01*
X156152500Y-92925000D01*
G75*
G02*
X156402500Y-93175000I0J-250000D01*
G01*
G37*
G36*
G01*
X159377500Y-93175000D02*
X159377500Y-94425000D01*
G75*
G02*
X159127500Y-94675000I-250000J0D01*
G01*
X158202500Y-94675000D01*
G75*
G02*
X157952500Y-94425000I0J250000D01*
G01*
X157952500Y-93175000D01*
G75*
G02*
X158202500Y-92925000I250000J0D01*
G01*
X159127500Y-92925000D01*
G75*
G02*
X159377500Y-93175000I0J-250000D01*
G01*
G37*
G36*
G01*
X140902500Y-93175000D02*
X140902500Y-94425000D01*
G75*
G02*
X140652500Y-94675000I-250000J0D01*
G01*
X139727500Y-94675000D01*
G75*
G02*
X139477500Y-94425000I0J250000D01*
G01*
X139477500Y-93175000D01*
G75*
G02*
X139727500Y-92925000I250000J0D01*
G01*
X140652500Y-92925000D01*
G75*
G02*
X140902500Y-93175000I0J-250000D01*
G01*
G37*
G36*
G01*
X143877500Y-93175000D02*
X143877500Y-94425000D01*
G75*
G02*
X143627500Y-94675000I-250000J0D01*
G01*
X142702500Y-94675000D01*
G75*
G02*
X142452500Y-94425000I0J250000D01*
G01*
X142452500Y-93175000D01*
G75*
G02*
X142702500Y-92925000I250000J0D01*
G01*
X143627500Y-92925000D01*
G75*
G02*
X143877500Y-93175000I0J-250000D01*
G01*
G37*
G36*
G01*
X125402500Y-93175000D02*
X125402500Y-94425000D01*
G75*
G02*
X125152500Y-94675000I-250000J0D01*
G01*
X124227500Y-94675000D01*
G75*
G02*
X123977500Y-94425000I0J250000D01*
G01*
X123977500Y-93175000D01*
G75*
G02*
X124227500Y-92925000I250000J0D01*
G01*
X125152500Y-92925000D01*
G75*
G02*
X125402500Y-93175000I0J-250000D01*
G01*
G37*
G36*
G01*
X128377500Y-93175000D02*
X128377500Y-94425000D01*
G75*
G02*
X128127500Y-94675000I-250000J0D01*
G01*
X127202500Y-94675000D01*
G75*
G02*
X126952500Y-94425000I0J250000D01*
G01*
X126952500Y-93175000D01*
G75*
G02*
X127202500Y-92925000I250000J0D01*
G01*
X128127500Y-92925000D01*
G75*
G02*
X128377500Y-93175000I0J-250000D01*
G01*
G37*
G36*
G01*
X157897500Y-54125000D02*
X157897500Y-52875000D01*
G75*
G02*
X158147500Y-52625000I250000J0D01*
G01*
X159072500Y-52625000D01*
G75*
G02*
X159322500Y-52875000I0J-250000D01*
G01*
X159322500Y-54125000D01*
G75*
G02*
X159072500Y-54375000I-250000J0D01*
G01*
X158147500Y-54375000D01*
G75*
G02*
X157897500Y-54125000I0J250000D01*
G01*
G37*
G36*
G01*
X154922500Y-54125000D02*
X154922500Y-52875000D01*
G75*
G02*
X155172500Y-52625000I250000J0D01*
G01*
X156097500Y-52625000D01*
G75*
G02*
X156347500Y-52875000I0J-250000D01*
G01*
X156347500Y-54125000D01*
G75*
G02*
X156097500Y-54375000I-250000J0D01*
G01*
X155172500Y-54375000D01*
G75*
G02*
X154922500Y-54125000I0J250000D01*
G01*
G37*
G36*
G01*
X142397500Y-54125000D02*
X142397500Y-52875000D01*
G75*
G02*
X142647500Y-52625000I250000J0D01*
G01*
X143572500Y-52625000D01*
G75*
G02*
X143822500Y-52875000I0J-250000D01*
G01*
X143822500Y-54125000D01*
G75*
G02*
X143572500Y-54375000I-250000J0D01*
G01*
X142647500Y-54375000D01*
G75*
G02*
X142397500Y-54125000I0J250000D01*
G01*
G37*
G36*
G01*
X139422500Y-54125000D02*
X139422500Y-52875000D01*
G75*
G02*
X139672500Y-52625000I250000J0D01*
G01*
X140597500Y-52625000D01*
G75*
G02*
X140847500Y-52875000I0J-250000D01*
G01*
X140847500Y-54125000D01*
G75*
G02*
X140597500Y-54375000I-250000J0D01*
G01*
X139672500Y-54375000D01*
G75*
G02*
X139422500Y-54125000I0J250000D01*
G01*
G37*
G36*
G01*
X126897500Y-54125000D02*
X126897500Y-52875000D01*
G75*
G02*
X127147500Y-52625000I250000J0D01*
G01*
X128072500Y-52625000D01*
G75*
G02*
X128322500Y-52875000I0J-250000D01*
G01*
X128322500Y-54125000D01*
G75*
G02*
X128072500Y-54375000I-250000J0D01*
G01*
X127147500Y-54375000D01*
G75*
G02*
X126897500Y-54125000I0J250000D01*
G01*
G37*
G36*
G01*
X123922500Y-54125000D02*
X123922500Y-52875000D01*
G75*
G02*
X124172500Y-52625000I250000J0D01*
G01*
X125097500Y-52625000D01*
G75*
G02*
X125347500Y-52875000I0J-250000D01*
G01*
X125347500Y-54125000D01*
G75*
G02*
X125097500Y-54375000I-250000J0D01*
G01*
X124172500Y-54375000D01*
G75*
G02*
X123922500Y-54125000I0J250000D01*
G01*
G37*
M02*
