G04 #@! TF.GenerationSoftware,KiCad,Pcbnew,5.1.10-5.1.10*
G04 #@! TF.CreationDate,2021-10-08T15:20:13+02:00*
G04 #@! TF.ProjectId,buttonbar,62757474-6f6e-4626-9172-2e6b69636164,1.1*
G04 #@! TF.SameCoordinates,Original*
G04 #@! TF.FileFunction,Legend,Bot*
G04 #@! TF.FilePolarity,Positive*
%FSLAX46Y46*%
G04 Gerber Fmt 4.6, Leading zero omitted, Abs format (unit mm)*
G04 Created by KiCad (PCBNEW 5.1.10-5.1.10) date 2021-10-08 15:20:13*
%MOMM*%
%LPD*%
G01*
G04 APERTURE LIST*
%ADD10C,0.150000*%
%ADD11C,0.120000*%
G04 APERTURE END LIST*
D10*
X169336933Y-54081371D02*
X169194076Y-54128990D01*
X169146457Y-54176609D01*
X169098838Y-54271847D01*
X169098838Y-54414704D01*
X169146457Y-54509942D01*
X169194076Y-54557561D01*
X169289314Y-54605180D01*
X169670266Y-54605180D01*
X169670266Y-53605180D01*
X169336933Y-53605180D01*
X169241695Y-53652800D01*
X169194076Y-53700419D01*
X169146457Y-53795657D01*
X169146457Y-53890895D01*
X169194076Y-53986133D01*
X169241695Y-54033752D01*
X169336933Y-54081371D01*
X169670266Y-54081371D01*
X168813123Y-53605180D02*
X168241695Y-53605180D01*
X168527409Y-54605180D02*
X168527409Y-53605180D01*
X167908361Y-54605180D02*
X167908361Y-53605180D01*
X167336933Y-54605180D01*
X167336933Y-53605180D01*
X171301061Y-66564880D02*
X170682014Y-66564880D01*
X171015347Y-66945833D01*
X170872490Y-66945833D01*
X170777252Y-66993452D01*
X170729633Y-67041071D01*
X170682014Y-67136309D01*
X170682014Y-67374404D01*
X170729633Y-67469642D01*
X170777252Y-67517261D01*
X170872490Y-67564880D01*
X171158204Y-67564880D01*
X171253442Y-67517261D01*
X171301061Y-67469642D01*
X172777252Y-56624600D02*
X172872490Y-56576980D01*
X173015347Y-56576980D01*
X173158204Y-56624600D01*
X173253442Y-56719838D01*
X173301061Y-56815076D01*
X173348680Y-57005552D01*
X173348680Y-57148409D01*
X173301061Y-57338885D01*
X173253442Y-57434123D01*
X173158204Y-57529361D01*
X173015347Y-57576980D01*
X172920109Y-57576980D01*
X172777252Y-57529361D01*
X172729633Y-57481742D01*
X172729633Y-57148409D01*
X172920109Y-57148409D01*
X172301061Y-57576980D02*
X172301061Y-56576980D01*
X171729633Y-57576980D01*
X171729633Y-56576980D01*
X171253442Y-57576980D02*
X171253442Y-56576980D01*
X171015347Y-56576980D01*
X170872490Y-56624600D01*
X170777252Y-56719838D01*
X170729633Y-56815076D01*
X170682014Y-57005552D01*
X170682014Y-57148409D01*
X170729633Y-57338885D01*
X170777252Y-57434123D01*
X170872490Y-57529361D01*
X171015347Y-57576980D01*
X171253442Y-57576980D01*
X170777252Y-64358214D02*
X170777252Y-65024880D01*
X171015347Y-63977261D02*
X171253442Y-64691547D01*
X170634395Y-64691547D01*
X172967728Y-74184880D02*
X172634395Y-75184880D01*
X172301062Y-74184880D01*
X171539157Y-75137261D02*
X171634395Y-75184880D01*
X171824871Y-75184880D01*
X171920109Y-75137261D01*
X171967728Y-75089642D01*
X172015347Y-74994404D01*
X172015347Y-74708690D01*
X171967728Y-74613452D01*
X171920109Y-74565833D01*
X171824871Y-74518214D01*
X171634395Y-74518214D01*
X171539157Y-74565833D01*
X170682014Y-75137261D02*
X170777252Y-75184880D01*
X170967728Y-75184880D01*
X171062967Y-75137261D01*
X171110586Y-75089642D01*
X171158205Y-74994404D01*
X171158205Y-74708690D01*
X171110586Y-74613452D01*
X171062967Y-74565833D01*
X170967728Y-74518214D01*
X170777252Y-74518214D01*
X170682014Y-74565833D01*
X170777252Y-58944880D02*
X170967728Y-58944880D01*
X171062966Y-58992500D01*
X171110585Y-59040119D01*
X171205823Y-59182976D01*
X171253442Y-59373452D01*
X171253442Y-59754404D01*
X171205823Y-59849642D01*
X171158204Y-59897261D01*
X171062966Y-59944880D01*
X170872490Y-59944880D01*
X170777252Y-59897261D01*
X170729633Y-59849642D01*
X170682014Y-59754404D01*
X170682014Y-59516309D01*
X170729633Y-59421071D01*
X170777252Y-59373452D01*
X170872490Y-59325833D01*
X171062966Y-59325833D01*
X171158204Y-59373452D01*
X171205823Y-59421071D01*
X171253442Y-59516309D01*
X170682014Y-72644880D02*
X171253442Y-72644880D01*
X170967728Y-72644880D02*
X170967728Y-71644880D01*
X171062966Y-71787738D01*
X171158204Y-71882976D01*
X171253442Y-71930595D01*
X170729633Y-61484880D02*
X171205823Y-61484880D01*
X171253442Y-61961071D01*
X171205823Y-61913452D01*
X171110585Y-61865833D01*
X170872490Y-61865833D01*
X170777252Y-61913452D01*
X170729633Y-61961071D01*
X170682014Y-62056309D01*
X170682014Y-62294404D01*
X170729633Y-62389642D01*
X170777252Y-62437261D01*
X170872490Y-62484880D01*
X171110585Y-62484880D01*
X171205823Y-62437261D01*
X171253442Y-62389642D01*
X171253442Y-69200119D02*
X171205823Y-69152500D01*
X171110585Y-69104880D01*
X170872490Y-69104880D01*
X170777252Y-69152500D01*
X170729633Y-69200119D01*
X170682014Y-69295357D01*
X170682014Y-69390595D01*
X170729633Y-69533452D01*
X171301061Y-70104880D01*
X170682014Y-70104880D01*
X113495057Y-64866780D02*
X113971247Y-64866780D01*
X113971247Y-63866780D01*
X113161723Y-64342971D02*
X112828390Y-64342971D01*
X112685533Y-64866780D02*
X113161723Y-64866780D01*
X113161723Y-63866780D01*
X112685533Y-63866780D01*
X112256961Y-64866780D02*
X112256961Y-63866780D01*
X112018866Y-63866780D01*
X111876009Y-63914400D01*
X111780771Y-64009638D01*
X111733152Y-64104876D01*
X111685533Y-64295352D01*
X111685533Y-64438209D01*
X111733152Y-64628685D01*
X111780771Y-64723923D01*
X111876009Y-64819161D01*
X112018866Y-64866780D01*
X112256961Y-64866780D01*
X114973452Y-74663614D02*
X114973452Y-75330280D01*
X115211547Y-74282661D02*
X115449642Y-74996947D01*
X114830595Y-74996947D01*
X114925833Y-76870280D02*
X115402023Y-76870280D01*
X115449642Y-77346471D01*
X115402023Y-77298852D01*
X115306785Y-77251233D01*
X115068690Y-77251233D01*
X114973452Y-77298852D01*
X114925833Y-77346471D01*
X114878214Y-77441709D01*
X114878214Y-77679804D01*
X114925833Y-77775042D01*
X114973452Y-77822661D01*
X115068690Y-77870280D01*
X115306785Y-77870280D01*
X115402023Y-77822661D01*
X115449642Y-77775042D01*
X114973452Y-79410280D02*
X115163928Y-79410280D01*
X115259166Y-79457900D01*
X115306785Y-79505519D01*
X115402023Y-79648376D01*
X115449642Y-79838852D01*
X115449642Y-80219804D01*
X115402023Y-80315042D01*
X115354404Y-80362661D01*
X115259166Y-80410280D01*
X115068690Y-80410280D01*
X114973452Y-80362661D01*
X114925833Y-80315042D01*
X114878214Y-80219804D01*
X114878214Y-79981709D01*
X114925833Y-79886471D01*
X114973452Y-79838852D01*
X115068690Y-79791233D01*
X115259166Y-79791233D01*
X115354404Y-79838852D01*
X115402023Y-79886471D01*
X115449642Y-79981709D01*
X115449642Y-69345519D02*
X115402023Y-69297900D01*
X115306785Y-69250280D01*
X115068690Y-69250280D01*
X114973452Y-69297900D01*
X114925833Y-69345519D01*
X114878214Y-69440757D01*
X114878214Y-69535995D01*
X114925833Y-69678852D01*
X115497261Y-70250280D01*
X114878214Y-70250280D01*
X114878214Y-67710280D02*
X115449642Y-67710280D01*
X115163928Y-67710280D02*
X115163928Y-66710280D01*
X115259166Y-66853138D01*
X115354404Y-66948376D01*
X115449642Y-66995995D01*
X115497261Y-71790280D02*
X114878214Y-71790280D01*
X115211547Y-72171233D01*
X115068690Y-72171233D01*
X114973452Y-72218852D01*
X114925833Y-72266471D01*
X114878214Y-72361709D01*
X114878214Y-72599804D01*
X114925833Y-72695042D01*
X114973452Y-72742661D01*
X115068690Y-72790280D01*
X115354404Y-72790280D01*
X115449642Y-72742661D01*
X115497261Y-72695042D01*
X167264404Y-96827380D02*
X167264404Y-95827380D01*
X166835833Y-96827380D02*
X166835833Y-96303571D01*
X166883452Y-96208333D01*
X166978690Y-96160714D01*
X167121547Y-96160714D01*
X167216785Y-96208333D01*
X167264404Y-96255952D01*
X166502500Y-96160714D02*
X166121547Y-96160714D01*
X166359642Y-95827380D02*
X166359642Y-96684523D01*
X166312023Y-96779761D01*
X166216785Y-96827380D01*
X166121547Y-96827380D01*
X165931071Y-96160714D02*
X165550119Y-96160714D01*
X165788214Y-95827380D02*
X165788214Y-96684523D01*
X165740595Y-96779761D01*
X165645357Y-96827380D01*
X165550119Y-96827380D01*
X165216785Y-96160714D02*
X165216785Y-97160714D01*
X165216785Y-96208333D02*
X165121547Y-96160714D01*
X164931071Y-96160714D01*
X164835833Y-96208333D01*
X164788214Y-96255952D01*
X164740595Y-96351190D01*
X164740595Y-96636904D01*
X164788214Y-96732142D01*
X164835833Y-96779761D01*
X164931071Y-96827380D01*
X165121547Y-96827380D01*
X165216785Y-96779761D01*
X164359642Y-96779761D02*
X164264404Y-96827380D01*
X164073928Y-96827380D01*
X163978690Y-96779761D01*
X163931071Y-96684523D01*
X163931071Y-96636904D01*
X163978690Y-96541666D01*
X164073928Y-96494047D01*
X164216785Y-96494047D01*
X164312023Y-96446428D01*
X164359642Y-96351190D01*
X164359642Y-96303571D01*
X164312023Y-96208333D01*
X164216785Y-96160714D01*
X164073928Y-96160714D01*
X163978690Y-96208333D01*
X163502500Y-96732142D02*
X163454880Y-96779761D01*
X163502500Y-96827380D01*
X163550119Y-96779761D01*
X163502500Y-96732142D01*
X163502500Y-96827380D01*
X163502500Y-96208333D02*
X163454880Y-96255952D01*
X163502500Y-96303571D01*
X163550119Y-96255952D01*
X163502500Y-96208333D01*
X163502500Y-96303571D01*
X162312023Y-95779761D02*
X163169166Y-97065476D01*
X161264404Y-95779761D02*
X162121547Y-97065476D01*
X160502500Y-96160714D02*
X160502500Y-96970238D01*
X160550119Y-97065476D01*
X160597738Y-97113095D01*
X160692976Y-97160714D01*
X160835833Y-97160714D01*
X160931071Y-97113095D01*
X160502500Y-96779761D02*
X160597738Y-96827380D01*
X160788214Y-96827380D01*
X160883452Y-96779761D01*
X160931071Y-96732142D01*
X160978690Y-96636904D01*
X160978690Y-96351190D01*
X160931071Y-96255952D01*
X160883452Y-96208333D01*
X160788214Y-96160714D01*
X160597738Y-96160714D01*
X160502500Y-96208333D01*
X160026309Y-96827380D02*
X160026309Y-96160714D01*
X160026309Y-95827380D02*
X160073928Y-95875000D01*
X160026309Y-95922619D01*
X159978690Y-95875000D01*
X160026309Y-95827380D01*
X160026309Y-95922619D01*
X159692976Y-96160714D02*
X159312023Y-96160714D01*
X159550119Y-95827380D02*
X159550119Y-96684523D01*
X159502500Y-96779761D01*
X159407261Y-96827380D01*
X159312023Y-96827380D01*
X158978690Y-96827380D02*
X158978690Y-95827380D01*
X158550119Y-96827380D02*
X158550119Y-96303571D01*
X158597738Y-96208333D01*
X158692976Y-96160714D01*
X158835833Y-96160714D01*
X158931071Y-96208333D01*
X158978690Y-96255952D01*
X157645357Y-96160714D02*
X157645357Y-96827380D01*
X158073928Y-96160714D02*
X158073928Y-96684523D01*
X158026309Y-96779761D01*
X157931071Y-96827380D01*
X157788214Y-96827380D01*
X157692976Y-96779761D01*
X157645357Y-96732142D01*
X157169166Y-96827380D02*
X157169166Y-95827380D01*
X157169166Y-96208333D02*
X157073928Y-96160714D01*
X156883452Y-96160714D01*
X156788214Y-96208333D01*
X156740595Y-96255952D01*
X156692976Y-96351190D01*
X156692976Y-96636904D01*
X156740595Y-96732142D01*
X156788214Y-96779761D01*
X156883452Y-96827380D01*
X157073928Y-96827380D01*
X157169166Y-96779761D01*
X156264404Y-96732142D02*
X156216785Y-96779761D01*
X156264404Y-96827380D01*
X156312023Y-96779761D01*
X156264404Y-96732142D01*
X156264404Y-96827380D01*
X155359642Y-96779761D02*
X155454880Y-96827380D01*
X155645357Y-96827380D01*
X155740595Y-96779761D01*
X155788214Y-96732142D01*
X155835833Y-96636904D01*
X155835833Y-96351190D01*
X155788214Y-96255952D01*
X155740595Y-96208333D01*
X155645357Y-96160714D01*
X155454880Y-96160714D01*
X155359642Y-96208333D01*
X154788214Y-96827380D02*
X154883452Y-96779761D01*
X154931071Y-96732142D01*
X154978690Y-96636904D01*
X154978690Y-96351190D01*
X154931071Y-96255952D01*
X154883452Y-96208333D01*
X154788214Y-96160714D01*
X154645357Y-96160714D01*
X154550119Y-96208333D01*
X154502500Y-96255952D01*
X154454880Y-96351190D01*
X154454880Y-96636904D01*
X154502500Y-96732142D01*
X154550119Y-96779761D01*
X154645357Y-96827380D01*
X154788214Y-96827380D01*
X154026309Y-96827380D02*
X154026309Y-96160714D01*
X154026309Y-96255952D02*
X153978690Y-96208333D01*
X153883452Y-96160714D01*
X153740595Y-96160714D01*
X153645357Y-96208333D01*
X153597738Y-96303571D01*
X153597738Y-96827380D01*
X153597738Y-96303571D02*
X153550119Y-96208333D01*
X153454880Y-96160714D01*
X153312023Y-96160714D01*
X153216785Y-96208333D01*
X153169166Y-96303571D01*
X153169166Y-96827380D01*
X151978690Y-95779761D02*
X152835833Y-97065476D01*
X151645357Y-96827380D02*
X151645357Y-95827380D01*
X151645357Y-96208333D02*
X151550119Y-96160714D01*
X151359642Y-96160714D01*
X151264404Y-96208333D01*
X151216785Y-96255952D01*
X151169166Y-96351190D01*
X151169166Y-96636904D01*
X151216785Y-96732142D01*
X151264404Y-96779761D01*
X151359642Y-96827380D01*
X151550119Y-96827380D01*
X151645357Y-96779761D01*
X150312023Y-96827380D02*
X150312023Y-96303571D01*
X150359642Y-96208333D01*
X150454880Y-96160714D01*
X150645357Y-96160714D01*
X150740595Y-96208333D01*
X150312023Y-96779761D02*
X150407261Y-96827380D01*
X150645357Y-96827380D01*
X150740595Y-96779761D01*
X150788214Y-96684523D01*
X150788214Y-96589285D01*
X150740595Y-96494047D01*
X150645357Y-96446428D01*
X150407261Y-96446428D01*
X150312023Y-96398809D01*
X149835833Y-96827380D02*
X149835833Y-95827380D01*
X149835833Y-96208333D02*
X149740595Y-96160714D01*
X149550119Y-96160714D01*
X149454880Y-96208333D01*
X149407261Y-96255952D01*
X149359642Y-96351190D01*
X149359642Y-96636904D01*
X149407261Y-96732142D01*
X149454880Y-96779761D01*
X149550119Y-96827380D01*
X149740595Y-96827380D01*
X149835833Y-96779761D01*
X148788214Y-96827380D02*
X148883452Y-96779761D01*
X148931071Y-96684523D01*
X148931071Y-95827380D01*
X148264404Y-96827380D02*
X148359642Y-96779761D01*
X148407261Y-96732142D01*
X148454880Y-96636904D01*
X148454880Y-96351190D01*
X148407261Y-96255952D01*
X148359642Y-96208333D01*
X148264404Y-96160714D01*
X148121547Y-96160714D01*
X148026309Y-96208333D01*
X147978690Y-96255952D01*
X147931071Y-96351190D01*
X147931071Y-96636904D01*
X147978690Y-96732142D01*
X148026309Y-96779761D01*
X148121547Y-96827380D01*
X148264404Y-96827380D01*
X147502500Y-96827380D02*
X147502500Y-95827380D01*
X147407261Y-96446428D02*
X147121547Y-96827380D01*
X147121547Y-96160714D02*
X147502500Y-96541666D01*
X146692976Y-96827380D02*
X146692976Y-95827380D01*
X146692976Y-96208333D02*
X146597738Y-96160714D01*
X146407261Y-96160714D01*
X146312023Y-96208333D01*
X146264404Y-96255952D01*
X146216785Y-96351190D01*
X146216785Y-96636904D01*
X146264404Y-96732142D01*
X146312023Y-96779761D01*
X146407261Y-96827380D01*
X146597738Y-96827380D01*
X146692976Y-96779761D01*
X145073928Y-95779761D02*
X145931071Y-97065476D01*
X144740595Y-96160714D02*
X144740595Y-97160714D01*
X144740595Y-96208333D02*
X144645357Y-96160714D01*
X144454880Y-96160714D01*
X144359642Y-96208333D01*
X144312023Y-96255952D01*
X144264404Y-96351190D01*
X144264404Y-96636904D01*
X144312023Y-96732142D01*
X144359642Y-96779761D01*
X144454880Y-96827380D01*
X144645357Y-96827380D01*
X144740595Y-96779761D01*
X143407261Y-96779761D02*
X143502500Y-96827380D01*
X143692976Y-96827380D01*
X143788214Y-96779761D01*
X143835833Y-96732142D01*
X143883452Y-96636904D01*
X143883452Y-96351190D01*
X143835833Y-96255952D01*
X143788214Y-96208333D01*
X143692976Y-96160714D01*
X143502500Y-96160714D01*
X143407261Y-96208333D01*
X142978690Y-96827380D02*
X142978690Y-95827380D01*
X142978690Y-96208333D02*
X142883452Y-96160714D01*
X142692976Y-96160714D01*
X142597738Y-96208333D01*
X142550119Y-96255952D01*
X142502500Y-96351190D01*
X142502500Y-96636904D01*
X142550119Y-96732142D01*
X142597738Y-96779761D01*
X142692976Y-96827380D01*
X142883452Y-96827380D01*
X142978690Y-96779761D01*
X142073928Y-96446428D02*
X141312023Y-96446428D01*
X140835833Y-96827380D02*
X140835833Y-95827380D01*
X140835833Y-96208333D02*
X140740595Y-96160714D01*
X140550119Y-96160714D01*
X140454880Y-96208333D01*
X140407261Y-96255952D01*
X140359642Y-96351190D01*
X140359642Y-96636904D01*
X140407261Y-96732142D01*
X140454880Y-96779761D01*
X140550119Y-96827380D01*
X140740595Y-96827380D01*
X140835833Y-96779761D01*
X139502500Y-96160714D02*
X139502500Y-96827380D01*
X139931071Y-96160714D02*
X139931071Y-96684523D01*
X139883452Y-96779761D01*
X139788214Y-96827380D01*
X139645357Y-96827380D01*
X139550119Y-96779761D01*
X139502500Y-96732142D01*
X139169166Y-96160714D02*
X138788214Y-96160714D01*
X139026309Y-95827380D02*
X139026309Y-96684523D01*
X138978690Y-96779761D01*
X138883452Y-96827380D01*
X138788214Y-96827380D01*
X138597738Y-96160714D02*
X138216785Y-96160714D01*
X138454880Y-95827380D02*
X138454880Y-96684523D01*
X138407261Y-96779761D01*
X138312023Y-96827380D01*
X138216785Y-96827380D01*
X137740595Y-96827380D02*
X137835833Y-96779761D01*
X137883452Y-96732142D01*
X137931071Y-96636904D01*
X137931071Y-96351190D01*
X137883452Y-96255952D01*
X137835833Y-96208333D01*
X137740595Y-96160714D01*
X137597738Y-96160714D01*
X137502500Y-96208333D01*
X137454880Y-96255952D01*
X137407261Y-96351190D01*
X137407261Y-96636904D01*
X137454880Y-96732142D01*
X137502500Y-96779761D01*
X137597738Y-96827380D01*
X137740595Y-96827380D01*
X136978690Y-96160714D02*
X136978690Y-96827380D01*
X136978690Y-96255952D02*
X136931071Y-96208333D01*
X136835833Y-96160714D01*
X136692976Y-96160714D01*
X136597738Y-96208333D01*
X136550119Y-96303571D01*
X136550119Y-96827380D01*
X136073928Y-96827380D02*
X136073928Y-95827380D01*
X136073928Y-96208333D02*
X135978690Y-96160714D01*
X135788214Y-96160714D01*
X135692976Y-96208333D01*
X135645357Y-96255952D01*
X135597738Y-96351190D01*
X135597738Y-96636904D01*
X135645357Y-96732142D01*
X135692976Y-96779761D01*
X135788214Y-96827380D01*
X135978690Y-96827380D01*
X136073928Y-96779761D01*
X134740595Y-96827380D02*
X134740595Y-96303571D01*
X134788214Y-96208333D01*
X134883452Y-96160714D01*
X135073928Y-96160714D01*
X135169166Y-96208333D01*
X134740595Y-96779761D02*
X134835833Y-96827380D01*
X135073928Y-96827380D01*
X135169166Y-96779761D01*
X135216785Y-96684523D01*
X135216785Y-96589285D01*
X135169166Y-96494047D01*
X135073928Y-96446428D01*
X134835833Y-96446428D01*
X134740595Y-96398809D01*
X134264404Y-96827380D02*
X134264404Y-96160714D01*
X134264404Y-96351190D02*
X134216785Y-96255952D01*
X134169166Y-96208333D01*
X134073928Y-96160714D01*
X133978690Y-96160714D01*
X166692976Y-98477380D02*
X167026309Y-98001190D01*
X167264404Y-98477380D02*
X167264404Y-97477380D01*
X166883452Y-97477380D01*
X166788214Y-97525000D01*
X166740595Y-97572619D01*
X166692976Y-97667857D01*
X166692976Y-97810714D01*
X166740595Y-97905952D01*
X166788214Y-97953571D01*
X166883452Y-98001190D01*
X167264404Y-98001190D01*
X165883452Y-98429761D02*
X165978690Y-98477380D01*
X166169166Y-98477380D01*
X166264404Y-98429761D01*
X166312023Y-98334523D01*
X166312023Y-97953571D01*
X166264404Y-97858333D01*
X166169166Y-97810714D01*
X165978690Y-97810714D01*
X165883452Y-97858333D01*
X165835833Y-97953571D01*
X165835833Y-98048809D01*
X166312023Y-98144047D01*
X165502500Y-97810714D02*
X165264404Y-98477380D01*
X165026309Y-97810714D01*
X163359642Y-98477380D02*
X163931071Y-98477380D01*
X163645357Y-98477380D02*
X163645357Y-97477380D01*
X163740595Y-97620238D01*
X163835833Y-97715476D01*
X163931071Y-97763095D01*
X162931071Y-98382142D02*
X162883452Y-98429761D01*
X162931071Y-98477380D01*
X162978690Y-98429761D01*
X162931071Y-98382142D01*
X162931071Y-98477380D01*
X161931071Y-98477380D02*
X162502500Y-98477380D01*
X162216785Y-98477380D02*
X162216785Y-97477380D01*
X162312023Y-97620238D01*
X162407261Y-97715476D01*
X162502500Y-97763095D01*
X170871428Y-79061904D02*
X171328571Y-79061904D01*
X171100000Y-79061904D02*
X171100000Y-78261904D01*
X171176190Y-78376190D01*
X171252380Y-78452380D01*
X171328571Y-78490476D01*
D11*
X165959420Y-79010000D02*
X166240580Y-79010000D01*
X165959420Y-77990000D02*
X166240580Y-77990000D01*
X151490000Y-86259420D02*
X151490000Y-86540580D01*
X152510000Y-86259420D02*
X152510000Y-86540580D01*
X135990000Y-86259420D02*
X135990000Y-86540580D01*
X137010000Y-86259420D02*
X137010000Y-86540580D01*
X120490000Y-86259420D02*
X120490000Y-86540580D01*
X121510000Y-86259420D02*
X121510000Y-86540580D01*
X162710000Y-61240580D02*
X162710000Y-60959420D01*
X161690000Y-61240580D02*
X161690000Y-60959420D01*
X147210000Y-61240580D02*
X147210000Y-60959420D01*
X146190000Y-61240580D02*
X146190000Y-60959420D01*
X131710000Y-61240580D02*
X131710000Y-60959420D01*
X130690000Y-61240580D02*
X130690000Y-60959420D01*
X167900000Y-88335000D02*
X165950000Y-88335000D01*
X167900000Y-88335000D02*
X169850000Y-88335000D01*
X167900000Y-79465000D02*
X165950000Y-79465000D01*
X167900000Y-79465000D02*
X171350000Y-79465000D01*
X152522500Y-83437258D02*
X152522500Y-82962742D01*
X151477500Y-83437258D02*
X151477500Y-82962742D01*
X151477500Y-79762742D02*
X151477500Y-80237258D01*
X152522500Y-79762742D02*
X152522500Y-80237258D01*
X137022500Y-83437258D02*
X137022500Y-82962742D01*
X135977500Y-83437258D02*
X135977500Y-82962742D01*
X135977500Y-79762742D02*
X135977500Y-80237258D01*
X137022500Y-79762742D02*
X137022500Y-80237258D01*
X121522500Y-83437258D02*
X121522500Y-82962742D01*
X120477500Y-83437258D02*
X120477500Y-82962742D01*
X120477500Y-79762742D02*
X120477500Y-80237258D01*
X121522500Y-79762742D02*
X121522500Y-80237258D01*
X161677500Y-64162742D02*
X161677500Y-64637258D01*
X162722500Y-64162742D02*
X162722500Y-64637258D01*
X162722500Y-67937258D02*
X162722500Y-67462742D01*
X161677500Y-67937258D02*
X161677500Y-67462742D01*
X146177500Y-64162742D02*
X146177500Y-64637258D01*
X147222500Y-64162742D02*
X147222500Y-64637258D01*
X147222500Y-67937258D02*
X147222500Y-67462742D01*
X146177500Y-67937258D02*
X146177500Y-67462742D01*
X130677500Y-64162742D02*
X130677500Y-64637258D01*
X131722500Y-64162742D02*
X131722500Y-64637258D01*
X131722500Y-67937258D02*
X131722500Y-67462742D01*
X130677500Y-67937258D02*
X130677500Y-67462742D01*
X114130000Y-81330000D02*
X111470000Y-81330000D01*
X114130000Y-68570000D02*
X114130000Y-81330000D01*
X111470000Y-68570000D02*
X111470000Y-81330000D01*
X114130000Y-68570000D02*
X111470000Y-68570000D01*
X114130000Y-67300000D02*
X114130000Y-65970000D01*
X114130000Y-65970000D02*
X112800000Y-65970000D01*
X167070000Y-55690000D02*
X169730000Y-55690000D01*
X167070000Y-73530000D02*
X167070000Y-55690000D01*
X169730000Y-73530000D02*
X169730000Y-55690000D01*
X167070000Y-73530000D02*
X169730000Y-73530000D01*
X167070000Y-74800000D02*
X167070000Y-76130000D01*
X167070000Y-76130000D02*
X168400000Y-76130000D01*
D10*
X163766666Y-78857142D02*
X163814285Y-78904761D01*
X163957142Y-78952380D01*
X164052380Y-78952380D01*
X164195238Y-78904761D01*
X164290476Y-78809523D01*
X164338095Y-78714285D01*
X164385714Y-78523809D01*
X164385714Y-78380952D01*
X164338095Y-78190476D01*
X164290476Y-78095238D01*
X164195238Y-78000000D01*
X164052380Y-77952380D01*
X163957142Y-77952380D01*
X163814285Y-78000000D01*
X163766666Y-78047619D01*
X163433333Y-77952380D02*
X162766666Y-77952380D01*
X163195238Y-78952380D01*
X150927142Y-86233333D02*
X150974761Y-86185714D01*
X151022380Y-86042857D01*
X151022380Y-85947619D01*
X150974761Y-85804761D01*
X150879523Y-85709523D01*
X150784285Y-85661904D01*
X150593809Y-85614285D01*
X150450952Y-85614285D01*
X150260476Y-85661904D01*
X150165238Y-85709523D01*
X150070000Y-85804761D01*
X150022380Y-85947619D01*
X150022380Y-86042857D01*
X150070000Y-86185714D01*
X150117619Y-86233333D01*
X150022380Y-87090476D02*
X150022380Y-86900000D01*
X150070000Y-86804761D01*
X150117619Y-86757142D01*
X150260476Y-86661904D01*
X150450952Y-86614285D01*
X150831904Y-86614285D01*
X150927142Y-86661904D01*
X150974761Y-86709523D01*
X151022380Y-86804761D01*
X151022380Y-86995238D01*
X150974761Y-87090476D01*
X150927142Y-87138095D01*
X150831904Y-87185714D01*
X150593809Y-87185714D01*
X150498571Y-87138095D01*
X150450952Y-87090476D01*
X150403333Y-86995238D01*
X150403333Y-86804761D01*
X150450952Y-86709523D01*
X150498571Y-86661904D01*
X150593809Y-86614285D01*
X135427142Y-86233333D02*
X135474761Y-86185714D01*
X135522380Y-86042857D01*
X135522380Y-85947619D01*
X135474761Y-85804761D01*
X135379523Y-85709523D01*
X135284285Y-85661904D01*
X135093809Y-85614285D01*
X134950952Y-85614285D01*
X134760476Y-85661904D01*
X134665238Y-85709523D01*
X134570000Y-85804761D01*
X134522380Y-85947619D01*
X134522380Y-86042857D01*
X134570000Y-86185714D01*
X134617619Y-86233333D01*
X134522380Y-87138095D02*
X134522380Y-86661904D01*
X134998571Y-86614285D01*
X134950952Y-86661904D01*
X134903333Y-86757142D01*
X134903333Y-86995238D01*
X134950952Y-87090476D01*
X134998571Y-87138095D01*
X135093809Y-87185714D01*
X135331904Y-87185714D01*
X135427142Y-87138095D01*
X135474761Y-87090476D01*
X135522380Y-86995238D01*
X135522380Y-86757142D01*
X135474761Y-86661904D01*
X135427142Y-86614285D01*
X119927142Y-86233333D02*
X119974761Y-86185714D01*
X120022380Y-86042857D01*
X120022380Y-85947619D01*
X119974761Y-85804761D01*
X119879523Y-85709523D01*
X119784285Y-85661904D01*
X119593809Y-85614285D01*
X119450952Y-85614285D01*
X119260476Y-85661904D01*
X119165238Y-85709523D01*
X119070000Y-85804761D01*
X119022380Y-85947619D01*
X119022380Y-86042857D01*
X119070000Y-86185714D01*
X119117619Y-86233333D01*
X119355714Y-87090476D02*
X120022380Y-87090476D01*
X118974761Y-86852380D02*
X119689047Y-86614285D01*
X119689047Y-87233333D01*
X163987142Y-60933333D02*
X164034761Y-60885714D01*
X164082380Y-60742857D01*
X164082380Y-60647619D01*
X164034761Y-60504761D01*
X163939523Y-60409523D01*
X163844285Y-60361904D01*
X163653809Y-60314285D01*
X163510952Y-60314285D01*
X163320476Y-60361904D01*
X163225238Y-60409523D01*
X163130000Y-60504761D01*
X163082380Y-60647619D01*
X163082380Y-60742857D01*
X163130000Y-60885714D01*
X163177619Y-60933333D01*
X163082380Y-61266666D02*
X163082380Y-61885714D01*
X163463333Y-61552380D01*
X163463333Y-61695238D01*
X163510952Y-61790476D01*
X163558571Y-61838095D01*
X163653809Y-61885714D01*
X163891904Y-61885714D01*
X163987142Y-61838095D01*
X164034761Y-61790476D01*
X164082380Y-61695238D01*
X164082380Y-61409523D01*
X164034761Y-61314285D01*
X163987142Y-61266666D01*
X148487142Y-60933333D02*
X148534761Y-60885714D01*
X148582380Y-60742857D01*
X148582380Y-60647619D01*
X148534761Y-60504761D01*
X148439523Y-60409523D01*
X148344285Y-60361904D01*
X148153809Y-60314285D01*
X148010952Y-60314285D01*
X147820476Y-60361904D01*
X147725238Y-60409523D01*
X147630000Y-60504761D01*
X147582380Y-60647619D01*
X147582380Y-60742857D01*
X147630000Y-60885714D01*
X147677619Y-60933333D01*
X147677619Y-61314285D02*
X147630000Y-61361904D01*
X147582380Y-61457142D01*
X147582380Y-61695238D01*
X147630000Y-61790476D01*
X147677619Y-61838095D01*
X147772857Y-61885714D01*
X147868095Y-61885714D01*
X148010952Y-61838095D01*
X148582380Y-61266666D01*
X148582380Y-61885714D01*
X132987142Y-60933333D02*
X133034761Y-60885714D01*
X133082380Y-60742857D01*
X133082380Y-60647619D01*
X133034761Y-60504761D01*
X132939523Y-60409523D01*
X132844285Y-60361904D01*
X132653809Y-60314285D01*
X132510952Y-60314285D01*
X132320476Y-60361904D01*
X132225238Y-60409523D01*
X132130000Y-60504761D01*
X132082380Y-60647619D01*
X132082380Y-60742857D01*
X132130000Y-60885714D01*
X132177619Y-60933333D01*
X133082380Y-61885714D02*
X133082380Y-61314285D01*
X133082380Y-61600000D02*
X132082380Y-61600000D01*
X132225238Y-61504761D01*
X132320476Y-61409523D01*
X132368095Y-61314285D01*
X169461904Y-78052380D02*
X169461904Y-78861904D01*
X169414285Y-78957142D01*
X169366666Y-79004761D01*
X169271428Y-79052380D01*
X169080952Y-79052380D01*
X168985714Y-79004761D01*
X168938095Y-78957142D01*
X168890476Y-78861904D01*
X168890476Y-78052380D01*
X167890476Y-79052380D02*
X168461904Y-79052380D01*
X168176190Y-79052380D02*
X168176190Y-78052380D01*
X168271428Y-78195238D01*
X168366666Y-78290476D01*
X168461904Y-78338095D01*
X151052380Y-82857142D02*
X150576190Y-82523809D01*
X151052380Y-82285714D02*
X150052380Y-82285714D01*
X150052380Y-82666666D01*
X150100000Y-82761904D01*
X150147619Y-82809523D01*
X150242857Y-82857142D01*
X150385714Y-82857142D01*
X150480952Y-82809523D01*
X150528571Y-82761904D01*
X150576190Y-82666666D01*
X150576190Y-82285714D01*
X151052380Y-83809523D02*
X151052380Y-83238095D01*
X151052380Y-83523809D02*
X150052380Y-83523809D01*
X150195238Y-83428571D01*
X150290476Y-83333333D01*
X150338095Y-83238095D01*
X150147619Y-84190476D02*
X150100000Y-84238095D01*
X150052380Y-84333333D01*
X150052380Y-84571428D01*
X150100000Y-84666666D01*
X150147619Y-84714285D01*
X150242857Y-84761904D01*
X150338095Y-84761904D01*
X150480952Y-84714285D01*
X151052380Y-84142857D01*
X151052380Y-84761904D01*
X151022380Y-79357142D02*
X150546190Y-79023809D01*
X151022380Y-78785714D02*
X150022380Y-78785714D01*
X150022380Y-79166666D01*
X150070000Y-79261904D01*
X150117619Y-79309523D01*
X150212857Y-79357142D01*
X150355714Y-79357142D01*
X150450952Y-79309523D01*
X150498571Y-79261904D01*
X150546190Y-79166666D01*
X150546190Y-78785714D01*
X151022380Y-80309523D02*
X151022380Y-79738095D01*
X151022380Y-80023809D02*
X150022380Y-80023809D01*
X150165238Y-79928571D01*
X150260476Y-79833333D01*
X150308095Y-79738095D01*
X151022380Y-81261904D02*
X151022380Y-80690476D01*
X151022380Y-80976190D02*
X150022380Y-80976190D01*
X150165238Y-80880952D01*
X150260476Y-80785714D01*
X150308095Y-80690476D01*
X135552380Y-82957142D02*
X135076190Y-82623809D01*
X135552380Y-82385714D02*
X134552380Y-82385714D01*
X134552380Y-82766666D01*
X134600000Y-82861904D01*
X134647619Y-82909523D01*
X134742857Y-82957142D01*
X134885714Y-82957142D01*
X134980952Y-82909523D01*
X135028571Y-82861904D01*
X135076190Y-82766666D01*
X135076190Y-82385714D01*
X135552380Y-83909523D02*
X135552380Y-83338095D01*
X135552380Y-83623809D02*
X134552380Y-83623809D01*
X134695238Y-83528571D01*
X134790476Y-83433333D01*
X134838095Y-83338095D01*
X134552380Y-84528571D02*
X134552380Y-84623809D01*
X134600000Y-84719047D01*
X134647619Y-84766666D01*
X134742857Y-84814285D01*
X134933333Y-84861904D01*
X135171428Y-84861904D01*
X135361904Y-84814285D01*
X135457142Y-84766666D01*
X135504761Y-84719047D01*
X135552380Y-84623809D01*
X135552380Y-84528571D01*
X135504761Y-84433333D01*
X135457142Y-84385714D01*
X135361904Y-84338095D01*
X135171428Y-84290476D01*
X134933333Y-84290476D01*
X134742857Y-84338095D01*
X134647619Y-84385714D01*
X134600000Y-84433333D01*
X134552380Y-84528571D01*
X135522380Y-79833333D02*
X135046190Y-79500000D01*
X135522380Y-79261904D02*
X134522380Y-79261904D01*
X134522380Y-79642857D01*
X134570000Y-79738095D01*
X134617619Y-79785714D01*
X134712857Y-79833333D01*
X134855714Y-79833333D01*
X134950952Y-79785714D01*
X134998571Y-79738095D01*
X135046190Y-79642857D01*
X135046190Y-79261904D01*
X135522380Y-80309523D02*
X135522380Y-80500000D01*
X135474761Y-80595238D01*
X135427142Y-80642857D01*
X135284285Y-80738095D01*
X135093809Y-80785714D01*
X134712857Y-80785714D01*
X134617619Y-80738095D01*
X134570000Y-80690476D01*
X134522380Y-80595238D01*
X134522380Y-80404761D01*
X134570000Y-80309523D01*
X134617619Y-80261904D01*
X134712857Y-80214285D01*
X134950952Y-80214285D01*
X135046190Y-80261904D01*
X135093809Y-80309523D01*
X135141428Y-80404761D01*
X135141428Y-80595238D01*
X135093809Y-80690476D01*
X135046190Y-80738095D01*
X134950952Y-80785714D01*
X120052380Y-82933333D02*
X119576190Y-82600000D01*
X120052380Y-82361904D02*
X119052380Y-82361904D01*
X119052380Y-82742857D01*
X119100000Y-82838095D01*
X119147619Y-82885714D01*
X119242857Y-82933333D01*
X119385714Y-82933333D01*
X119480952Y-82885714D01*
X119528571Y-82838095D01*
X119576190Y-82742857D01*
X119576190Y-82361904D01*
X119480952Y-83504761D02*
X119433333Y-83409523D01*
X119385714Y-83361904D01*
X119290476Y-83314285D01*
X119242857Y-83314285D01*
X119147619Y-83361904D01*
X119100000Y-83409523D01*
X119052380Y-83504761D01*
X119052380Y-83695238D01*
X119100000Y-83790476D01*
X119147619Y-83838095D01*
X119242857Y-83885714D01*
X119290476Y-83885714D01*
X119385714Y-83838095D01*
X119433333Y-83790476D01*
X119480952Y-83695238D01*
X119480952Y-83504761D01*
X119528571Y-83409523D01*
X119576190Y-83361904D01*
X119671428Y-83314285D01*
X119861904Y-83314285D01*
X119957142Y-83361904D01*
X120004761Y-83409523D01*
X120052380Y-83504761D01*
X120052380Y-83695238D01*
X120004761Y-83790476D01*
X119957142Y-83838095D01*
X119861904Y-83885714D01*
X119671428Y-83885714D01*
X119576190Y-83838095D01*
X119528571Y-83790476D01*
X119480952Y-83695238D01*
X120022380Y-79833333D02*
X119546190Y-79500000D01*
X120022380Y-79261904D02*
X119022380Y-79261904D01*
X119022380Y-79642857D01*
X119070000Y-79738095D01*
X119117619Y-79785714D01*
X119212857Y-79833333D01*
X119355714Y-79833333D01*
X119450952Y-79785714D01*
X119498571Y-79738095D01*
X119546190Y-79642857D01*
X119546190Y-79261904D01*
X119022380Y-80166666D02*
X119022380Y-80833333D01*
X120022380Y-80404761D01*
X164152380Y-64333333D02*
X163676190Y-64000000D01*
X164152380Y-63761904D02*
X163152380Y-63761904D01*
X163152380Y-64142857D01*
X163200000Y-64238095D01*
X163247619Y-64285714D01*
X163342857Y-64333333D01*
X163485714Y-64333333D01*
X163580952Y-64285714D01*
X163628571Y-64238095D01*
X163676190Y-64142857D01*
X163676190Y-63761904D01*
X163152380Y-65190476D02*
X163152380Y-65000000D01*
X163200000Y-64904761D01*
X163247619Y-64857142D01*
X163390476Y-64761904D01*
X163580952Y-64714285D01*
X163961904Y-64714285D01*
X164057142Y-64761904D01*
X164104761Y-64809523D01*
X164152380Y-64904761D01*
X164152380Y-65095238D01*
X164104761Y-65190476D01*
X164057142Y-65238095D01*
X163961904Y-65285714D01*
X163723809Y-65285714D01*
X163628571Y-65238095D01*
X163580952Y-65190476D01*
X163533333Y-65095238D01*
X163533333Y-64904761D01*
X163580952Y-64809523D01*
X163628571Y-64761904D01*
X163723809Y-64714285D01*
X164082380Y-67533333D02*
X163606190Y-67200000D01*
X164082380Y-66961904D02*
X163082380Y-66961904D01*
X163082380Y-67342857D01*
X163130000Y-67438095D01*
X163177619Y-67485714D01*
X163272857Y-67533333D01*
X163415714Y-67533333D01*
X163510952Y-67485714D01*
X163558571Y-67438095D01*
X163606190Y-67342857D01*
X163606190Y-66961904D01*
X163082380Y-68438095D02*
X163082380Y-67961904D01*
X163558571Y-67914285D01*
X163510952Y-67961904D01*
X163463333Y-68057142D01*
X163463333Y-68295238D01*
X163510952Y-68390476D01*
X163558571Y-68438095D01*
X163653809Y-68485714D01*
X163891904Y-68485714D01*
X163987142Y-68438095D01*
X164034761Y-68390476D01*
X164082380Y-68295238D01*
X164082380Y-68057142D01*
X164034761Y-67961904D01*
X163987142Y-67914285D01*
X148552380Y-64133333D02*
X148076190Y-63800000D01*
X148552380Y-63561904D02*
X147552380Y-63561904D01*
X147552380Y-63942857D01*
X147600000Y-64038095D01*
X147647619Y-64085714D01*
X147742857Y-64133333D01*
X147885714Y-64133333D01*
X147980952Y-64085714D01*
X148028571Y-64038095D01*
X148076190Y-63942857D01*
X148076190Y-63561904D01*
X147885714Y-64990476D02*
X148552380Y-64990476D01*
X147504761Y-64752380D02*
X148219047Y-64514285D01*
X148219047Y-65133333D01*
X148582380Y-67533333D02*
X148106190Y-67200000D01*
X148582380Y-66961904D02*
X147582380Y-66961904D01*
X147582380Y-67342857D01*
X147630000Y-67438095D01*
X147677619Y-67485714D01*
X147772857Y-67533333D01*
X147915714Y-67533333D01*
X148010952Y-67485714D01*
X148058571Y-67438095D01*
X148106190Y-67342857D01*
X148106190Y-66961904D01*
X147582380Y-67866666D02*
X147582380Y-68485714D01*
X147963333Y-68152380D01*
X147963333Y-68295238D01*
X148010952Y-68390476D01*
X148058571Y-68438095D01*
X148153809Y-68485714D01*
X148391904Y-68485714D01*
X148487142Y-68438095D01*
X148534761Y-68390476D01*
X148582380Y-68295238D01*
X148582380Y-68009523D01*
X148534761Y-67914285D01*
X148487142Y-67866666D01*
X133052380Y-64433333D02*
X132576190Y-64100000D01*
X133052380Y-63861904D02*
X132052380Y-63861904D01*
X132052380Y-64242857D01*
X132100000Y-64338095D01*
X132147619Y-64385714D01*
X132242857Y-64433333D01*
X132385714Y-64433333D01*
X132480952Y-64385714D01*
X132528571Y-64338095D01*
X132576190Y-64242857D01*
X132576190Y-63861904D01*
X132147619Y-64814285D02*
X132100000Y-64861904D01*
X132052380Y-64957142D01*
X132052380Y-65195238D01*
X132100000Y-65290476D01*
X132147619Y-65338095D01*
X132242857Y-65385714D01*
X132338095Y-65385714D01*
X132480952Y-65338095D01*
X133052380Y-64766666D01*
X133052380Y-65385714D01*
X133082380Y-67533333D02*
X132606190Y-67200000D01*
X133082380Y-66961904D02*
X132082380Y-66961904D01*
X132082380Y-67342857D01*
X132130000Y-67438095D01*
X132177619Y-67485714D01*
X132272857Y-67533333D01*
X132415714Y-67533333D01*
X132510952Y-67485714D01*
X132558571Y-67438095D01*
X132606190Y-67342857D01*
X132606190Y-66961904D01*
X133082380Y-68485714D02*
X133082380Y-67914285D01*
X133082380Y-68200000D02*
X132082380Y-68200000D01*
X132225238Y-68104761D01*
X132320476Y-68009523D01*
X132368095Y-67914285D01*
M02*
