G04 #@! TF.GenerationSoftware,KiCad,Pcbnew,5.1.10-5.1.10*
G04 #@! TF.CreationDate,2021-10-08T15:20:13+02:00*
G04 #@! TF.ProjectId,buttonbar,62757474-6f6e-4626-9172-2e6b69636164,1.1*
G04 #@! TF.SameCoordinates,Original*
G04 #@! TF.FileFunction,Legend,Top*
G04 #@! TF.FilePolarity,Positive*
%FSLAX46Y46*%
G04 Gerber Fmt 4.6, Leading zero omitted, Abs format (unit mm)*
G04 Created by KiCad (PCBNEW 5.1.10-5.1.10) date 2021-10-08 15:20:13*
%MOMM*%
%LPD*%
G01*
G04 APERTURE LIST*
%ADD10C,0.150000*%
%ADD11C,0.120000*%
G04 APERTURE END LIST*
D10*
X112209342Y-64892180D02*
X111733152Y-64892180D01*
X111733152Y-63892180D01*
X112542676Y-64368371D02*
X112876009Y-64368371D01*
X113018866Y-64892180D02*
X112542676Y-64892180D01*
X112542676Y-63892180D01*
X113018866Y-63892180D01*
X113447438Y-64892180D02*
X113447438Y-63892180D01*
X113685533Y-63892180D01*
X113828390Y-63939800D01*
X113923628Y-64035038D01*
X113971247Y-64130276D01*
X114018866Y-64320752D01*
X114018866Y-64463609D01*
X113971247Y-64654085D01*
X113923628Y-64749323D01*
X113828390Y-64844561D01*
X113685533Y-64892180D01*
X113447438Y-64892180D01*
X167644866Y-54081371D02*
X167787723Y-54128990D01*
X167835342Y-54176609D01*
X167882961Y-54271847D01*
X167882961Y-54414704D01*
X167835342Y-54509942D01*
X167787723Y-54557561D01*
X167692485Y-54605180D01*
X167311533Y-54605180D01*
X167311533Y-53605180D01*
X167644866Y-53605180D01*
X167740104Y-53652800D01*
X167787723Y-53700419D01*
X167835342Y-53795657D01*
X167835342Y-53890895D01*
X167787723Y-53986133D01*
X167740104Y-54033752D01*
X167644866Y-54081371D01*
X167311533Y-54081371D01*
X168168676Y-53605180D02*
X168740104Y-53605180D01*
X168454390Y-54605180D02*
X168454390Y-53605180D01*
X169073438Y-54605180D02*
X169073438Y-53605180D01*
X169644866Y-54605180D01*
X169644866Y-53605180D01*
X115565804Y-67684880D02*
X114994376Y-67684880D01*
X115280090Y-67684880D02*
X115280090Y-66684880D01*
X115184852Y-66827738D01*
X115089614Y-66922976D01*
X114994376Y-66970595D01*
X114994376Y-69320119D02*
X115041995Y-69272500D01*
X115137233Y-69224880D01*
X115375328Y-69224880D01*
X115470566Y-69272500D01*
X115518185Y-69320119D01*
X115565804Y-69415357D01*
X115565804Y-69510595D01*
X115518185Y-69653452D01*
X114946757Y-70224880D01*
X115565804Y-70224880D01*
X114946757Y-71764880D02*
X115565804Y-71764880D01*
X115232471Y-72145833D01*
X115375328Y-72145833D01*
X115470566Y-72193452D01*
X115518185Y-72241071D01*
X115565804Y-72336309D01*
X115565804Y-72574404D01*
X115518185Y-72669642D01*
X115470566Y-72717261D01*
X115375328Y-72764880D01*
X115089614Y-72764880D01*
X114994376Y-72717261D01*
X114946757Y-72669642D01*
X115470566Y-74638214D02*
X115470566Y-75304880D01*
X115232471Y-74257261D02*
X114994376Y-74971547D01*
X115613423Y-74971547D01*
X115518185Y-76844880D02*
X115041995Y-76844880D01*
X114994376Y-77321071D01*
X115041995Y-77273452D01*
X115137233Y-77225833D01*
X115375328Y-77225833D01*
X115470566Y-77273452D01*
X115518185Y-77321071D01*
X115565804Y-77416309D01*
X115565804Y-77654404D01*
X115518185Y-77749642D01*
X115470566Y-77797261D01*
X115375328Y-77844880D01*
X115137233Y-77844880D01*
X115041995Y-77797261D01*
X114994376Y-77749642D01*
X115470566Y-79384880D02*
X115280090Y-79384880D01*
X115184852Y-79432500D01*
X115137233Y-79480119D01*
X115041995Y-79622976D01*
X114994376Y-79813452D01*
X114994376Y-80194404D01*
X115041995Y-80289642D01*
X115089614Y-80337261D01*
X115184852Y-80384880D01*
X115375328Y-80384880D01*
X115470566Y-80337261D01*
X115518185Y-80289642D01*
X115565804Y-80194404D01*
X115565804Y-79956309D01*
X115518185Y-79861071D01*
X115470566Y-79813452D01*
X115375328Y-79765833D01*
X115184852Y-79765833D01*
X115089614Y-79813452D01*
X115041995Y-79861071D01*
X114994376Y-79956309D01*
X170601338Y-74184880D02*
X170934671Y-75184880D01*
X171268004Y-74184880D01*
X172029909Y-75137261D02*
X171934671Y-75184880D01*
X171744195Y-75184880D01*
X171648957Y-75137261D01*
X171601338Y-75089642D01*
X171553719Y-74994404D01*
X171553719Y-74708690D01*
X171601338Y-74613452D01*
X171648957Y-74565833D01*
X171744195Y-74518214D01*
X171934671Y-74518214D01*
X172029909Y-74565833D01*
X172887052Y-75137261D02*
X172791814Y-75184880D01*
X172601338Y-75184880D01*
X172506100Y-75137261D01*
X172458480Y-75089642D01*
X172410861Y-74994404D01*
X172410861Y-74708690D01*
X172458480Y-74613452D01*
X172506100Y-74565833D01*
X172601338Y-74518214D01*
X172791814Y-74518214D01*
X172887052Y-74565833D01*
X171172766Y-64358214D02*
X171172766Y-65024880D01*
X170934671Y-63977261D02*
X170696576Y-64691547D01*
X171315623Y-64691547D01*
X171268004Y-72644880D02*
X170696576Y-72644880D01*
X170982290Y-72644880D02*
X170982290Y-71644880D01*
X170887052Y-71787738D01*
X170791814Y-71882976D01*
X170696576Y-71930595D01*
X170696576Y-69200119D02*
X170744195Y-69152500D01*
X170839433Y-69104880D01*
X171077528Y-69104880D01*
X171172766Y-69152500D01*
X171220385Y-69200119D01*
X171268004Y-69295357D01*
X171268004Y-69390595D01*
X171220385Y-69533452D01*
X170648957Y-70104880D01*
X171268004Y-70104880D01*
X170648957Y-66564880D02*
X171268004Y-66564880D01*
X170934671Y-66945833D01*
X171077528Y-66945833D01*
X171172766Y-66993452D01*
X171220385Y-67041071D01*
X171268004Y-67136309D01*
X171268004Y-67374404D01*
X171220385Y-67469642D01*
X171172766Y-67517261D01*
X171077528Y-67564880D01*
X170791814Y-67564880D01*
X170696576Y-67517261D01*
X170648957Y-67469642D01*
X171220385Y-61484880D02*
X170744195Y-61484880D01*
X170696576Y-61961071D01*
X170744195Y-61913452D01*
X170839433Y-61865833D01*
X171077528Y-61865833D01*
X171172766Y-61913452D01*
X171220385Y-61961071D01*
X171268004Y-62056309D01*
X171268004Y-62294404D01*
X171220385Y-62389642D01*
X171172766Y-62437261D01*
X171077528Y-62484880D01*
X170839433Y-62484880D01*
X170744195Y-62437261D01*
X170696576Y-62389642D01*
X171172766Y-58944880D02*
X170982290Y-58944880D01*
X170887052Y-58992500D01*
X170839433Y-59040119D01*
X170744195Y-59182976D01*
X170696576Y-59373452D01*
X170696576Y-59754404D01*
X170744195Y-59849642D01*
X170791814Y-59897261D01*
X170887052Y-59944880D01*
X171077528Y-59944880D01*
X171172766Y-59897261D01*
X171220385Y-59849642D01*
X171268004Y-59754404D01*
X171268004Y-59516309D01*
X171220385Y-59421071D01*
X171172766Y-59373452D01*
X171077528Y-59325833D01*
X170887052Y-59325833D01*
X170791814Y-59373452D01*
X170744195Y-59421071D01*
X170696576Y-59516309D01*
X171268004Y-56624600D02*
X171172766Y-56576980D01*
X171029909Y-56576980D01*
X170887052Y-56624600D01*
X170791814Y-56719838D01*
X170744195Y-56815076D01*
X170696576Y-57005552D01*
X170696576Y-57148409D01*
X170744195Y-57338885D01*
X170791814Y-57434123D01*
X170887052Y-57529361D01*
X171029909Y-57576980D01*
X171125147Y-57576980D01*
X171268004Y-57529361D01*
X171315623Y-57481742D01*
X171315623Y-57148409D01*
X171125147Y-57148409D01*
X171744195Y-57576980D02*
X171744195Y-56576980D01*
X172315623Y-57576980D01*
X172315623Y-56576980D01*
X172791814Y-57576980D02*
X172791814Y-56576980D01*
X173029909Y-56576980D01*
X173172766Y-56624600D01*
X173268004Y-56719838D01*
X173315623Y-56815076D01*
X173363242Y-57005552D01*
X173363242Y-57148409D01*
X173315623Y-57338885D01*
X173268004Y-57434123D01*
X173172766Y-57529361D01*
X173029909Y-57576980D01*
X172791814Y-57576980D01*
D11*
X143640000Y-67620000D02*
G75*
G03*
X143640000Y-67620000I-2000000J0D01*
G01*
X137830000Y-63180000D02*
X145450000Y-63180000D01*
X137830000Y-70700000D02*
X145030000Y-70700000D01*
X137830000Y-63180000D02*
X137830000Y-70700000D01*
X145450000Y-63180000D02*
X145450000Y-70700000D01*
X135450000Y-70700000D02*
X135450000Y-58400000D01*
X140030000Y-58400000D02*
X143170000Y-58400000D01*
X147750000Y-58400000D02*
X147750000Y-70700000D01*
X138170000Y-70700000D02*
X135450000Y-70700000D01*
X146219050Y-64450000D02*
G75*
G03*
X146219050Y-64450000I-4579050J0D01*
G01*
X147750000Y-70700000D02*
X145030000Y-70700000D01*
X143170000Y-70700000D02*
X140030000Y-70700000D01*
X145030000Y-58400000D02*
X147750000Y-58400000D01*
X135450000Y-58400000D02*
X138170000Y-58400000D01*
X128060000Y-79680000D02*
G75*
G03*
X128060000Y-79680000I-2000000J0D01*
G01*
X129870000Y-84120000D02*
X122250000Y-84120000D01*
X129870000Y-76600000D02*
X122670000Y-76600000D01*
X129870000Y-84120000D02*
X129870000Y-76600000D01*
X122250000Y-84120000D02*
X122250000Y-76600000D01*
X132250000Y-76600000D02*
X132250000Y-88900000D01*
X127670000Y-88900000D02*
X124530000Y-88900000D01*
X119950000Y-88900000D02*
X119950000Y-76600000D01*
X129530000Y-76600000D02*
X132250000Y-76600000D01*
X130639050Y-82850000D02*
G75*
G03*
X130639050Y-82850000I-4579050J0D01*
G01*
X119950000Y-76600000D02*
X122670000Y-76600000D01*
X124530000Y-76600000D02*
X127670000Y-76600000D01*
X122670000Y-88900000D02*
X119950000Y-88900000D01*
X132250000Y-88900000D02*
X129530000Y-88900000D01*
X159140000Y-67620000D02*
G75*
G03*
X159140000Y-67620000I-2000000J0D01*
G01*
X153330000Y-63180000D02*
X160950000Y-63180000D01*
X153330000Y-70700000D02*
X160530000Y-70700000D01*
X153330000Y-63180000D02*
X153330000Y-70700000D01*
X160950000Y-63180000D02*
X160950000Y-70700000D01*
X150950000Y-70700000D02*
X150950000Y-58400000D01*
X155530000Y-58400000D02*
X158670000Y-58400000D01*
X163250000Y-58400000D02*
X163250000Y-70700000D01*
X153670000Y-70700000D02*
X150950000Y-70700000D01*
X161719050Y-64450000D02*
G75*
G03*
X161719050Y-64450000I-4579050J0D01*
G01*
X163250000Y-70700000D02*
X160530000Y-70700000D01*
X158670000Y-70700000D02*
X155530000Y-70700000D01*
X160530000Y-58400000D02*
X163250000Y-58400000D01*
X150950000Y-58400000D02*
X153670000Y-58400000D01*
X128140000Y-67620000D02*
G75*
G03*
X128140000Y-67620000I-2000000J0D01*
G01*
X122330000Y-63180000D02*
X129950000Y-63180000D01*
X122330000Y-70700000D02*
X129530000Y-70700000D01*
X122330000Y-63180000D02*
X122330000Y-70700000D01*
X129950000Y-63180000D02*
X129950000Y-70700000D01*
X119950000Y-70700000D02*
X119950000Y-58400000D01*
X124530000Y-58400000D02*
X127670000Y-58400000D01*
X132250000Y-58400000D02*
X132250000Y-70700000D01*
X122670000Y-70700000D02*
X119950000Y-70700000D01*
X130719050Y-64450000D02*
G75*
G03*
X130719050Y-64450000I-4579050J0D01*
G01*
X132250000Y-70700000D02*
X129530000Y-70700000D01*
X127670000Y-70700000D02*
X124530000Y-70700000D01*
X129530000Y-58400000D02*
X132250000Y-58400000D01*
X119950000Y-58400000D02*
X122670000Y-58400000D01*
X143560000Y-79680000D02*
G75*
G03*
X143560000Y-79680000I-2000000J0D01*
G01*
X145370000Y-84120000D02*
X137750000Y-84120000D01*
X145370000Y-76600000D02*
X138170000Y-76600000D01*
X145370000Y-84120000D02*
X145370000Y-76600000D01*
X137750000Y-84120000D02*
X137750000Y-76600000D01*
X147750000Y-76600000D02*
X147750000Y-88900000D01*
X143170000Y-88900000D02*
X140030000Y-88900000D01*
X135450000Y-88900000D02*
X135450000Y-76600000D01*
X145030000Y-76600000D02*
X147750000Y-76600000D01*
X146139050Y-82850000D02*
G75*
G03*
X146139050Y-82850000I-4579050J0D01*
G01*
X135450000Y-76600000D02*
X138170000Y-76600000D01*
X140030000Y-76600000D02*
X143170000Y-76600000D01*
X138170000Y-88900000D02*
X135450000Y-88900000D01*
X147750000Y-88900000D02*
X145030000Y-88900000D01*
X159060000Y-79680000D02*
G75*
G03*
X159060000Y-79680000I-2000000J0D01*
G01*
X160870000Y-84120000D02*
X153250000Y-84120000D01*
X160870000Y-76600000D02*
X153670000Y-76600000D01*
X160870000Y-84120000D02*
X160870000Y-76600000D01*
X153250000Y-84120000D02*
X153250000Y-76600000D01*
X163250000Y-76600000D02*
X163250000Y-88900000D01*
X158670000Y-88900000D02*
X155530000Y-88900000D01*
X150950000Y-88900000D02*
X150950000Y-76600000D01*
X160530000Y-76600000D02*
X163250000Y-76600000D01*
X161639050Y-82850000D02*
G75*
G03*
X161639050Y-82850000I-4579050J0D01*
G01*
X150950000Y-76600000D02*
X153670000Y-76600000D01*
X155530000Y-76600000D02*
X158670000Y-76600000D01*
X153670000Y-88900000D02*
X150950000Y-88900000D01*
X163250000Y-88900000D02*
X160530000Y-88900000D01*
X156472936Y-95590000D02*
X157927064Y-95590000D01*
X156472936Y-97410000D02*
X157927064Y-97410000D01*
X140972936Y-95590000D02*
X142427064Y-95590000D01*
X140972936Y-97410000D02*
X142427064Y-97410000D01*
X125472936Y-95590000D02*
X126927064Y-95590000D01*
X125472936Y-97410000D02*
X126927064Y-97410000D01*
X157827064Y-51410000D02*
X156372936Y-51410000D01*
X157827064Y-49590000D02*
X156372936Y-49590000D01*
X142327064Y-51410000D02*
X140872936Y-51410000D01*
X142327064Y-49590000D02*
X140872936Y-49590000D01*
X126827064Y-51410000D02*
X125372936Y-51410000D01*
X126827064Y-49590000D02*
X125372936Y-49590000D01*
X155577500Y-94935000D02*
X159637500Y-94935000D01*
X159637500Y-94935000D02*
X159637500Y-92665000D01*
X159637500Y-92665000D02*
X155577500Y-92665000D01*
X140077500Y-94935000D02*
X144137500Y-94935000D01*
X144137500Y-94935000D02*
X144137500Y-92665000D01*
X144137500Y-92665000D02*
X140077500Y-92665000D01*
X124577500Y-94935000D02*
X128637500Y-94935000D01*
X128637500Y-94935000D02*
X128637500Y-92665000D01*
X128637500Y-92665000D02*
X124577500Y-92665000D01*
X158722500Y-52365000D02*
X154662500Y-52365000D01*
X154662500Y-52365000D02*
X154662500Y-54635000D01*
X154662500Y-54635000D02*
X158722500Y-54635000D01*
X143222500Y-52365000D02*
X139162500Y-52365000D01*
X139162500Y-52365000D02*
X139162500Y-54635000D01*
X139162500Y-54635000D02*
X143222500Y-54635000D01*
X127722500Y-52365000D02*
X123662500Y-52365000D01*
X123662500Y-52365000D02*
X123662500Y-54635000D01*
X123662500Y-54635000D02*
X127722500Y-54635000D01*
D10*
X134844761Y-66053333D02*
X134892380Y-65910476D01*
X134892380Y-65672380D01*
X134844761Y-65577142D01*
X134797142Y-65529523D01*
X134701904Y-65481904D01*
X134606666Y-65481904D01*
X134511428Y-65529523D01*
X134463809Y-65577142D01*
X134416190Y-65672380D01*
X134368571Y-65862857D01*
X134320952Y-65958095D01*
X134273333Y-66005714D01*
X134178095Y-66053333D01*
X134082857Y-66053333D01*
X133987619Y-66005714D01*
X133940000Y-65958095D01*
X133892380Y-65862857D01*
X133892380Y-65624761D01*
X133940000Y-65481904D01*
X133892380Y-65148571D02*
X134892380Y-64910476D01*
X134178095Y-64720000D01*
X134892380Y-64529523D01*
X133892380Y-64291428D01*
X133987619Y-63958095D02*
X133940000Y-63910476D01*
X133892380Y-63815238D01*
X133892380Y-63577142D01*
X133940000Y-63481904D01*
X133987619Y-63434285D01*
X134082857Y-63386666D01*
X134178095Y-63386666D01*
X134320952Y-63434285D01*
X134892380Y-64005714D01*
X134892380Y-63386666D01*
X133664761Y-83913333D02*
X133712380Y-83770476D01*
X133712380Y-83532380D01*
X133664761Y-83437142D01*
X133617142Y-83389523D01*
X133521904Y-83341904D01*
X133426666Y-83341904D01*
X133331428Y-83389523D01*
X133283809Y-83437142D01*
X133236190Y-83532380D01*
X133188571Y-83722857D01*
X133140952Y-83818095D01*
X133093333Y-83865714D01*
X132998095Y-83913333D01*
X132902857Y-83913333D01*
X132807619Y-83865714D01*
X132760000Y-83818095D01*
X132712380Y-83722857D01*
X132712380Y-83484761D01*
X132760000Y-83341904D01*
X132712380Y-83008571D02*
X133712380Y-82770476D01*
X132998095Y-82580000D01*
X133712380Y-82389523D01*
X132712380Y-82151428D01*
X133045714Y-81341904D02*
X133712380Y-81341904D01*
X132664761Y-81580000D02*
X133379047Y-81818095D01*
X133379047Y-81199047D01*
X150344761Y-66053333D02*
X150392380Y-65910476D01*
X150392380Y-65672380D01*
X150344761Y-65577142D01*
X150297142Y-65529523D01*
X150201904Y-65481904D01*
X150106666Y-65481904D01*
X150011428Y-65529523D01*
X149963809Y-65577142D01*
X149916190Y-65672380D01*
X149868571Y-65862857D01*
X149820952Y-65958095D01*
X149773333Y-66005714D01*
X149678095Y-66053333D01*
X149582857Y-66053333D01*
X149487619Y-66005714D01*
X149440000Y-65958095D01*
X149392380Y-65862857D01*
X149392380Y-65624761D01*
X149440000Y-65481904D01*
X149392380Y-65148571D02*
X150392380Y-64910476D01*
X149678095Y-64720000D01*
X150392380Y-64529523D01*
X149392380Y-64291428D01*
X149392380Y-64005714D02*
X149392380Y-63386666D01*
X149773333Y-63720000D01*
X149773333Y-63577142D01*
X149820952Y-63481904D01*
X149868571Y-63434285D01*
X149963809Y-63386666D01*
X150201904Y-63386666D01*
X150297142Y-63434285D01*
X150344761Y-63481904D01*
X150392380Y-63577142D01*
X150392380Y-63862857D01*
X150344761Y-63958095D01*
X150297142Y-64005714D01*
X119344761Y-66053333D02*
X119392380Y-65910476D01*
X119392380Y-65672380D01*
X119344761Y-65577142D01*
X119297142Y-65529523D01*
X119201904Y-65481904D01*
X119106666Y-65481904D01*
X119011428Y-65529523D01*
X118963809Y-65577142D01*
X118916190Y-65672380D01*
X118868571Y-65862857D01*
X118820952Y-65958095D01*
X118773333Y-66005714D01*
X118678095Y-66053333D01*
X118582857Y-66053333D01*
X118487619Y-66005714D01*
X118440000Y-65958095D01*
X118392380Y-65862857D01*
X118392380Y-65624761D01*
X118440000Y-65481904D01*
X118392380Y-65148571D02*
X119392380Y-64910476D01*
X118678095Y-64720000D01*
X119392380Y-64529523D01*
X118392380Y-64291428D01*
X119392380Y-63386666D02*
X119392380Y-63958095D01*
X119392380Y-63672380D02*
X118392380Y-63672380D01*
X118535238Y-63767619D01*
X118630476Y-63862857D01*
X118678095Y-63958095D01*
X149164761Y-83913333D02*
X149212380Y-83770476D01*
X149212380Y-83532380D01*
X149164761Y-83437142D01*
X149117142Y-83389523D01*
X149021904Y-83341904D01*
X148926666Y-83341904D01*
X148831428Y-83389523D01*
X148783809Y-83437142D01*
X148736190Y-83532380D01*
X148688571Y-83722857D01*
X148640952Y-83818095D01*
X148593333Y-83865714D01*
X148498095Y-83913333D01*
X148402857Y-83913333D01*
X148307619Y-83865714D01*
X148260000Y-83818095D01*
X148212380Y-83722857D01*
X148212380Y-83484761D01*
X148260000Y-83341904D01*
X148212380Y-83008571D02*
X149212380Y-82770476D01*
X148498095Y-82580000D01*
X149212380Y-82389523D01*
X148212380Y-82151428D01*
X148212380Y-81294285D02*
X148212380Y-81770476D01*
X148688571Y-81818095D01*
X148640952Y-81770476D01*
X148593333Y-81675238D01*
X148593333Y-81437142D01*
X148640952Y-81341904D01*
X148688571Y-81294285D01*
X148783809Y-81246666D01*
X149021904Y-81246666D01*
X149117142Y-81294285D01*
X149164761Y-81341904D01*
X149212380Y-81437142D01*
X149212380Y-81675238D01*
X149164761Y-81770476D01*
X149117142Y-81818095D01*
X164664761Y-83913333D02*
X164712380Y-83770476D01*
X164712380Y-83532380D01*
X164664761Y-83437142D01*
X164617142Y-83389523D01*
X164521904Y-83341904D01*
X164426666Y-83341904D01*
X164331428Y-83389523D01*
X164283809Y-83437142D01*
X164236190Y-83532380D01*
X164188571Y-83722857D01*
X164140952Y-83818095D01*
X164093333Y-83865714D01*
X163998095Y-83913333D01*
X163902857Y-83913333D01*
X163807619Y-83865714D01*
X163760000Y-83818095D01*
X163712380Y-83722857D01*
X163712380Y-83484761D01*
X163760000Y-83341904D01*
X163712380Y-83008571D02*
X164712380Y-82770476D01*
X163998095Y-82580000D01*
X164712380Y-82389523D01*
X163712380Y-82151428D01*
X163712380Y-81341904D02*
X163712380Y-81532380D01*
X163760000Y-81627619D01*
X163807619Y-81675238D01*
X163950476Y-81770476D01*
X164140952Y-81818095D01*
X164521904Y-81818095D01*
X164617142Y-81770476D01*
X164664761Y-81722857D01*
X164712380Y-81627619D01*
X164712380Y-81437142D01*
X164664761Y-81341904D01*
X164617142Y-81294285D01*
X164521904Y-81246666D01*
X164283809Y-81246666D01*
X164188571Y-81294285D01*
X164140952Y-81341904D01*
X164093333Y-81437142D01*
X164093333Y-81627619D01*
X164140952Y-81722857D01*
X164188571Y-81770476D01*
X164283809Y-81818095D01*
X160457142Y-96952380D02*
X160123809Y-96476190D01*
X159885714Y-96952380D02*
X159885714Y-95952380D01*
X160266666Y-95952380D01*
X160361904Y-96000000D01*
X160409523Y-96047619D01*
X160457142Y-96142857D01*
X160457142Y-96285714D01*
X160409523Y-96380952D01*
X160361904Y-96428571D01*
X160266666Y-96476190D01*
X159885714Y-96476190D01*
X161409523Y-96952380D02*
X160838095Y-96952380D01*
X161123809Y-96952380D02*
X161123809Y-95952380D01*
X161028571Y-96095238D01*
X160933333Y-96190476D01*
X160838095Y-96238095D01*
X161980952Y-96380952D02*
X161885714Y-96333333D01*
X161838095Y-96285714D01*
X161790476Y-96190476D01*
X161790476Y-96142857D01*
X161838095Y-96047619D01*
X161885714Y-96000000D01*
X161980952Y-95952380D01*
X162171428Y-95952380D01*
X162266666Y-96000000D01*
X162314285Y-96047619D01*
X162361904Y-96142857D01*
X162361904Y-96190476D01*
X162314285Y-96285714D01*
X162266666Y-96333333D01*
X162171428Y-96380952D01*
X161980952Y-96380952D01*
X161885714Y-96428571D01*
X161838095Y-96476190D01*
X161790476Y-96571428D01*
X161790476Y-96761904D01*
X161838095Y-96857142D01*
X161885714Y-96904761D01*
X161980952Y-96952380D01*
X162171428Y-96952380D01*
X162266666Y-96904761D01*
X162314285Y-96857142D01*
X162361904Y-96761904D01*
X162361904Y-96571428D01*
X162314285Y-96476190D01*
X162266666Y-96428571D01*
X162171428Y-96380952D01*
X144957142Y-96952380D02*
X144623809Y-96476190D01*
X144385714Y-96952380D02*
X144385714Y-95952380D01*
X144766666Y-95952380D01*
X144861904Y-96000000D01*
X144909523Y-96047619D01*
X144957142Y-96142857D01*
X144957142Y-96285714D01*
X144909523Y-96380952D01*
X144861904Y-96428571D01*
X144766666Y-96476190D01*
X144385714Y-96476190D01*
X145909523Y-96952380D02*
X145338095Y-96952380D01*
X145623809Y-96952380D02*
X145623809Y-95952380D01*
X145528571Y-96095238D01*
X145433333Y-96190476D01*
X145338095Y-96238095D01*
X146242857Y-95952380D02*
X146909523Y-95952380D01*
X146480952Y-96952380D01*
X129457142Y-96952380D02*
X129123809Y-96476190D01*
X128885714Y-96952380D02*
X128885714Y-95952380D01*
X129266666Y-95952380D01*
X129361904Y-96000000D01*
X129409523Y-96047619D01*
X129457142Y-96142857D01*
X129457142Y-96285714D01*
X129409523Y-96380952D01*
X129361904Y-96428571D01*
X129266666Y-96476190D01*
X128885714Y-96476190D01*
X130409523Y-96952380D02*
X129838095Y-96952380D01*
X130123809Y-96952380D02*
X130123809Y-95952380D01*
X130028571Y-96095238D01*
X129933333Y-96190476D01*
X129838095Y-96238095D01*
X131266666Y-95952380D02*
X131076190Y-95952380D01*
X130980952Y-96000000D01*
X130933333Y-96047619D01*
X130838095Y-96190476D01*
X130790476Y-96380952D01*
X130790476Y-96761904D01*
X130838095Y-96857142D01*
X130885714Y-96904761D01*
X130980952Y-96952380D01*
X131171428Y-96952380D01*
X131266666Y-96904761D01*
X131314285Y-96857142D01*
X131361904Y-96761904D01*
X131361904Y-96523809D01*
X131314285Y-96428571D01*
X131266666Y-96380952D01*
X131171428Y-96333333D01*
X130980952Y-96333333D01*
X130885714Y-96380952D01*
X130838095Y-96428571D01*
X130790476Y-96523809D01*
X152257142Y-50952380D02*
X151923809Y-50476190D01*
X151685714Y-50952380D02*
X151685714Y-49952380D01*
X152066666Y-49952380D01*
X152161904Y-50000000D01*
X152209523Y-50047619D01*
X152257142Y-50142857D01*
X152257142Y-50285714D01*
X152209523Y-50380952D01*
X152161904Y-50428571D01*
X152066666Y-50476190D01*
X151685714Y-50476190D01*
X153209523Y-50952380D02*
X152638095Y-50952380D01*
X152923809Y-50952380D02*
X152923809Y-49952380D01*
X152828571Y-50095238D01*
X152733333Y-50190476D01*
X152638095Y-50238095D01*
X154114285Y-49952380D02*
X153638095Y-49952380D01*
X153590476Y-50428571D01*
X153638095Y-50380952D01*
X153733333Y-50333333D01*
X153971428Y-50333333D01*
X154066666Y-50380952D01*
X154114285Y-50428571D01*
X154161904Y-50523809D01*
X154161904Y-50761904D01*
X154114285Y-50857142D01*
X154066666Y-50904761D01*
X153971428Y-50952380D01*
X153733333Y-50952380D01*
X153638095Y-50904761D01*
X153590476Y-50857142D01*
X136857142Y-51052380D02*
X136523809Y-50576190D01*
X136285714Y-51052380D02*
X136285714Y-50052380D01*
X136666666Y-50052380D01*
X136761904Y-50100000D01*
X136809523Y-50147619D01*
X136857142Y-50242857D01*
X136857142Y-50385714D01*
X136809523Y-50480952D01*
X136761904Y-50528571D01*
X136666666Y-50576190D01*
X136285714Y-50576190D01*
X137809523Y-51052380D02*
X137238095Y-51052380D01*
X137523809Y-51052380D02*
X137523809Y-50052380D01*
X137428571Y-50195238D01*
X137333333Y-50290476D01*
X137238095Y-50338095D01*
X138666666Y-50385714D02*
X138666666Y-51052380D01*
X138428571Y-50004761D02*
X138190476Y-50719047D01*
X138809523Y-50719047D01*
X121457142Y-51152380D02*
X121123809Y-50676190D01*
X120885714Y-51152380D02*
X120885714Y-50152380D01*
X121266666Y-50152380D01*
X121361904Y-50200000D01*
X121409523Y-50247619D01*
X121457142Y-50342857D01*
X121457142Y-50485714D01*
X121409523Y-50580952D01*
X121361904Y-50628571D01*
X121266666Y-50676190D01*
X120885714Y-50676190D01*
X122409523Y-51152380D02*
X121838095Y-51152380D01*
X122123809Y-51152380D02*
X122123809Y-50152380D01*
X122028571Y-50295238D01*
X121933333Y-50390476D01*
X121838095Y-50438095D01*
X122742857Y-50152380D02*
X123361904Y-50152380D01*
X123028571Y-50533333D01*
X123171428Y-50533333D01*
X123266666Y-50580952D01*
X123314285Y-50628571D01*
X123361904Y-50723809D01*
X123361904Y-50961904D01*
X123314285Y-51057142D01*
X123266666Y-51104761D01*
X123171428Y-51152380D01*
X122885714Y-51152380D01*
X122790476Y-51104761D01*
X122742857Y-51057142D01*
X159861904Y-94352380D02*
X159861904Y-93352380D01*
X160100000Y-93352380D01*
X160242857Y-93400000D01*
X160338095Y-93495238D01*
X160385714Y-93590476D01*
X160433333Y-93780952D01*
X160433333Y-93923809D01*
X160385714Y-94114285D01*
X160338095Y-94209523D01*
X160242857Y-94304761D01*
X160100000Y-94352380D01*
X159861904Y-94352380D01*
X161290476Y-93352380D02*
X161100000Y-93352380D01*
X161004761Y-93400000D01*
X160957142Y-93447619D01*
X160861904Y-93590476D01*
X160814285Y-93780952D01*
X160814285Y-94161904D01*
X160861904Y-94257142D01*
X160909523Y-94304761D01*
X161004761Y-94352380D01*
X161195238Y-94352380D01*
X161290476Y-94304761D01*
X161338095Y-94257142D01*
X161385714Y-94161904D01*
X161385714Y-93923809D01*
X161338095Y-93828571D01*
X161290476Y-93780952D01*
X161195238Y-93733333D01*
X161004761Y-93733333D01*
X160909523Y-93780952D01*
X160861904Y-93828571D01*
X160814285Y-93923809D01*
X144361904Y-94252380D02*
X144361904Y-93252380D01*
X144600000Y-93252380D01*
X144742857Y-93300000D01*
X144838095Y-93395238D01*
X144885714Y-93490476D01*
X144933333Y-93680952D01*
X144933333Y-93823809D01*
X144885714Y-94014285D01*
X144838095Y-94109523D01*
X144742857Y-94204761D01*
X144600000Y-94252380D01*
X144361904Y-94252380D01*
X145838095Y-93252380D02*
X145361904Y-93252380D01*
X145314285Y-93728571D01*
X145361904Y-93680952D01*
X145457142Y-93633333D01*
X145695238Y-93633333D01*
X145790476Y-93680952D01*
X145838095Y-93728571D01*
X145885714Y-93823809D01*
X145885714Y-94061904D01*
X145838095Y-94157142D01*
X145790476Y-94204761D01*
X145695238Y-94252380D01*
X145457142Y-94252380D01*
X145361904Y-94204761D01*
X145314285Y-94157142D01*
X128961904Y-94252380D02*
X128961904Y-93252380D01*
X129200000Y-93252380D01*
X129342857Y-93300000D01*
X129438095Y-93395238D01*
X129485714Y-93490476D01*
X129533333Y-93680952D01*
X129533333Y-93823809D01*
X129485714Y-94014285D01*
X129438095Y-94109523D01*
X129342857Y-94204761D01*
X129200000Y-94252380D01*
X128961904Y-94252380D01*
X130390476Y-93585714D02*
X130390476Y-94252380D01*
X130152380Y-93204761D02*
X129914285Y-93919047D01*
X130533333Y-93919047D01*
X152661904Y-53952380D02*
X152661904Y-52952380D01*
X152900000Y-52952380D01*
X153042857Y-53000000D01*
X153138095Y-53095238D01*
X153185714Y-53190476D01*
X153233333Y-53380952D01*
X153233333Y-53523809D01*
X153185714Y-53714285D01*
X153138095Y-53809523D01*
X153042857Y-53904761D01*
X152900000Y-53952380D01*
X152661904Y-53952380D01*
X153566666Y-52952380D02*
X154185714Y-52952380D01*
X153852380Y-53333333D01*
X153995238Y-53333333D01*
X154090476Y-53380952D01*
X154138095Y-53428571D01*
X154185714Y-53523809D01*
X154185714Y-53761904D01*
X154138095Y-53857142D01*
X154090476Y-53904761D01*
X153995238Y-53952380D01*
X153709523Y-53952380D01*
X153614285Y-53904761D01*
X153566666Y-53857142D01*
X137261904Y-53952380D02*
X137261904Y-52952380D01*
X137500000Y-52952380D01*
X137642857Y-53000000D01*
X137738095Y-53095238D01*
X137785714Y-53190476D01*
X137833333Y-53380952D01*
X137833333Y-53523809D01*
X137785714Y-53714285D01*
X137738095Y-53809523D01*
X137642857Y-53904761D01*
X137500000Y-53952380D01*
X137261904Y-53952380D01*
X138214285Y-53047619D02*
X138261904Y-53000000D01*
X138357142Y-52952380D01*
X138595238Y-52952380D01*
X138690476Y-53000000D01*
X138738095Y-53047619D01*
X138785714Y-53142857D01*
X138785714Y-53238095D01*
X138738095Y-53380952D01*
X138166666Y-53952380D01*
X138785714Y-53952380D01*
X121861904Y-54052380D02*
X121861904Y-53052380D01*
X122100000Y-53052380D01*
X122242857Y-53100000D01*
X122338095Y-53195238D01*
X122385714Y-53290476D01*
X122433333Y-53480952D01*
X122433333Y-53623809D01*
X122385714Y-53814285D01*
X122338095Y-53909523D01*
X122242857Y-54004761D01*
X122100000Y-54052380D01*
X121861904Y-54052380D01*
X123385714Y-54052380D02*
X122814285Y-54052380D01*
X123100000Y-54052380D02*
X123100000Y-53052380D01*
X123004761Y-53195238D01*
X122909523Y-53290476D01*
X122814285Y-53338095D01*
M02*
