M48
; DRILL file {KiCad 5.1.8-5.1.8} date Tue Sep 21 08:59:55 2021
; FORMAT={-:-/ absolute / inch / decimal}
; #@! TF.CreationDate,2021-09-21T08:59:55+02:00
; #@! TF.GenerationSoftware,Kicad,Pcbnew,5.1.8-5.1.8
; #@! TF.FileFunction,Plated,1,2,PTH
FMAT,2
INCH
T1C0.0157
T2C0.0394
T3C0.0512
%
G90
G05
T1
X5.2559Y-2.5
X5.874Y-2.4961
X6.3858Y-2.8071
X6.4854Y-3.505
X6.4921Y-2.5039
X6.7008Y-3.1063
X6.7707Y-3.2362
X6.781Y-3.3361
T2
X4.4409Y-2.6496
X4.4409Y-2.7496
X4.4409Y-2.8496
X4.4409Y-2.9496
X4.4409Y-3.0496
X4.4409Y-3.1496
X6.6299Y-2.2449
X6.6299Y-2.3449
X6.6299Y-2.4449
X6.6299Y-2.5449
X6.6299Y-2.6449
X6.6299Y-2.7449
X6.6299Y-2.8449
X6.6299Y-2.9449
T3
X6.0866Y-2.2953
X6.0866Y-2.7874
X6.099Y-2.5374
X6.2711Y-2.5374
X6.2835Y-2.2953
X6.2835Y-2.7874
X5.4764Y-3.0118
X5.4764Y-3.5039
X5.4888Y-3.2618
X5.6608Y-3.2618
X5.6732Y-3.0118
X5.6732Y-3.5039
X4.8661Y-3.0118
X4.8661Y-3.5039
X4.8785Y-3.2618
X5.0506Y-3.2618
X5.063Y-3.0118
X5.063Y-3.5039
X6.0866Y-3.0118
X6.0866Y-3.5039
X6.099Y-3.2618
X6.2711Y-3.2618
X6.2835Y-3.0118
X6.2835Y-3.5039
X4.8661Y-2.2953
X4.8661Y-2.7874
X4.8785Y-2.5374
X5.0506Y-2.5374
X5.063Y-2.2953
X5.063Y-2.7874
X5.4764Y-2.2953
X5.4764Y-2.7874
X5.4888Y-2.5374
X5.6608Y-2.5374
X5.6732Y-2.2953
X5.6732Y-2.7874
T0
M30
